<?xml version="1.0" encoding="UTF-8" standalone="no"?><svg xmlns="http://www.w3.org/2000/svg" xmlns:xlink="http://www.w3.org/1999/xlink" clip-rule="evenodd" stroke-miterlimit="4.00" viewBox="0 0 501 154"><desc>SVG generated by Keynote</desc><defs><linearGradient id="gradSh1.0" x1="0.0" y1="0.0" x2="100.0" y2="0.0" gradientUnits="userSpaceOnUse" gradientTransform="matrix(0.00, -1.05, -4.15, 0.00, 278.0, 131.7)"><stop offset="0.00000" stop-color="#FBF7E9"></stop><stop offset="0.00806" stop-color="#FBF6E9"></stop><stop offset="1.00000" stop-color="#C3C2B7"></stop></linearGradient></defs><g transform="matrix(1.00, 0.00, -0.00, -1.00, 0.0, 154.0)"><g><clipPath id="clip-78"><path d="M 55.7 11.7 L 500.4 11.7 L 500.4 146.7 L 55.7 146.7 Z M 55.7 11.7 "></path></clipPath><g clip-path="url(#clip-78)"><image xlink:href="617118220CAB0B5382618C40AF247E6B.png" width="443.00" height="133.00" transform="matrix(1.00, 0.00, -0.00, -1.00, 56.7, 145.7)" opacity="0.90"></image></g></g><g><clipPath id="clip-79"><path d="M 55.7 11.7 L 500.4 11.7 L 500.4 146.7 L 55.7 146.7 Z M 55.7 11.7 "></path></clipPath><g clip-path="url(#clip-79)"><g opacity="0.90"><g><clipPath id="clip-80"><path d="M 71.7 130.7 L 484.4 130.7 L 484.4 27.7 L 71.7 27.7 Z M 71.7 130.7 "></path></clipPath><g clip-path="url(#clip-80)"><g><clipPath id="clip-81"><path d="M 66.0 22.0 L 490.0 22.0 L 490.0 136.0 L 66.0 136.0 Z M 66.0 22.0 "></path></clipPath><g clip-path="url(#clip-81)"><path d="M 66.0 22.0 L 490.0 22.0 L 490.0 136.0 L 66.0 136.0 Z M 66.0 22.0 " fill="url(#gradSh1.0)"></path></g></g></g></g><g><clipPath id="clip-82"><path d="M 66.0 22.0 L 490.0 22.0 L 490.0 136.0 L 66.0 136.0 Z M 66.0 22.0 "></path></clipPath><g clip-path="url(#clip-82)"><path d="M 0.0 0.0 L 412.7 0.0 L 412.7 103.0 L 0.0 103.0 Z M 0.0 0.0 " fill="none" stroke="#FEFFFF" stroke-width="10.00" transform="matrix(1.00, 0.00, 0.00, -1.00, 71.7, 130.7)"></path></g></g></g></g></g><g opacity="0.90"><g><clipPath id="clip-83"><path d="M 76.7 32.7 L 479.4 32.7 L 479.4 125.7 L 76.7 125.7 Z M 76.7 32.7 "></path></clipPath><g clip-path="url(#clip-83)"><text xml:space="preserve" font-family="MuseoSans-700" font-weight="bold" font-size="24.0" fill="#585852" transform="matrix(1.00, 0.00, -0.00, -1.00, 97.0, 83.0)">F</text><text xml:space="preserve" font-family="MuseoSans-700" font-weight="bold" font-size="24.0" fill="#585852" transform="matrix(1.00, 0.00, -0.00, -1.00, 109.7, 83.0)">i</text><text xml:space="preserve" font-family="MuseoSans-700" font-weight="bold" font-size="24.0" fill="#585852" transform="matrix(1.00, 0.00, -0.00, -1.00, 116.1, 83.0)">r</text><text xml:space="preserve" font-family="MuseoSans-700" font-weight="bold" font-size="24.0" fill="#585852" transform="matrix(1.00, 0.00, -0.00, -1.00, 125.5, 83.0)">s</text><text xml:space="preserve" font-family="MuseoSans-700" font-weight="bold" font-size="24.0" fill="#585852" transform="matrix(1.00, 0.00, -0.00, -1.00, 136.4, 83.0)">t</text><text xml:space="preserve" font-family="MuseoSans-700" font-weight="bold" font-size="24.0" fill="#585852" transform="matrix(1.00, 0.00, -0.00, -1.00, 145.4, 83.0)"> </text><text xml:space="preserve" font-family="MuseoSans-700" font-weight="bold" font-size="24.0" fill="#585852" transform="matrix(1.00, 0.00, -0.00, -1.00, 151.3, 83.0)">F</text><text xml:space="preserve" font-family="MuseoSans-700" font-weight="bold" font-size="24.0" fill="#585852" transform="matrix(1.00, 0.00, -0.00, -1.00, 164.0, 83.0)">l</text><text xml:space="preserve" font-family="MuseoSans-700" font-weight="bold" font-size="24.0" fill="#585852" transform="matrix(1.00, 0.00, -0.00, -1.00, 170.8, 83.0)">i</text><text xml:space="preserve" font-family="MuseoSans-700" font-weight="bold" font-size="24.0" fill="#585852" transform="matrix(1.00, 0.00, -0.00, -1.00, 177.2, 83.0)">g</text><text xml:space="preserve" font-family="MuseoSans-700" font-weight="bold" font-size="24.0" fill="#585852" transform="matrix(1.00, 0.00, -0.00, -1.00, 191.7, 83.0)">h</text><text xml:space="preserve" font-family="MuseoSans-700" font-weight="bold" font-size="24.0" fill="#585852" transform="matrix(1.00, 0.00, -0.00, -1.00, 206.4, 83.0)">t</text><text xml:space="preserve" font-family="MuseoSans-700" font-weight="bold" font-size="24.0" fill="#585852" transform="matrix(1.00, 0.00, -0.00, -1.00, 215.4, 83.0)">:</text><text xml:space="preserve" font-family="MuseoSans-700" font-weight="bold" font-size="24.0" fill="#585852" transform="matrix(1.00, 0.00, -0.00, -1.00, 222.4, 83.0)"> </text><text xml:space="preserve" font-family="MuseoSans-700" font-weight="bold" font-size="24.0" fill="#585852" transform="matrix(1.00, 0.00, -0.00, -1.00, 228.2, 83.0)">Y</text><text xml:space="preserve" font-family="MuseoSans-700" font-weight="bold" font-size="24.0" fill="#585852" transform="matrix(1.00, 0.00, -0.00, -1.00, 242.0, 83.0)">u</text><text xml:space="preserve" font-family="MuseoSans-700" font-weight="bold" font-size="24.0" fill="#585852" transform="matrix(1.00, 0.00, -0.00, -1.00, 256.6, 83.0)">r</text><text xml:space="preserve" font-family="MuseoSans-700" font-weight="bold" font-size="24.0" fill="#585852" transform="matrix(1.00, 0.00, -0.00, -1.00, 266.0, 83.0)">i</text><text xml:space="preserve" font-family="MuseoSans-700" font-weight="bold" font-size="24.0" fill="#585852" transform="matrix(1.00, 0.00, -0.00, -1.00, 272.4, 83.0)">’</text><text xml:space="preserve" font-family="MuseoSans-700" font-weight="bold" font-size="24.0" fill="#585852" transform="matrix(1.00, 0.00, -0.00, -1.00, 278.0, 83.0)">s</text><text xml:space="preserve" font-family="MuseoSans-700" font-weight="bold" font-size="24.0" fill="#585852" transform="matrix(1.00, 0.00, -0.00, -1.00, 288.8, 83.0)"> </text><text xml:space="preserve" font-family="MuseoSans-700" font-weight="bold" font-size="24.0" fill="#585852" transform="matrix(1.00, 0.00, -0.00, -1.00, 294.6, 83.0)">N</text><text xml:space="preserve" font-family="MuseoSans-700" font-weight="bold" font-size="24.0" fill="#585852" transform="matrix(1.00, 0.00, -0.00, -1.00, 312.9, 83.0)">i</text><text xml:space="preserve" font-family="MuseoSans-700" font-weight="bold" font-size="24.0" fill="#585852" transform="matrix(1.00, 0.00, -0.00, -1.00, 319.3, 83.0)">g</text><text xml:space="preserve" font-family="MuseoSans-700" font-weight="bold" font-size="24.0" fill="#585852" transform="matrix(1.00, 0.00, -0.00, -1.00, 333.8, 83.0)">h</text><text xml:space="preserve" font-family="MuseoSans-700" font-weight="bold" font-size="24.0" fill="#585852" transform="matrix(1.00, 0.00, -0.00, -1.00, 348.5, 83.0)">t</text><text xml:space="preserve" font-family="MuseoSans-700" font-weight="bold" font-size="24.0" fill="#585852" transform="matrix(1.00, 0.00, -0.00, -1.00, 357.5, 83.0)"> </text><text xml:space="preserve" font-family="MuseoSans-500" font-size="20.0" fill="#585852" transform="matrix(1.00, 0.00, -0.00, -1.00, 97.0, 58.0)">Y</text><text xml:space="preserve" font-family="MuseoSans-500" font-size="20.0" fill="#585852" transform="matrix(1.00, 0.00, -0.00, -1.00, 108.8, 58.0)">N</text><text xml:space="preserve" font-family="MuseoSans-500" font-size="20.0" fill="#585852" transform="matrix(1.00, 0.00, -0.00, -1.00, 123.9, 58.0)"> </text><text xml:space="preserve" font-family="MuseoSans-500" font-size="20.0" fill="#585852" transform="matrix(1.00, 0.00, -0.00, -1.00, 129.0, 58.0)">Y</text><text xml:space="preserve" font-family="MuseoSans-500" font-size="20.0" fill="#585852" transform="matrix(1.00, 0.00, -0.00, -1.00, 139.7, 58.0)">e</text><text xml:space="preserve" font-family="MuseoSans-500" font-size="20.0" fill="#585852" transform="matrix(1.00, 0.00, -0.00, -1.00, 150.8, 58.0)">a</text><text xml:space="preserve" font-family="MuseoSans-500" font-size="20.0" fill="#585852" transform="matrix(1.00, 0.00, -0.00, -1.00, 161.3, 58.0)">r</text><text xml:space="preserve" font-family="MuseoSans-500" font-size="20.0" fill="#585852" transform="matrix(1.00, 0.00, -0.00, -1.00, 168.8, 58.0)"> </text><text xml:space="preserve" font-family="MuseoSans-500" font-size="20.0" fill="#585852" transform="matrix(1.00, 0.00, -0.00, -1.00, 174.0, 58.0)">Z</text><text xml:space="preserve" font-family="MuseoSans-500" font-size="20.0" fill="#585852" transform="matrix(1.00, 0.00, -0.00, -1.00, 186.0, 58.0)">e</text><text xml:space="preserve" font-family="MuseoSans-500" font-size="20.0" fill="#585852" transform="matrix(1.00, 0.00, -0.00, -1.00, 197.1, 58.0)">r</text><text xml:space="preserve" font-family="MuseoSans-500" font-size="20.0" fill="#585852" transform="matrix(1.00, 0.00, -0.00, -1.00, 204.6, 58.0)">o</text></g></g></g><g><clipPath id="clip-84"><path d="M 76.8 153.6 L 153.2 77.2 L 76.8 0.9 L 0.5 77.2 Z M 76.8 153.6 "></path></clipPath><g clip-path="url(#clip-84)"><image xlink:href="7F68E4F361647783939C428D42072155.png" width="106.00" height="106.00" transform="matrix(0.71, -0.71, -0.71, -0.71, 76.8, 152.2)" opacity="0.40"></image><path d="M 76.8 149.9 L 6.1 79.2 L 76.8 8.5 Z M 76.8 149.9 " fill="#FEFFFF" fill-opacity="0.80"></path></g></g></g></svg>