<?xml version="1.0" encoding="UTF-8" standalone="no"?><svg xmlns="http://www.w3.org/2000/svg" xmlns:xlink="http://www.w3.org/1999/xlink" clip-rule="evenodd" stroke-miterlimit="4.00" viewBox="0 0 1920 1080"><desc>SVG generated by Keynote</desc><defs><pattern id="A9BFD2B5-4DC0-4854-BC16-592F01466A65" patternUnits="userSpaceOnUse" width="226" height="169" viewBox="0 0 226 169" patternTransform="matrix(1.000000, 0.000000, 0.000000, -1.000000, 124.743100, 487.730000)"><image xlink:href="../../D8898D71-BD24-4EF7-8DFE-CD7FF25ACBC0/assets/7F80CBD8CD9E70EF72A88AA7781C83BE.jpeg" width="226.00" height="169.00"></image></pattern><pattern id="1E2BD90B-55EB-416E-B6F9-409D27F5935B" patternUnits="userSpaceOnUse" width="84" height="68" viewBox="0 0 84 68" patternTransform="matrix(0.952381, 0.000000, 0.000000, -0.970588, 410.846500, 420.574500)"><image xlink:href="../../D8898D71-BD24-4EF7-8DFE-CD7FF25ACBC0/assets/FB59E5400E31FE69716520BB6132A581.png" width="84.00" height="68.00"></image></pattern><pattern id="9D215220-6689-4054-8710-E3C4BCBF9903" patternUnits="userSpaceOnUse" width="137" height="137" viewBox="0 0 137 137" patternTransform="matrix(0.883212, 0.000000, 0.000000, -0.883212, 846.902800, 787.689300)"><image xlink:href="../../D8898D71-BD24-4EF7-8DFE-CD7FF25ACBC0/assets/9AEBE0A7E3F9945ABCEB712DEA2E6E62.jpeg" width="137.00" height="137.00"></image></pattern><pattern id="6A227E1C-B185-460B-BB4C-1895A02C5670" patternUnits="userSpaceOnUse" width="192" height="122" viewBox="0 0 192 122" patternTransform="matrix(1.000000, 0.000000, 0.000000, -1.008197, 1196.158000, 787.689300)"><image xlink:href="../../D8898D71-BD24-4EF7-8DFE-CD7FF25ACBC0/assets/A7FF94D5B9F2ECBC0671640F1DB9D7C9.jpeg" width="192.00" height="122.00"></image></pattern><pattern id="B6C1FF1A-D1D6-4EFD-9F8F-26814D6014EE" patternUnits="userSpaceOnUse" width="137" height="137" viewBox="0 0 137 137" patternTransform="matrix(0.883212, 0.000000, 0.000000, -0.883212, 398.032000, 787.689300)"><image xlink:href="../../D8898D71-BD24-4EF7-8DFE-CD7FF25ACBC0/assets/9AEBE0A7E3F9945ABCEB712DEA2E6E62.jpeg" width="137.00" height="137.00"></image></pattern><pattern id="6864B782-194A-43F6-86F9-C44945BE235F" patternUnits="userSpaceOnUse" width="84" height="52" viewBox="0 0 84 52" patternTransform="matrix(0.345238, 0.000000, 0.000000, -0.346154, 1305.887000, 426.724100)"><image xlink:href="../../D8898D71-BD24-4EF7-8DFE-CD7FF25ACBC0/assets/C14209068D51DCCA0D3C86FF96D1FD4A.png" width="84.00" height="52.00"></image></pattern><pattern id="68B40F76-380F-4C89-913E-3D863E4B16F5" patternUnits="userSpaceOnUse" width="84" height="84" viewBox="0 0 84 84" patternTransform="matrix(0.738095, 0.000000, 0.000000, -0.738095, 1555.528000, 426.724100)"><image xlink:href="../../D8898D71-BD24-4EF7-8DFE-CD7FF25ACBC0/assets/C9D552D883B31B8FABD58B81C2AC90B5.png" width="84.00" height="84.00"></image></pattern><linearGradient id="gradSh1.1" x1="0.0" y1="0.0" x2="100.0" y2="0.0" gradientUnits="userSpaceOnUse" gradientTransform="matrix(0.00, -1.05, -4.15, 0.00, 510.0, 452.7)"><stop offset="0.00000" stop-color="#FBF7E9"></stop><stop offset="0.00806" stop-color="#FBF6E9"></stop><stop offset="1.00000" stop-color="#C3C2B7"></stop></linearGradient></defs><g transform="matrix(1.00, 0.00, -0.00, -1.00, 0.0, 1080.0)"><path d="M 0.0 1080.0 L 1920.0 1080.0 L 1920.0 0.0 L 0.0 0.0 Z M 0.0 1080.0 " fill="#000000"></path><image xlink:href="../../D8898D71-BD24-4EF7-8DFE-CD7FF25ACBC0/assets/0C453C5A24E7F491E9180515CF03CF06.jpeg" width="769.00" height="769.00" transform="matrix(1.40, 0.00, -0.00, -1.40, -557.0, 789.0)"></image><path d="M -2.5 1081.5 L 1922.5 1081.5 L 1922.5 901.5 L -2.5 901.5 Z M -2.5 1081.5 " fill="#082433"></path><path d="M -2.5 1081.5 L 1922.5 1081.5 L 1922.5 901.5 L -2.5 901.5 Z M -2.5 1081.5 " fill="#082433"></path><path d="M -2.5 179.9 L 1922.5 179.9 L 1922.5 -0.1 L -2.5 -0.1 Z M -2.5 179.9 " fill="#BFBFBF"></path><path d="M -2.5 179.9 L 1922.5 179.9 L 1922.5 -0.1 L -2.5 -0.1 Z M -2.5 179.9 " fill="#082433"></path><g><clipPath id="clip-85"><path d="M 1300.0 140.0 L 1797.0 140.0 L 1797.0 40.0 L 1300.0 40.0 Z M 1299.7 139.9 "></path></clipPath><g clip-path="url(#clip-85)"><image xlink:href="../../D8898D71-BD24-4EF7-8DFE-CD7FF25ACBC0/assets/9A93BABB89F697A9CB4D0A2BF2830789.png" width="498.00" height="100.00" transform="matrix(1.00, 0.00, -0.00, -1.00, 1300.0, 140.0)"></image></g></g><g opacity="0.50"><g><clipPath id="clip-86"><path d="M 179.0 39.0 L 1077.0 39.0 L 1077.0 140.0 L 179.0 140.0 Z M 179.0 39.0 "></path></clipPath><g clip-path="url(#clip-86)"><text xml:space="preserve" font-family="JosefinSans" font-size="36.0" fill="#96E1FE" transform="matrix(1.00, 0.00, -0.00, -1.00, 184.0, 96.0)">J</text><text xml:space="preserve" font-family="JosefinSans" font-size="36.0" fill="#96E1FE" transform="matrix(1.00, 0.00, -0.00, -1.00, 193.9, 96.0)">a</text><text xml:space="preserve" font-family="JosefinSans" font-size="36.0" fill="#96E1FE" transform="matrix(1.00, 0.00, -0.00, -1.00, 212.9, 96.0)">s</text><text xml:space="preserve" font-family="JosefinSans" font-size="36.0" fill="#96E1FE" transform="matrix(1.00, 0.00, -0.00, -1.00, 224.9, 96.0)">o</text><text xml:space="preserve" font-family="JosefinSans" font-size="36.0" fill="#96E1FE" transform="matrix(1.00, 0.00, -0.00, -1.00, 242.8, 96.0)">n</text><text xml:space="preserve" font-family="JosefinSans" font-size="36.0" fill="#96E1FE" transform="matrix(1.00, 0.00, -0.00, -1.00, 260.2, 96.0)"> </text><text xml:space="preserve" font-family="JosefinSans" font-size="36.0" fill="#96E1FE" transform="matrix(1.00, 0.00, -0.00, -1.00, 269.1, 96.0)">C</text><text xml:space="preserve" font-family="JosefinSans" font-size="36.0" fill="#96E1FE" transform="matrix(1.00, 0.00, -0.00, -1.00, 291.8, 96.0)">r</text><text xml:space="preserve" font-family="JosefinSans" font-size="36.0" fill="#96E1FE" transform="matrix(1.00, 0.00, -0.00, -1.00, 301.9, 96.0)">a</text><text xml:space="preserve" font-family="JosefinSans" font-size="36.0" fill="#96E1FE" transform="matrix(1.00, 0.00, -0.00, -1.00, 320.9, 96.0)">n</text><text xml:space="preserve" font-family="JosefinSans" font-size="36.0" fill="#96E1FE" transform="matrix(1.00, 0.00, -0.00, -1.00, 338.2, 96.0)">f</text><text xml:space="preserve" font-family="JosefinSans" font-size="36.0" fill="#96E1FE" transform="matrix(1.00, 0.00, -0.00, -1.00, 348.4, 96.0)">o</text><text xml:space="preserve" font-family="JosefinSans" font-size="36.0" fill="#96E1FE" transform="matrix(1.00, 0.00, -0.00, -1.00, 366.3, 96.0)">r</text><text xml:space="preserve" font-family="JosefinSans" font-size="36.0" fill="#96E1FE" transform="matrix(1.00, 0.00, -0.00, -1.00, 376.4, 96.0)">d</text><text xml:space="preserve" font-family="JosefinSans" font-size="36.0" fill="#96E1FE" transform="matrix(1.00, 0.00, -0.00, -1.00, 395.5, 96.0)"> </text><text xml:space="preserve" font-family="JosefinSans" font-size="36.0" fill="#96E1FE" transform="matrix(1.00, 0.00, -0.00, -1.00, 403.3, 96.0)">T</text><text xml:space="preserve" font-family="JosefinSans" font-size="36.0" fill="#96E1FE" transform="matrix(1.00, 0.00, -0.00, -1.00, 418.6, 96.0)">e</text><text xml:space="preserve" font-family="JosefinSans" font-size="36.0" fill="#96E1FE" transform="matrix(1.00, 0.00, -0.00, -1.00, 435.0, 96.0)">a</text><text xml:space="preserve" font-family="JosefinSans" font-size="36.0" fill="#96E1FE" transform="matrix(1.00, 0.00, -0.00, -1.00, 454.1, 96.0)">g</text><text xml:space="preserve" font-family="JosefinSans" font-size="36.0" fill="#96E1FE" transform="matrix(1.00, 0.00, -0.00, -1.00, 473.2, 96.0)">u</text><text xml:space="preserve" font-family="JosefinSans" font-size="36.0" fill="#96E1FE" transform="matrix(1.00, 0.00, -0.00, -1.00, 490.5, 96.0)">e</text><text xml:space="preserve" font-family="JosefinSans" font-size="36.0" fill="#96E1FE" transform="matrix(1.00, 0.00, -0.00, -1.00, 507.0, 96.0)"> </text><text xml:space="preserve" font-family="JosefinSans" font-size="36.0" fill="#96E1FE" transform="matrix(1.00, 0.00, -0.00, -1.00, 184.0, 53.0)">@</text><text xml:space="preserve" font-family="JosefinSans" font-size="36.0" fill="#96E1FE" transform="matrix(1.00, 0.00, -0.00, -1.00, 217.7, 53.0)">j</text><text xml:space="preserve" font-family="JosefinSans" font-size="36.0" fill="#96E1FE" transform="matrix(1.00, 0.00, -0.00, -1.00, 224.6, 53.0)">a</text><text xml:space="preserve" font-family="JosefinSans" font-size="36.0" fill="#96E1FE" transform="matrix(1.00, 0.00, -0.00, -1.00, 243.7, 53.0)">s</text><text xml:space="preserve" font-family="JosefinSans" font-size="36.0" fill="#96E1FE" transform="matrix(1.00, 0.00, -0.00, -1.00, 255.6, 53.0)">o</text><text xml:space="preserve" font-family="JosefinSans" font-size="36.0" fill="#96E1FE" transform="matrix(1.00, 0.00, -0.00, -1.00, 273.5, 53.0)">n</text><text xml:space="preserve" font-family="JosefinSans" font-size="36.0" fill="#96E1FE" transform="matrix(1.00, 0.00, -0.00, -1.00, 290.9, 53.0)">c</text><text xml:space="preserve" font-family="JosefinSans" font-size="36.0" fill="#96E1FE" transform="matrix(1.00, 0.00, -0.00, -1.00, 305.8, 53.0)">t</text><text xml:space="preserve" font-family="JosefinSans" font-size="36.0" fill="#96E1FE" transform="matrix(1.00, 0.00, -0.00, -1.00, 315.4, 53.0)"> </text><text xml:space="preserve" font-family="JosefinSans" font-size="36.0" fill="#96E1FE" transform="matrix(1.00, 0.00, -0.00, -1.00, 324.3, 53.0)">|</text><text xml:space="preserve" font-family="JosefinSans" font-size="36.0" fill="#96E1FE" transform="matrix(1.00, 0.00, -0.00, -1.00, 333.1, 53.0)"> </text><text xml:space="preserve" font-family="JosefinSans" font-size="36.0" fill="#96E1FE" transform="matrix(1.00, 0.00, -0.00, -1.00, 342.0, 53.0)">#</text><text xml:space="preserve" font-family="JosefinSans" font-size="36.0" fill="#96E1FE" transform="matrix(1.00, 0.00, -0.00, -1.00, 362.7, 53.0)">Y</text><text xml:space="preserve" font-family="JosefinSans" font-size="36.0" fill="#96E1FE" transform="matrix(1.00, 0.00, -0.00, -1.00, 381.2, 53.0)">u</text><text xml:space="preserve" font-family="JosefinSans" font-size="36.0" fill="#96E1FE" transform="matrix(1.00, 0.00, -0.00, -1.00, 398.5, 53.0)">r</text><text xml:space="preserve" font-family="JosefinSans" font-size="36.0" fill="#96E1FE" transform="matrix(1.00, 0.00, -0.00, -1.00, 409.1, 53.0)">i</text><text xml:space="preserve" font-family="JosefinSans" font-size="36.0" fill="#96E1FE" transform="matrix(1.00, 0.00, -0.00, -1.00, 416.0, 53.0)">s</text><text xml:space="preserve" font-family="JosefinSans" font-size="36.0" fill="#96E1FE" transform="matrix(1.00, 0.00, -0.00, -1.00, 426.9, 53.0)">N</text><text xml:space="preserve" font-family="JosefinSans" font-size="36.0" fill="#96E1FE" transform="matrix(1.00, 0.00, -0.00, -1.00, 455.7, 53.0)">i</text><text xml:space="preserve" font-family="JosefinSans" font-size="36.0" fill="#96E1FE" transform="matrix(1.00, 0.00, -0.00, -1.00, 462.6, 53.0)">g</text><text xml:space="preserve" font-family="JosefinSans" font-size="36.0" fill="#96E1FE" transform="matrix(1.00, 0.00, -0.00, -1.00, 481.7, 53.0)">h</text><text xml:space="preserve" font-family="JosefinSans" font-size="36.0" fill="#96E1FE" transform="matrix(1.00, 0.00, -0.00, -1.00, 499.1, 53.0)">t</text></g></g></g><text xml:space="preserve" font-family="JosefinSans-SemiBold" font-weight="bold" font-size="44.0" fill="#FFDA52" transform="matrix(1.00, 0.00, -0.00, -1.00, 852.0, 976.0)">Y</text><text xml:space="preserve" font-family="JosefinSans-SemiBold" font-weight="bold" font-size="44.0" fill="#FFDA52" transform="matrix(1.00, 0.00, -0.00, -1.00, 881.7, 976.0)">U</text><text xml:space="preserve" font-family="JosefinSans-SemiBold" font-weight="bold" font-size="44.0" fill="#FFDA52" transform="matrix(1.00, 0.00, -0.00, -1.00, 914.1, 976.0)">R</text><text xml:space="preserve" font-family="JosefinSans-SemiBold" font-weight="bold" font-size="44.0" fill="#FFDA52" transform="matrix(1.00, 0.00, -0.00, -1.00, 942.6, 976.0)">I</text><text xml:space="preserve" font-family="JosefinSans-SemiBold" font-weight="bold" font-size="44.0" fill="#FFDA52" transform="matrix(1.00, 0.00, -0.00, -1.00, 956.1, 976.0)">’</text><text xml:space="preserve" font-family="JosefinSans-SemiBold" font-weight="bold" font-size="44.0" fill="#FFDA52" transform="matrix(1.00, 0.00, -0.00, -1.00, 964.9, 976.0)">S</text><text xml:space="preserve" font-family="JosefinSans-SemiBold" font-weight="bold" font-size="44.0" fill="#FFDA52" transform="matrix(1.00, 0.00, -0.00, -1.00, 990.6, 976.0)"> </text><text xml:space="preserve" font-family="JosefinSans-SemiBold" font-weight="bold" font-size="44.0" fill="#FFDA52" transform="matrix(1.00, 0.00, -0.00, -1.00, 1001.6, 976.0)">N</text><text xml:space="preserve" font-family="JosefinSans-SemiBold" font-weight="bold" font-size="44.0" fill="#FFDA52" transform="matrix(1.00, 0.00, -0.00, -1.00, 1038.3, 976.0)">I</text><text xml:space="preserve" font-family="JosefinSans-SemiBold" font-weight="bold" font-size="44.0" fill="#FFDA52" transform="matrix(1.00, 0.00, -0.00, -1.00, 1051.8, 976.0)">G</text><text xml:space="preserve" font-family="JosefinSans-SemiBold" font-weight="bold" font-size="44.0" fill="#FFDA52" transform="matrix(1.00, 0.00, -0.00, -1.00, 1082.8, 976.0)">H</text><text xml:space="preserve" font-family="JosefinSans-SemiBold" font-weight="bold" font-size="44.0" fill="#FFDA52" transform="matrix(1.00, 0.00, -0.00, -1.00, 1117.1, 976.0)">T</text><path d="M 39.4 155.8 C -15.1 101.7 -13.1 49.7 45.5 0.0 " fill="none" stroke="#FEFFFF" stroke-width="2.00" transform="matrix(1.00, 0.00, 0.00, -1.00, 1125.9, 503.0)"></path><path d="M 0.0 0.0 L 273.0 0.0 " fill="none" stroke="#FEFFFF" stroke-width="2.00" stroke-linejoin="round" stroke-dasharray="2.0, 4.0" transform="matrix(1.00, 0.00, 0.00, -1.00, 209.2, 502.4)"></path><path d="M 0.0 0.0 L 62.1 0.0 " fill="none" stroke="#FEFFFF" stroke-width="2.00" transform="matrix(0.00, 1.00, 1.00, 0.00, 336.6, 491.3)"></path><path d="M 0.0 0.0 L 62.1 0.0 " fill="none" stroke="#FEFFFF" stroke-width="2.00" transform="matrix(0.00, 1.00, 1.00, 0.00, 211.2, 492.4)"></path><path d="M 0.0 0.0 L 62.1 0.0 " fill="none" stroke="#FEFFFF" stroke-width="2.00" transform="matrix(0.00, 1.00, 1.00, 0.00, 477.2, 491.3)"></path><path d="M 0.0 0.0 L 1302.9 0.0 L 1303.9 0.0 " fill="none" stroke="#FEFFFF" stroke-width="2.00" transform="matrix(1.00, 0.00, 0.00, -1.00, 477.8, 502.8)"></path><path d="M 1780.7 498.0 L 1790.3 502.8 L 1780.7 507.6 Z M 1780.7 498.0 " fill="#FEFFFF"></path><text xml:space="preserve" font-family="MuseoSans-300" font-size="32.0" fill="#919191" transform="matrix(1.00, 0.00, -0.00, -1.00, 177.0, 574.0)">1</text><text xml:space="preserve" font-family="MuseoSans-300" font-size="32.0" fill="#919191" transform="matrix(1.00, 0.00, -0.00, -1.00, 191.9, 574.0)">9</text><text xml:space="preserve" font-family="MuseoSans-300" font-size="32.0" fill="#919191" transform="matrix(1.00, 0.00, -0.00, -1.00, 210.9, 574.0)">6</text><text xml:space="preserve" font-family="MuseoSans-300" font-size="32.0" fill="#919191" transform="matrix(1.00, 0.00, -0.00, -1.00, 230.0, 574.0)">1</text><text xml:space="preserve" font-family="MuseoSans-300" font-size="32.0" fill="#919191" transform="matrix(1.00, 0.00, -0.00, -1.00, 303.0, 574.0)">1</text><text xml:space="preserve" font-family="MuseoSans-300" font-size="32.0" fill="#919191" transform="matrix(1.00, 0.00, -0.00, -1.00, 317.9, 574.0)">9</text><text xml:space="preserve" font-family="MuseoSans-300" font-size="32.0" fill="#919191" transform="matrix(1.00, 0.00, -0.00, -1.00, 336.9, 574.0)">8</text><text xml:space="preserve" font-family="MuseoSans-300" font-size="32.0" fill="#919191" transform="matrix(1.00, 0.00, -0.00, -1.00, 356.2, 574.0)">1</text><text xml:space="preserve" font-family="MuseoSans-300" font-size="32.0" fill="#919191" transform="matrix(1.00, 0.00, -0.00, -1.00, 441.0, 567.0)">2</text><text xml:space="preserve" font-family="MuseoSans-300" font-size="32.0" fill="#919191" transform="matrix(1.00, 0.00, -0.00, -1.00, 459.1, 567.0)">0</text><text xml:space="preserve" font-family="MuseoSans-300" font-size="32.0" fill="#919191" transform="matrix(1.00, 0.00, -0.00, -1.00, 479.1, 567.0)">0</text><text xml:space="preserve" font-family="MuseoSans-300" font-size="32.0" fill="#919191" transform="matrix(1.00, 0.00, -0.00, -1.00, 499.1, 567.0)">1</text><path d="M 0.0 0.0 L 62.1 0.0 " fill="none" stroke="#FEFFFF" stroke-width="2.00" transform="matrix(0.00, 1.00, 1.00, 0.00, 1260.5, 492.0)"></path><text xml:space="preserve" font-family="MuseoSans-300" font-size="32.0" fill="#919191" transform="matrix(1.00, 0.00, -0.00, -1.00, 1222.0, 567.0)">2</text><text xml:space="preserve" font-family="MuseoSans-300" font-size="32.0" fill="#919191" transform="matrix(1.00, 0.00, -0.00, -1.00, 1240.1, 567.0)">0</text><text xml:space="preserve" font-family="MuseoSans-300" font-size="32.0" fill="#919191" transform="matrix(1.00, 0.00, -0.00, -1.00, 1260.1, 567.0)">1</text><text xml:space="preserve" font-family="MuseoSans-300" font-size="32.0" fill="#919191" transform="matrix(1.00, 0.00, -0.00, -1.00, 1275.0, 567.0)">1</text><path d="M 0.0 0.0 L 62.1 0.0 " fill="none" stroke="#FEFFFF" stroke-width="2.00" transform="matrix(0.00, 1.00, 1.00, 0.00, 910.8, 492.4)"></path><text xml:space="preserve" font-family="MuseoSans-300" font-size="32.0" fill="#919191" transform="matrix(1.00, 0.00, -0.00, -1.00, 871.0, 567.0)">2</text><text xml:space="preserve" font-family="MuseoSans-300" font-size="32.0" fill="#919191" transform="matrix(1.00, 0.00, -0.00, -1.00, 889.1, 567.0)">0</text><text xml:space="preserve" font-family="MuseoSans-300" font-size="32.0" fill="#919191" transform="matrix(1.00, 0.00, -0.00, -1.00, 909.1, 567.0)">0</text><text xml:space="preserve" font-family="MuseoSans-300" font-size="32.0" fill="#919191" transform="matrix(1.00, 0.00, -0.00, -1.00, 929.1, 567.0)">6</text><path d="M 0.0 0.0 L 62.1 0.0 " fill="none" stroke="#FEFFFF" stroke-width="2.00" transform="matrix(0.00, 1.00, 1.00, 0.00, 1688.2, 490.6)"></path><text xml:space="preserve" font-family="MuseoSans-300" font-size="32.0" fill="#919191" transform="matrix(1.00, 0.00, -0.00, -1.00, 1650.0, 567.0)">2</text><text xml:space="preserve" font-family="MuseoSans-300" font-size="32.0" fill="#919191" transform="matrix(1.00, 0.00, -0.00, -1.00, 1668.1, 567.0)">0</text><text xml:space="preserve" font-family="MuseoSans-300" font-size="32.0" fill="#919191" transform="matrix(1.00, 0.00, -0.00, -1.00, 1688.1, 567.0)">1</text><text xml:space="preserve" font-family="MuseoSans-300" font-size="32.0" fill="#919191" transform="matrix(1.00, 0.00, -0.00, -1.00, 1703.0, 567.0)">6</text><g><clipPath id="clip-87"><path d="M 274.1 462.1 C 308.3 427.9 308.3 372.5 274.1 338.4 C 239.9 304.2 184.5 304.2 150.4 338.4 C 116.2 372.5 116.2 427.9 150.4 462.1 C 184.5 496.3 239.9 496.3 274.1 462.1 Z M 274.1 462.1 "></path></clipPath><g clip-path="url(#clip-87)"><path d="M 116.2 304.2 L 308.3 304.2 L 308.3 496.3 L 116.2 496.3 Z M 116.2 304.2 " fill="url(#A9BFD2B5-4DC0-4854-BC16-592F01466A65)"></path></g></g><path d="M 149.4 25.6 C 183.5 59.8 183.5 115.2 149.4 149.4 C 115.2 183.5 59.8 183.5 25.6 149.4 C -8.5 115.2 -8.5 59.8 25.6 25.6 C 59.8 -8.5 115.2 -8.5 149.4 25.6 Z M 149.4 25.6 " fill="none" stroke="#FEFFFF" stroke-width="10.00" transform="matrix(1.00, 0.00, 0.00, -1.00, 124.7, 487.7)"></path><g><clipPath id="clip-88"><path d="M 371.9 473.8 C 391.4 454.3 391.4 422.6 371.9 403.1 C 352.4 383.6 320.7 383.6 301.2 403.1 C 281.7 422.6 281.7 454.3 301.2 473.8 C 320.7 493.3 352.4 493.3 371.9 473.8 Z M 371.9 473.8 "></path></clipPath><g clip-path="url(#clip-88)"><image xlink:href="../../D8898D71-BD24-4EF7-8DFE-CD7FF25ACBC0/assets/D2941D8E2B2A0D16EE53CCA1771677F4.jpeg" width="145.00" height="145.00" transform="matrix(1.00, 0.00, -0.00, -1.00, 286.6, 488.4)"></image></g></g><path d="M 85.4 14.6 C 104.9 34.2 104.9 65.8 85.4 85.4 C 65.8 104.9 34.2 104.9 14.6 85.4 C -4.9 65.8 -4.9 34.2 14.6 14.6 C 34.2 -4.9 65.8 -4.9 85.4 14.6 Z M 85.4 14.6 " fill="none" stroke="#FEFFFF" stroke-width="10.00" transform="matrix(1.00, 0.00, 0.00, -1.00, 286.6, 488.4)"></path><path d="M 39.4 155.8 C -15.1 101.7 -13.1 49.7 45.5 0.0 " fill="none" stroke="#FEFFFF" stroke-width="2.00" transform="matrix(1.00, 0.00, 0.00, -1.00, 419.3, 503.0)"></path><g><clipPath id="clip-89"><path d="M 474.9 409.6 C 489.5 394.9 489.5 371.2 474.9 356.6 C 460.2 341.9 436.5 341.9 421.8 356.6 C 407.2 371.2 407.2 394.9 421.8 409.6 C 436.5 424.2 460.2 424.2 474.9 409.6 Z M 474.9 409.6 "></path></clipPath><g clip-path="url(#clip-89)"><path d="M 407.2 341.9 L 489.5 341.9 L 489.5 424.2 L 407.2 424.2 Z M 407.2 341.9 " fill="url(#1E2BD90B-55EB-416E-B6F9-409D27F5935B)"></path></g></g><path d="M 64.0 11.0 C 78.7 25.6 78.7 49.4 64.0 64.0 C 49.4 78.7 25.6 78.7 11.0 64.0 C -3.7 49.4 -3.7 25.6 11.0 11.0 C 25.6 -3.7 49.4 -3.7 64.0 11.0 Z M 64.0 11.0 " fill="none" stroke="#FEFFFF" stroke-width="8.00" transform="matrix(1.00, 0.00, 0.00, -1.00, 410.8, 420.6)"></path><path d="M 6.0 155.8 C 60.5 101.7 58.5 49.7 0.0 0.0 " fill="none" stroke="#FEFFFF" stroke-width="2.00" transform="matrix(1.00, 0.00, 0.00, -1.00, 471.8, 658.9)"></path><path d="M 6.0 155.8 C 60.5 101.7 58.5 49.7 0.0 0.0 " fill="none" stroke="#FEFFFF" stroke-width="2.00" transform="matrix(1.00, 0.00, 0.00, -1.00, 906.7, 657.5)"></path><g><clipPath id="clip-90"><path d="M 954.1 769.3 C 978.7 744.8 978.7 705.0 954.1 680.5 C 929.6 655.9 889.8 655.9 865.3 680.5 C 840.8 705.0 840.8 744.8 865.3 769.3 C 889.8 793.8 929.6 793.8 954.1 769.3 Z M 954.1 769.3 "></path></clipPath><g clip-path="url(#clip-90)"><path d="M 840.8 655.9 L 978.7 655.9 L 978.7 793.8 L 840.8 793.8 Z M 840.8 655.9 " fill="url(#9D215220-6689-4054-8710-E3C4BCBF9903)"></path></g></g><path d="M 107.2 18.4 C 131.8 42.9 131.8 82.7 107.2 107.2 C 82.7 131.8 42.9 131.8 18.4 107.2 C -6.1 82.7 -6.1 42.9 18.4 18.4 C 42.9 -6.1 82.7 -6.1 107.2 18.4 Z M 107.2 18.4 " fill="none" stroke="#FEFFFF" stroke-width="10.00" transform="matrix(1.00, 0.00, 0.00, -1.00, 846.9, 787.7)"></path><g><clipPath id="clip-91"><path d="M 1303.4 769.3 C 1327.9 744.8 1327.9 705.0 1303.4 680.5 C 1278.9 655.9 1239.1 655.9 1214.6 680.5 C 1190.0 705.0 1190.0 744.8 1214.6 769.3 C 1239.1 793.8 1278.9 793.8 1303.4 769.3 Z M 1303.4 769.3 "></path></clipPath><g clip-path="url(#clip-91)"><path d="M 1190.0 655.9 L 1327.9 655.9 L 1327.9 793.8 L 1190.0 793.8 Z M 1190.0 655.9 " fill="url(#6A227E1C-B185-460B-BB4C-1895A02C5670)"></path></g></g><path d="M 107.2 18.4 C 131.8 42.9 131.8 82.7 107.2 107.2 C 82.7 131.8 42.9 131.8 18.4 107.2 C -6.1 82.7 -6.1 42.9 18.4 18.4 C 42.9 -6.1 82.7 -6.1 107.2 18.4 Z M 107.2 18.4 " fill="none" stroke="#FEFFFF" stroke-width="10.00" transform="matrix(1.00, 0.00, 0.00, -1.00, 1196.2, 787.7)"></path><text xml:space="preserve" font-family="MuseoSans-900" font-weight="bold" font-size="32.0" fill="#919191" transform="matrix(1.00, 0.00, -0.00, -1.00, 1699.0, 460.0)">t</text><text xml:space="preserve" font-family="MuseoSans-900" font-weight="bold" font-size="32.0" fill="#919191" transform="matrix(1.00, 0.00, -0.00, -1.00, 1712.3, 460.0)">h</text><text xml:space="preserve" font-family="MuseoSans-900" font-weight="bold" font-size="32.0" fill="#919191" transform="matrix(1.00, 0.00, -0.00, -1.00, 1732.6, 460.0)">e</text><text xml:space="preserve" font-family="MuseoSans-900" font-weight="bold" font-size="32.0" fill="#919191" transform="matrix(1.00, 0.00, -0.00, -1.00, 1750.6, 460.0)"> </text><text xml:space="preserve" font-family="MuseoSans-900" font-weight="bold" font-size="32.0" fill="#919191" transform="matrix(1.00, 0.00, -0.00, -1.00, 1758.0, 460.0)">f</text><text xml:space="preserve" font-family="MuseoSans-900" font-weight="bold" font-size="32.0" fill="#919191" transform="matrix(1.00, 0.00, -0.00, -1.00, 1770.3, 460.0)">u</text><text xml:space="preserve" font-family="MuseoSans-900" font-weight="bold" font-size="32.0" fill="#919191" transform="matrix(1.00, 0.00, -0.00, -1.00, 1790.5, 460.0)">t</text><text xml:space="preserve" font-family="MuseoSans-900" font-weight="bold" font-size="32.0" fill="#919191" transform="matrix(1.00, 0.00, -0.00, -1.00, 1803.7, 460.0)">u</text><text xml:space="preserve" font-family="MuseoSans-900" font-weight="bold" font-size="32.0" fill="#919191" transform="matrix(1.00, 0.00, -0.00, -1.00, 1823.9, 460.0)">r</text><text xml:space="preserve" font-family="MuseoSans-900" font-weight="bold" font-size="32.0" fill="#919191" transform="matrix(1.00, 0.00, -0.00, -1.00, 1837.7, 460.0)">e</text><text xml:space="preserve" font-family="MuseoSans-100" font-size="20.0" fill="#919191" transform="matrix(1.00, 0.00, -0.00, -1.00, 972.0, 525.0)">2</text><text xml:space="preserve" font-family="MuseoSans-100" font-size="20.0" fill="#919191" transform="matrix(1.00, 0.00, -0.00, -1.00, 983.1, 525.0)">0</text><text xml:space="preserve" font-family="MuseoSans-100" font-size="20.0" fill="#919191" transform="matrix(1.00, 0.00, -0.00, -1.00, 995.6, 525.0)">0</text><text xml:space="preserve" font-family="MuseoSans-100" font-size="20.0" fill="#919191" transform="matrix(1.00, 0.00, -0.00, -1.00, 1008.0, 525.0)">7</text><text xml:space="preserve" font-family="MuseoSans-100" font-size="20.0" fill="#919191" transform="matrix(1.00, 0.00, -0.00, -1.00, 1320.0, 525.0)">2</text><text xml:space="preserve" font-family="MuseoSans-100" font-size="20.0" fill="#919191" transform="matrix(1.00, 0.00, -0.00, -1.00, 1331.1, 525.0)">0</text><text xml:space="preserve" font-family="MuseoSans-100" font-size="20.0" fill="#919191" transform="matrix(1.00, 0.00, -0.00, -1.00, 1343.6, 525.0)">1</text><text xml:space="preserve" font-family="MuseoSans-100" font-size="20.0" fill="#919191" transform="matrix(1.00, 0.00, -0.00, -1.00, 1352.4, 525.0)">2</text><text xml:space="preserve" font-family="MuseoSans-100" font-size="20.0" fill="#919191" transform="matrix(1.00, 0.00, -0.00, -1.00, 1406.0, 525.0)">2</text><text xml:space="preserve" font-family="MuseoSans-100" font-size="20.0" fill="#919191" transform="matrix(1.00, 0.00, -0.00, -1.00, 1417.1, 525.0)">0</text><text xml:space="preserve" font-family="MuseoSans-100" font-size="20.0" fill="#919191" transform="matrix(1.00, 0.00, -0.00, -1.00, 1429.6, 525.0)">1</text><text xml:space="preserve" font-family="MuseoSans-100" font-size="20.0" fill="#919191" transform="matrix(1.00, 0.00, -0.00, -1.00, 1438.4, 525.0)">3</text><text xml:space="preserve" font-family="MuseoSans-100" font-size="20.0" fill="#919191" transform="matrix(1.00, 0.00, -0.00, -1.00, 1146.0, 525.0)">2</text><text xml:space="preserve" font-family="MuseoSans-100" font-size="20.0" fill="#919191" transform="matrix(1.00, 0.00, -0.00, -1.00, 1157.1, 525.0)">0</text><text xml:space="preserve" font-family="MuseoSans-100" font-size="20.0" fill="#919191" transform="matrix(1.00, 0.00, -0.00, -1.00, 1169.6, 525.0)">1</text><text xml:space="preserve" font-family="MuseoSans-100" font-size="20.0" fill="#919191" transform="matrix(1.00, 0.00, -0.00, -1.00, 1178.4, 525.0)">0</text><g><clipPath id="clip-92"><path d="M 389.0 651.1 L 532.7 651.1 L 532.7 794.7 L 389.0 794.7 Z M 389.0 651.1 "></path></clipPath><g clip-path="url(#clip-92)"><image xlink:href="../../D8898D71-BD24-4EF7-8DFE-CD7FF25ACBC0/assets/A976DCE697CEDF1FC26A7142CCC27F08.png" width="142.00" height="142.00" transform="matrix(1.00, 0.00, -0.00, -1.00, 390.0, 793.7)" opacity="0.50"></image></g></g><g><clipPath id="clip-93"><path d="M 505.3 769.3 C 529.8 744.8 529.8 705.0 505.3 680.5 C 480.7 655.9 441.0 655.9 416.4 680.5 C 391.9 705.0 391.9 744.8 416.4 769.3 C 441.0 793.8 480.7 793.8 505.3 769.3 Z M 505.3 769.3 "></path></clipPath><g clip-path="url(#clip-93)"><g><clipPath id="clip-94"><path d="M 389.0 651.1 L 532.7 651.1 L 532.7 794.7 L 389.0 794.7 Z M 389.0 651.1 "></path></clipPath><g clip-path="url(#clip-94)"><path d="M 391.9 655.9 L 529.8 655.9 L 529.8 793.8 L 391.9 793.8 Z M 391.9 655.9 " fill="url(#B6C1FF1A-D1D6-4EFD-9F8F-26814D6014EE)"></path></g></g></g></g><g><clipPath id="clip-95"><path d="M 389.0 651.1 L 532.7 651.1 L 532.7 794.7 L 389.0 794.7 Z M 389.0 651.1 "></path></clipPath><g clip-path="url(#clip-95)"><path d="M 107.2 18.4 C 131.8 42.9 131.8 82.7 107.2 107.2 C 82.7 131.8 42.9 131.8 18.4 107.2 C -6.1 82.7 -6.1 42.9 18.4 18.4 C 42.9 -6.1 82.7 -6.1 107.2 18.4 Z M 107.2 18.4 " fill="none" stroke="#FEFFFF" stroke-width="10.00" transform="matrix(1.00, 0.00, 0.00, -1.00, 398.0, 787.7)"></path></g></g><g><clipPath id="clip-96"><path d="M 400.1 785.6 L 521.6 785.6 L 521.6 664.0 L 400.1 664.0 Z M 400.1 785.6 "></path></clipPath><g clip-path="url(#clip-96)"><g><clipPath id="clip-97"><path d="M 400.1 664.2 L 521.6 664.2 L 521.6 785.6 L 400.1 785.6 Z M 400.1 664.2 "></path></clipPath><g clip-path="url(#clip-97)"><path d="M 403.3 723.9 C 403.3 755.2 428.6 780.6 460.0 780.6 C 491.3 780.6 516.6 755.2 516.6 723.9 C 516.6 692.6 491.3 667.2 460.0 667.2 C 428.6 667.2 403.3 692.6 403.3 723.9 " fill="#000000"></path><path d="M 460.8 666.9 C 428.8 666.9 402.9 692.8 402.9 724.8 C 402.9 756.8 428.8 782.7 460.8 782.7 C 492.8 782.7 518.7 756.8 518.7 724.8 C 518.7 692.8 492.8 666.9 460.8 666.9 Z M 460.8 785.6 C 427.3 785.6 400.0 758.3 400.0 724.8 C 400.0 691.3 427.3 664.0 460.8 664.0 C 494.3 664.0 521.6 691.3 521.6 724.8 C 521.6 758.3 494.3 785.6 460.8 785.6 " fill="#FFFFFF"></path></g></g></g></g><g><clipPath id="clip-98"><path d="M 400.1 664.2 L 521.6 664.2 L 521.6 785.6 L 400.1 785.6 Z M 400.1 664.2 "></path></clipPath><g clip-path="url(#clip-98)"><path d="M 496.6 713.3 C 496.5 710.6 496.1 708.1 495.4 706.1 C 494.5 703.8 493.0 701.1 492.0 699.6 C 492.2 699.5 494.0 697.5 494.0 697.5 C 494.0 697.5 493.8 696.8 493.8 696.7 C 493.1 691.0 487.7 678.3 475.3 673.8 C 471.7 672.5 468.3 672.4 468.2 672.4 L 468.2 672.4 C 459.6 671.9 449.4 677.2 442.7 682.3 C 436.2 687.2 433.1 690.3 433.0 690.4 C 432.5 690.8 432.3 691.5 432.3 692.2 C 432.3 693.6 431.7 699.7 431.4 701.1 C 430.7 704.1 426.7 705.5 426.7 705.4 C 425.8 706.9 423.3 709.5 421.5 713.1 C 420.1 716.3 417.3 724.3 421.5 728.7 C 421.4 730.1 420.4 736.4 420.8 741.0 C 421.7 752.7 429.0 760.2 435.1 764.3 C 441.3 768.5 452.6 771.7 460.3 772.5 C 469.9 773.4 475.0 770.3 478.8 768.5 C 487.5 764.3 490.2 755.0 490.7 754.9 C 493.8 753.8 495.1 749.3 495.1 749.3 C 495.1 749.3 496.2 744.8 496.2 743.1 C 496.1 742.5 496.5 741.6 496.2 741.1 C 499.5 735.6 495.8 729.5 494.6 727.9 C 494.7 727.7 496.9 719.4 496.6 713.3 Z M 460.8 782.7 C 428.8 782.7 402.9 756.8 402.9 724.8 C 402.9 692.8 428.8 666.9 460.8 666.9 C 492.8 666.9 518.7 692.8 518.7 724.8 C 518.7 756.8 492.8 782.7 460.8 782.7 Z M 468.9 674.7 C 465.0 674.8 461.9 678.2 462.1 682.2 C 462.2 686.1 465.6 689.2 469.6 689.0 C 473.5 688.9 476.6 685.5 476.4 681.5 C 476.3 677.6 472.9 674.5 468.9 674.7 Z M 491.8 742.3 C 491.8 742.3 490.5 743.0 483.9 741.3 C 485.0 739.7 486.8 736.8 487.6 734.4 C 488.5 731.8 489.3 727.3 489.8 725.5 L 490.2 724.3 C 490.7 722.5 491.7 718.5 491.5 714.0 C 491.4 710.6 490.5 707.0 488.4 703.8 C 486.4 700.9 483.4 698.5 480.0 697.1 C 477.7 696.2 475.1 695.5 472.6 695.2 C 469.4 694.8 466.5 694.7 463.7 695.0 C 460.1 695.4 456.5 696.4 452.5 698.2 C 441.0 703.5 434.5 717.6 433.6 718.9 L 433.2 719.5 C 432.9 719.5 432.6 722.1 432.5 723.1 C 432.4 723.3 432.4 723.6 432.7 723.8 C 433.1 724.3 433.8 725.0 434.8 725.9 C 437.4 728.2 441.2 731.3 441.2 731.3 C 445.7 734.5 453.4 741.5 465.4 745.1 C 475.6 748.2 481.4 748.7 489.1 748.5 C 489.7 748.5 490.6 748.4 491.7 748.1 C 492.3 747.9 492.9 747.7 493.5 747.4 C 493.7 747.2 493.8 747.1 494.0 747.0 C 493.8 747.7 493.5 748.4 493.8 747.8 C 493.2 749.3 492.2 752.9 490.4 753.5 C 488.6 754.1 488.9 757.2 486.6 759.9 C 486.0 760.6 485.5 761.7 482.2 764.5 C 479.5 766.8 477.2 767.4 478.4 766.4 C 480.3 764.9 480.2 764.1 480.4 763.8 C 480.1 764.2 477.5 766.6 475.7 767.8 C 474.1 768.8 470.5 770.3 466.5 770.6 C 461.9 770.8 465.7 768.0 466.1 767.7 C 467.2 766.8 467.7 765.5 467.0 765.9 C 466.9 766.0 466.7 766.2 466.4 766.4 C 465.5 767.0 464.4 768.0 461.7 769.2 C 459.1 770.4 457.4 770.4 455.5 770.0 C 451.5 769.2 452.0 769.0 453.3 768.4 C 455.4 767.4 455.0 767.7 456.8 766.9 C 459.9 765.5 460.5 763.5 459.9 763.8 C 457.5 765.1 456.4 765.6 454.1 766.2 C 452.2 766.8 451.3 767.0 449.8 767.0 C 446.9 766.8 443.8 765.9 440.7 764.2 C 437.2 762.3 436.1 761.3 436.4 760.0 C 436.6 759.4 440.2 757.6 440.8 757.3 C 441.8 756.8 443.6 754.7 442.6 755.3 C 440.2 756.4 435.2 759.3 430.7 756.9 C 428.2 755.6 428.2 753.5 428.5 752.6 C 428.9 751.6 427.0 752.1 424.9 749.3 C 422.8 746.5 422.5 742.2 422.9 737.7 C 423.3 734.1 424.5 730.2 424.6 729.1 C 424.7 728.0 424.8 726.7 423.2 725.5 C 422.4 724.9 422.3 724.1 422.3 722.8 C 422.6 723.5 422.9 724.1 423.4 724.3 C 424.8 724.9 428.7 720.1 429.7 717.8 C 430.7 715.6 432.7 708.2 430.5 707.0 C 430.1 706.7 429.8 706.6 429.4 706.6 C 430.2 706.2 430.4 706.2 431.2 706.3 C 432.1 706.4 433.1 706.5 433.4 706.6 C 434.4 707.5 434.1 710.4 434.1 710.4 C 434.1 710.4 437.3 706.0 442.6 701.7 C 447.9 697.3 457.6 691.0 472.0 692.7 C 482.3 693.9 488.9 700.1 488.9 700.1 C 486.6 697.1 479.7 690.4 467.1 689.6 C 457.1 688.9 450.0 692.3 445.2 695.6 C 444.1 695.0 442.0 693.9 441.8 691.4 C 441.5 684.3 455.2 677.1 455.5 676.4 C 459.4 674.6 464.8 673.6 468.7 674.0 C 485.0 675.7 491.6 691.7 492.2 697.1 L 489.7 699.2 C 489.7 699.2 492.2 702.1 493.6 706.0 C 496.1 712.9 494.8 721.1 493.5 725.6 C 493.5 725.6 492.8 727.8 492.5 728.7 C 493.5 730.1 494.8 732.3 495.1 734.9 C 495.4 737.9 493.8 741.0 492.7 742.0 C 492.5 742.2 492.2 742.3 491.8 742.3 Z M 483.1 735.0 C 482.6 735.4 476.7 735.5 471.8 734.4 C 460.4 731.9 455.2 728.4 452.5 725.9 L 452.5 725.9 C 457.9 727.6 466.5 730.3 470.5 731.3 C 474.9 732.4 480.6 733.1 483.5 733.4 C 483.7 733.4 483.7 733.5 483.7 733.8 C 483.5 734.4 483.3 734.9 483.1 735.0 Z M 470.0 685.3 C 467.1 685.4 464.6 683.3 464.5 680.5 C 464.4 677.8 466.7 675.5 469.5 675.3 C 472.4 675.2 474.9 677.3 475.0 680.1 C 475.1 682.8 472.9 685.2 470.0 685.3 Z M 425.0 713.7 C 424.0 715.4 424.4 716.4 424.4 716.4 C 424.4 716.4 423.3 715.2 424.3 713.3 C 425.3 711.4 426.7 712.2 426.7 712.2 C 426.7 712.2 425.9 712.3 425.0 713.7 Z M 489.7 746.2 C 489.7 746.2 489.1 746.2 489.1 745.4 C 489.1 744.9 489.3 744.3 489.9 744.4 C 487.5 743.6 488.1 747.3 489.7 746.2 Z M 479.8 745.1 C 479.8 745.1 479.2 745.0 479.3 744.2 C 479.3 743.7 479.6 743.2 480.2 743.3 C 478.0 742.2 478.0 746.0 479.8 745.1 Z M 468.3 742.3 C 468.3 742.3 467.7 742.2 467.8 741.4 C 467.9 740.9 468.2 740.4 468.8 740.6 C 466.6 739.4 466.5 743.2 468.3 742.3 Z M 456.1 737.6 C 456.1 737.6 455.6 737.4 455.9 736.6 C 456.0 736.2 456.4 735.8 457.0 736.0 C 455.1 734.5 454.3 738.1 456.1 737.6 Z M 446.1 731.4 C 446.1 731.4 445.7 731.1 446.0 730.5 C 446.2 730.2 446.6 729.8 447.0 730.1 C 445.6 728.5 444.4 731.6 446.1 731.4 Z M 489.6 747.3 C 479.2 747.5 473.0 746.3 465.4 743.7 C 454.9 740.5 445.8 733.4 440.9 729.9 C 440.9 729.9 437.8 727.5 435.1 725.2 C 434.5 724.7 433.9 724.1 433.4 723.6 C 433.3 723.5 433.1 723.4 433.1 722.9 C 433.2 722.4 433.3 721.6 433.4 721.1 C 433.4 720.8 433.7 720.5 434.1 720.9 C 434.8 721.3 435.6 721.8 436.4 722.4 C 438.7 723.9 441.2 725.5 441.2 725.5 C 448.9 730.3 454.8 734.2 467.2 738.5 C 475.6 741.5 481.8 742.5 488.9 743.4 C 492.2 743.7 493.6 743.1 494.1 742.9 C 494.2 743.0 494.2 743.1 494.3 743.2 C 494.2 744.2 494.1 745.8 494.0 745.9 L 494.0 746.0 C 493.9 746.2 493.5 746.4 493.0 746.6 C 492.2 746.9 491.1 747.2 489.6 747.3 Z M 487.5 704.4 C 490.8 709.2 490.7 715.3 490.1 719.6 C 489.7 717.1 488.7 716.0 486.8 713.7 C 484.5 710.9 484.5 706.7 483.9 704.6 C 483.4 703.0 482.6 700.6 482.2 699.5 C 484.3 700.8 486.2 702.5 487.5 704.4 " fill="#F7200D"></path><path d="M 483.1 735.0 C 482.6 735.4 476.7 735.5 471.8 734.4 C 460.4 731.9 455.2 728.4 452.5 725.9 L 452.5 725.9 C 457.9 727.6 466.5 730.3 470.5 731.3 C 474.9 732.4 480.6 733.1 483.5 733.4 C 483.7 733.4 483.7 733.5 483.7 733.8 C 483.5 734.4 483.3 734.9 483.1 735.0 Z M 470.0 685.3 C 467.1 685.4 464.6 683.3 464.5 680.5 C 464.4 677.8 466.7 675.5 469.5 675.3 C 472.4 675.2 474.9 677.3 475.0 680.1 C 475.1 682.8 472.9 685.2 470.0 685.3 Z M 489.7 746.2 C 489.7 746.2 489.1 746.2 489.1 745.4 C 489.1 744.9 489.3 744.3 489.9 744.4 C 487.5 743.6 488.1 747.3 489.7 746.2 Z M 479.8 745.1 C 479.8 745.1 479.2 745.0 479.3 744.2 C 479.3 743.7 479.6 743.2 480.2 743.3 C 478.0 742.2 478.0 746.0 479.8 745.1 Z M 468.3 742.3 C 468.3 742.3 467.7 742.2 467.8 741.4 C 467.9 740.9 468.2 740.4 468.8 740.6 C 466.6 739.4 466.5 743.2 468.3 742.3 Z M 456.1 737.6 C 456.1 737.6 455.6 737.4 455.9 736.6 C 456.0 736.2 456.4 735.8 457.0 736.0 C 455.1 734.5 454.3 738.1 456.1 737.6 Z M 446.1 731.4 C 446.1 731.4 445.7 731.1 446.0 730.5 C 446.2 730.2 446.6 729.8 447.0 730.1 C 445.6 728.5 444.4 731.6 446.1 731.4 Z M 489.6 747.3 C 479.2 747.5 473.0 746.3 465.4 743.7 C 454.9 740.5 445.8 733.4 440.9 729.9 C 440.9 729.9 437.8 727.5 435.1 725.2 C 434.5 724.7 433.9 724.1 433.4 723.6 C 433.3 723.5 433.1 723.4 433.1 722.9 C 433.2 722.4 433.3 721.6 433.4 721.1 C 433.4 720.8 433.7 720.5 434.1 720.9 C 434.8 721.3 435.6 721.8 436.4 722.4 C 438.7 723.9 441.2 725.5 441.2 725.5 C 448.9 730.3 454.8 734.2 467.2 738.5 C 475.6 741.5 481.8 742.5 488.9 743.4 C 492.2 743.7 493.6 743.1 494.1 742.9 C 494.2 743.0 494.2 743.1 494.3 743.2 C 494.2 744.2 494.1 745.8 494.0 745.9 L 494.0 746.0 C 493.9 746.2 493.5 746.4 493.0 746.6 C 492.2 746.9 491.1 747.2 489.6 747.3 Z M 468.9 674.7 C 465.0 674.8 461.9 678.2 462.1 682.2 C 462.2 686.1 465.6 689.2 469.6 689.0 C 473.5 688.9 476.6 685.5 476.4 681.5 C 476.3 677.6 472.9 674.5 468.9 674.7 Z M 492.7 742.0 C 492.5 742.2 492.2 742.3 491.8 742.3 C 491.8 742.3 490.5 743.0 483.9 741.3 C 485.0 739.7 486.8 736.8 487.6 734.4 C 488.5 731.8 489.3 727.3 489.8 725.5 L 490.2 724.3 C 490.7 722.5 491.7 718.5 491.5 714.0 C 491.4 710.6 490.5 707.0 488.4 703.8 C 486.4 700.9 483.4 698.5 480.0 697.1 C 477.7 696.2 475.1 695.5 472.6 695.2 C 469.4 694.8 466.5 694.7 463.7 695.0 C 460.1 695.4 456.5 696.4 452.5 698.2 C 441.0 703.5 434.5 717.6 433.6 718.9 L 433.2 719.5 C 432.9 719.5 432.6 722.1 432.5 723.1 C 432.4 723.3 432.4 723.6 432.7 723.8 C 433.1 724.3 433.8 725.0 434.8 725.9 C 437.4 728.2 441.2 731.3 441.2 731.3 C 445.7 734.5 453.4 741.5 465.4 745.1 C 475.6 748.2 481.4 748.7 489.1 748.5 C 489.7 748.5 490.6 748.4 491.7 748.1 C 492.3 747.9 492.9 747.7 493.5 747.4 C 493.7 747.2 493.8 747.1 494.0 747.0 C 493.8 747.7 493.5 748.4 493.8 747.8 C 493.2 749.3 492.2 752.9 490.4 753.5 C 488.6 754.1 488.9 757.2 486.6 759.9 C 486.0 760.6 485.5 761.7 482.2 764.5 C 479.5 766.8 477.2 767.4 478.4 766.4 C 480.3 764.9 480.2 764.1 480.4 763.8 C 480.1 764.2 477.5 766.6 475.7 767.8 C 474.1 768.8 470.5 770.3 466.5 770.6 C 461.9 770.8 465.7 768.0 466.1 767.7 C 467.2 766.8 467.7 765.5 467.0 765.9 C 466.9 766.0 466.7 766.2 466.4 766.4 C 465.5 767.0 464.4 768.0 461.7 769.2 C 459.1 770.4 457.4 770.4 455.5 770.0 C 451.5 769.2 452.0 769.0 453.3 768.4 C 455.4 767.4 455.0 767.7 456.8 766.9 C 459.9 765.5 460.5 763.5 459.9 763.8 C 457.5 765.1 456.4 765.6 454.1 766.2 C 452.2 766.8 451.3 767.0 449.8 767.0 C 446.9 766.8 443.8 765.9 440.7 764.2 C 437.2 762.3 436.1 761.3 436.4 760.0 C 436.6 759.4 440.2 757.6 440.8 757.3 C 441.8 756.8 443.6 754.7 442.6 755.3 C 440.2 756.4 435.2 759.3 430.7 756.9 C 428.2 755.6 428.2 753.5 428.5 752.6 C 428.9 751.6 427.0 752.1 424.9 749.3 C 422.8 746.5 422.5 742.2 422.9 737.7 C 423.3 734.1 424.5 730.2 424.6 729.1 C 424.7 728.0 424.8 726.7 423.2 725.5 C 422.4 724.9 422.3 724.1 422.3 722.8 C 422.6 723.5 422.9 724.1 423.4 724.3 C 424.8 724.9 428.7 720.1 429.7 717.8 C 430.7 715.6 432.7 708.2 430.5 707.0 C 430.1 706.7 429.8 706.6 429.4 706.6 C 430.2 706.2 430.4 706.2 431.2 706.3 C 432.1 706.4 433.1 706.5 433.4 706.6 C 434.4 707.5 434.1 710.4 434.1 710.4 C 434.1 710.4 437.3 706.0 442.6 701.7 C 447.9 697.3 457.6 691.0 472.0 692.7 C 482.3 693.9 488.9 700.1 488.9 700.1 C 486.6 697.1 479.7 690.4 467.1 689.6 C 457.1 688.9 450.0 692.3 445.2 695.6 C 444.1 695.0 442.0 693.9 441.8 691.4 C 441.5 684.3 455.2 677.1 455.5 676.4 C 459.4 674.6 464.8 673.6 468.7 674.0 C 485.0 675.7 491.6 691.7 492.2 697.1 L 489.7 699.2 C 489.7 699.2 492.2 702.1 493.6 706.0 C 496.1 712.9 494.8 721.1 493.5 725.6 C 493.5 725.6 492.8 727.8 492.5 728.7 C 493.5 730.1 494.8 732.3 495.1 734.9 C 495.4 737.9 493.8 741.0 492.7 742.0 Z M 487.5 704.4 C 490.8 709.2 490.7 715.3 490.1 719.6 C 489.7 717.1 488.7 716.0 486.8 713.7 C 484.5 710.9 484.5 706.7 483.9 704.6 C 483.4 703.0 482.6 700.6 482.2 699.5 C 484.3 700.8 486.2 702.5 487.5 704.4 Z M 425.0 713.7 C 424.0 715.4 424.4 716.4 424.4 716.4 C 424.4 716.4 423.3 715.2 424.3 713.3 C 425.3 711.4 426.7 712.2 426.7 712.2 C 426.7 712.2 425.9 712.3 425.0 713.7 " fill="#FFFFFF"></path><path d="M 479.5 698.1 C 479.6 698.2 479.7 698.2 479.8 698.3 C 479.6 698.2 479.4 698.1 479.2 698.0 C 479.3 698.0 479.4 698.1 479.5 698.1 " fill="#000000"></path><path d="M 473.7 701.5 C 474.6 702.0 475.5 702.5 476.4 703.0 C 476.5 703.1 476.6 703.1 476.7 703.2 C 476.5 703.1 476.3 702.9 476.1 702.8 C 475.5 702.5 474.8 702.1 474.1 701.7 C 474.0 701.6 473.8 701.6 473.7 701.5 " fill="#FA0F0B"></path><path d="M 484.2 729.0 C 483.6 728.4 483.2 728.0 482.5 728.4 C 481.8 728.8 482.7 729.5 480.7 728.9 C 479.6 728.6 478.9 728.5 477.7 727.8 C 475.7 726.7 474.9 725.9 474.9 725.9 C 474.9 725.9 477.6 727.0 478.5 727.3 C 479.6 727.7 480.9 728.1 481.4 727.8 C 481.8 727.6 482.0 726.1 481.7 725.8 C 481.5 725.4 481.3 726.2 480.3 726.4 C 479.7 726.5 479.0 726.5 478.4 726.4 C 478.7 726.1 478.4 725.6 478.1 724.9 C 477.9 724.1 476.7 724.2 476.1 724.2 C 475.5 724.2 475.1 724.5 475.1 725.0 L 475.3 725.5 L 475.2 725.5 L 473.8 725.2 C 473.8 725.2 473.5 725.3 473.7 725.4 C 474.2 726.1 475.5 727.9 476.7 728.7 C 478.9 730.3 480.5 731.4 481.0 731.4 C 482.1 731.4 484.7 729.5 484.2 729.0 Z M 477.4 705.7 C 476.3 705.6 474.7 704.6 473.2 704.6 C 471.8 704.5 467.5 702.9 465.5 703.9 C 464.6 704.3 467.0 704.1 467.6 704.2 C 468.2 704.3 469.9 704.2 470.7 704.7 C 471.6 705.1 472.6 706.1 472.9 705.8 C 473.3 705.4 473.8 704.8 474.4 705.0 C 475.1 705.2 475.1 706.5 475.6 706.5 C 476.1 706.5 477.4 706.3 478.2 706.5 C 479.1 706.7 480.1 707.4 480.1 707.4 C 480.1 707.4 478.4 705.8 477.4 705.7 Z M 477.3 702.6 C 476.7 702.0 475.9 701.9 475.1 701.7 C 474.2 701.5 473.4 701.0 472.4 700.9 C 471.6 700.8 470.7 700.9 469.9 701.0 L 469.9 701.0 L 470.2 701.5 C 471.5 701.4 472.8 701.3 474.0 701.8 C 474.9 702.3 475.8 702.8 476.6 703.3 C 476.7 703.3 476.8 703.4 476.9 703.4 C 477.4 703.8 477.8 704.1 478.3 704.4 C 478.3 703.8 477.6 703.0 477.3 702.6 Z M 464.7 721.4 C 464.7 721.8 463.8 722.2 463.3 722.2 C 462.9 722.3 462.7 722.3 462.3 722.3 L 461.1 722.0 L 461.0 722.0 C 461.2 721.8 461.2 721.4 461.3 721.1 C 461.4 720.6 461.0 720.2 460.5 720.0 C 459.9 719.9 459.8 719.9 459.2 719.9 C 458.4 719.9 457.8 720.1 457.8 720.1 C 457.8 720.4 457.9 720.7 458.2 720.9 C 457.5 720.8 456.2 720.6 455.5 720.3 C 455.5 720.3 456.7 721.3 457.8 721.6 C 458.9 722.0 461.4 722.7 462.5 723.0 C 462.9 723.1 463.8 723.2 464.0 723.2 C 464.4 723.2 464.9 723.0 464.9 723.0 L 463.7 722.7 C 464.1 722.5 464.5 722.2 464.8 722.0 C 465.5 721.5 465.4 721.3 465.1 720.9 C 464.9 720.6 464.7 720.9 464.7 721.4 Z M 451.6 722.9 C 451.6 722.9 455.8 724.0 457.8 724.9 C 459.9 725.8 463.1 725.6 464.9 725.2 C 466.0 724.9 465.3 724.9 465.2 724.5 C 465.1 723.7 465.2 723.9 464.2 723.8 C 463.3 723.7 463.5 723.9 462.3 723.8 C 461.1 723.6 458.8 723.2 458.1 722.9 C 457.3 722.5 453.8 721.1 453.0 721.1 C 452.3 721.1 451.6 722.9 451.6 722.9 Z M 467.7 713.7 C 467.7 713.7 468.0 712.1 468.7 711.1 C 469.4 710.1 469.8 710.0 469.8 710.0 C 469.8 710.0 468.3 710.4 467.7 710.9 C 467.2 711.4 467.7 713.7 467.7 713.7 Z M 475.7 719.5 C 475.2 719.0 474.8 719.5 474.2 720.7 C 473.8 721.4 473.7 724.0 473.7 724.0 C 473.7 724.0 474.7 722.7 474.8 721.9 C 474.9 721.1 475.8 719.6 475.7 719.5 Z M 476.2 712.2 C 475.6 711.9 475.5 711.3 475.0 711.2 C 474.1 710.9 475.4 712.2 475.9 712.6 C 476.4 713.1 476.4 713.1 476.4 713.1 C 476.4 713.1 476.9 713.8 476.3 715.2 C 475.8 716.7 474.2 717.8 474.9 717.7 C 475.6 717.5 476.1 717.3 476.6 716.5 C 477.2 715.8 477.3 714.9 477.3 714.9 C 477.3 714.9 477.5 713.8 477.4 713.4 C 477.3 712.0 477.0 711.8 476.5 711.5 C 476.0 711.3 477.2 712.8 476.2 712.2 Z M 472.1 712.0 C 472.8 712.0 473.8 711.1 473.7 710.8 C 473.7 710.8 473.1 711.4 472.2 711.2 C 470.9 711.0 470.5 711.4 470.5 711.4 C 471.3 711.8 471.4 712.1 472.1 712.0 Z M 484.6 728.5 C 484.6 729.2 484.4 730.9 484.1 732.3 C 484.1 732.4 484.1 732.6 483.7 732.6 C 480.8 732.4 475.1 731.6 470.7 730.5 C 466.7 729.5 456.9 726.7 451.6 725.0 C 451.2 724.8 450.8 724.5 450.5 724.1 C 448.3 720.6 449.3 720.3 450.1 716.3 C 450.9 712.3 457.2 699.2 458.2 698.1 C 458.4 697.9 459.1 697.5 459.9 697.2 C 464.4 696.2 469.2 696.0 472.7 696.5 C 475.0 696.8 477.4 697.4 479.5 698.3 C 479.7 698.3 479.9 698.4 480.1 698.5 C 480.2 698.6 480.4 698.6 480.5 698.7 C 480.7 699.1 480.7 699.5 480.8 699.7 C 481.1 700.6 483.1 706.0 483.4 707.7 C 483.8 709.3 484.7 714.3 485.0 717.0 C 485.4 719.6 484.5 727.3 484.6 728.5 " fill="#FFFFFF"></path><path d="M 476.2 724.7 C 476.4 724.7 476.6 724.8 476.6 725.0 C 476.6 725.2 476.4 725.3 476.3 725.3 C 476.1 725.3 476.0 725.2 476.0 725.0 C 476.0 724.9 476.1 724.7 476.2 724.7 " fill="#FFFFFF"></path><path d="M 459.8 720.8 C 459.7 720.6 459.7 720.4 459.8 720.3 C 459.9 720.2 460.1 720.3 460.2 720.5 C 460.3 720.7 460.3 720.9 460.2 720.9 C 460.1 721.0 460.0 720.9 459.8 720.8 " fill="#FFFFFF"></path><path d="M 480.3 698.4 L 480.3 698.4 C 480.1 698.4 480.0 698.3 479.8 698.3 C 480.0 698.3 480.1 698.4 480.3 698.4 " fill="#000000"></path></g></g><g><clipPath id="clip-99"><path d="M 1197.5 415.0 C 1212.1 400.4 1212.1 376.6 1197.5 362.0 C 1182.9 347.3 1159.1 347.3 1144.5 362.0 C 1129.8 376.6 1129.8 400.4 1144.5 415.0 C 1159.1 429.7 1182.9 429.7 1197.5 415.0 Z M 1197.5 415.0 "></path></clipPath><g clip-path="url(#clip-99)"><image xlink:href="../../D8898D71-BD24-4EF7-8DFE-CD7FF25ACBC0/assets/9BF4A6574DD83C0B905E61F4E5BC8EAE.jpeg" width="148.00" height="107.00" transform="matrix(1.00, 0.00, -0.00, -1.01, 1133.5, 426.0)"></image></g></g><path d="M 64.0 11.0 C 78.7 25.6 78.7 49.4 64.0 64.0 C 49.4 78.7 25.6 78.7 11.0 64.0 C -3.7 49.4 -3.7 25.6 11.0 11.0 C 25.6 -3.7 49.4 -3.7 64.0 11.0 Z M 64.0 11.0 " fill="none" stroke="#FEFFFF" stroke-width="8.00" transform="matrix(1.00, 0.00, 0.00, -1.00, 1133.5, 426.0)"></path><path d="M 6.0 155.8 C 60.5 101.7 58.5 49.7 0.0 0.0 " fill="none" stroke="#FEFFFF" stroke-width="2.00" transform="matrix(1.00, 0.00, 0.00, -1.00, 1682.0, 658.9)"></path><g><clipPath id="clip-100"><path d="M 1732.8 764.3 C 1757.3 739.8 1757.3 700.0 1732.8 675.5 C 1708.2 650.9 1668.5 650.9 1643.9 675.5 C 1619.4 700.0 1619.4 739.8 1643.9 764.3 C 1668.5 788.8 1708.2 788.8 1732.8 764.3 Z M 1732.8 764.3 "></path></clipPath><g clip-path="url(#clip-100)"><g><clipPath id="clip-101"><path d="M 1619.5 651.1 L 1757.2 651.1 L 1757.2 788.7 L 1619.5 788.7 Z M 1619.5 651.1 "></path></clipPath><g clip-path="url(#clip-101)"><image xlink:href="../../D8898D71-BD24-4EF7-8DFE-CD7FF25ACBC0/assets/D2941D8E2B2A0D16EE53CCA1771677F4.jpeg" width="145.00" height="145.00" transform="matrix(1.00, 0.00, -0.00, -1.00, 1625.5, 782.7)"></image></g></g></g></g><g><clipPath id="clip-102"><path d="M 1619.5 651.1 L 1757.2 651.1 L 1757.2 788.7 L 1619.5 788.7 Z M 1619.5 651.1 "></path></clipPath><g clip-path="url(#clip-102)"><path d="M 107.2 18.4 C 131.8 42.9 131.8 82.7 107.2 107.2 C 82.7 131.8 42.9 131.8 18.4 107.2 C -6.1 82.7 -6.1 42.9 18.4 18.4 C 42.9 -6.1 82.7 -6.1 107.2 18.4 Z M 107.2 18.4 " fill="none" stroke="#FEFFFF" stroke-width="10.00" transform="matrix(1.00, 0.00, 0.00, -1.00, 1625.5, 782.7)"></path></g></g><g><clipPath id="clip-103"><path d="M 1628.6 660.2 L 1748.0 660.2 L 1748.0 779.6 L 1628.6 779.6 Z M 1628.6 660.2 "></path></clipPath><g clip-path="url(#clip-103)"><image xlink:href="../../D8898D71-BD24-4EF7-8DFE-CD7FF25ACBC0/assets/F19C3CD95C0F783AAE61B665146A0D03.png" width="120.00" height="120.00" transform="matrix(0.99, 0.00, -0.00, -1.00, 1629.0, 780.0)"></image></g></g><text xml:space="preserve" font-family="MuseoSans-100" font-size="20.0" fill="#919191" transform="matrix(1.00, 0.00, -0.00, -1.00, 1579.0, 525.0)">2</text><text xml:space="preserve" font-family="MuseoSans-100" font-size="20.0" fill="#919191" transform="matrix(1.00, 0.00, -0.00, -1.00, 1590.1, 525.0)">0</text><text xml:space="preserve" font-family="MuseoSans-100" font-size="20.0" fill="#919191" transform="matrix(1.00, 0.00, -0.00, -1.00, 1602.6, 525.0)">1</text><text xml:space="preserve" font-family="MuseoSans-100" font-size="20.0" fill="#919191" transform="matrix(1.00, 0.00, -0.00, -1.00, 1611.4, 525.0)">5</text><text xml:space="preserve" font-family="MuseoSans-100" font-size="20.0" fill="#919191" transform="matrix(1.00, 0.00, -0.00, -1.00, 626.0, 525.0)">2</text><text xml:space="preserve" font-family="MuseoSans-100" font-size="20.0" fill="#919191" transform="matrix(1.00, 0.00, -0.00, -1.00, 637.1, 525.0)">0</text><text xml:space="preserve" font-family="MuseoSans-100" font-size="20.0" fill="#919191" transform="matrix(1.00, 0.00, -0.00, -1.00, 649.6, 525.0)">0</text><text xml:space="preserve" font-family="MuseoSans-100" font-size="20.0" fill="#919191" transform="matrix(1.00, 0.00, -0.00, -1.00, 662.0, 525.0)">3</text><path d="M 6.0 155.8 C 60.5 101.7 58.5 49.7 0.0 0.0 " fill="none" stroke="#FEFFFF" stroke-width="2.00" transform="matrix(1.00, 0.00, 0.00, -1.00, 1252.3, 657.5)"></path><path d="M 39.4 155.8 C -15.1 101.7 -13.1 49.7 45.5 0.0 " fill="none" stroke="#FEFFFF" stroke-width="2.00" transform="matrix(1.00, 0.00, 0.00, -1.00, 954.3, 503.0)"></path><g><clipPath id="clip-104"><path d="M 1023.2 415.0 C 1037.8 400.4 1037.8 376.6 1023.2 362.0 C 1008.5 347.3 984.8 347.3 970.1 362.0 C 955.5 376.6 955.5 400.4 970.1 415.0 C 984.8 429.7 1008.5 429.7 1023.2 415.0 Z M 1023.2 415.0 "></path></clipPath><g clip-path="url(#clip-104)"><image xlink:href="../../D8898D71-BD24-4EF7-8DFE-CD7FF25ACBC0/assets/CE8B66E373C4ADE05ADF78F7628EC549.jpeg" width="105.00" height="163.00" transform="matrix(1.01, 0.00, -0.00, -1.00, 959.2, 426.0)"></image></g></g><path d="M 64.0 11.0 C 78.7 25.6 78.7 49.4 64.0 64.0 C 49.4 78.7 25.6 78.7 11.0 64.0 C -3.7 49.4 -3.7 25.6 11.0 11.0 C 25.6 -3.7 49.4 -3.7 64.0 11.0 Z M 64.0 11.0 " fill="none" stroke="#FEFFFF" stroke-width="8.00" transform="matrix(1.00, 0.00, 0.00, -1.00, 959.2, 426.0)"></path><path d="M 39.4 155.8 C -15.1 101.7 -13.1 49.7 45.5 0.0 " fill="none" stroke="#FEFFFF" stroke-width="2.00" transform="matrix(1.00, 0.00, 0.00, -1.00, 609.9, 503.0)"></path><image xlink:href="../../D8898D71-BD24-4EF7-8DFE-CD7FF25ACBC0/assets/36BE20CD8D9F65DA45F486A29ADA303E.png" width="89.00" height="89.00" transform="matrix(1.00, 0.00, -0.00, -1.00, 603.8, 425.2)" opacity="0.50"></image><g><clipPath id="clip-105"><path d="M 674.9 409.2 C 689.5 394.6 689.5 370.8 674.9 356.2 C 660.2 341.5 636.5 341.5 621.8 356.2 C 607.2 370.8 607.2 394.6 621.8 409.2 C 636.5 423.8 660.2 423.8 674.9 409.2 Z M 674.9 409.2 "></path></clipPath><g clip-path="url(#clip-105)"><image xlink:href="../../D8898D71-BD24-4EF7-8DFE-CD7FF25ACBC0/assets/B7A5F73D73A43974F59286A36D1180A3.jpeg" width="125.00" height="125.00" transform="matrix(1.00, 0.00, -0.00, -1.00, 610.8, 420.2)"></image></g></g><path d="M 64.0 11.0 C 78.7 25.6 78.7 49.4 64.0 64.0 C 49.4 78.7 25.6 78.7 11.0 64.0 C -3.7 49.4 -3.7 25.6 11.0 11.0 C 25.6 -3.7 49.4 -3.7 64.0 11.0 Z M 64.0 11.0 " fill="none" stroke="#FEFFFF" stroke-width="8.00" transform="matrix(1.00, 0.00, 0.00, -1.00, 610.8, 420.2)"></path><path d="M 39.4 155.8 C -15.1 101.7 -13.1 49.7 45.5 0.0 " fill="none" stroke="#FEFFFF" stroke-width="2.00" transform="matrix(1.00, 0.00, 0.00, -1.00, 1301.4, 503.0)"></path><g><clipPath id="clip-106"><path d="M 1369.9 415.7 C 1384.5 401.1 1384.5 377.4 1369.9 362.7 C 1355.3 348.1 1331.5 348.1 1316.9 362.7 C 1302.2 377.4 1302.2 401.1 1316.9 415.7 C 1331.5 430.4 1355.3 430.4 1369.9 415.7 Z M 1369.9 415.7 "></path></clipPath><g clip-path="url(#clip-106)"><path d="M 1302.2 348.1 L 1384.5 348.1 L 1384.5 430.4 L 1302.2 430.4 Z M 1302.2 348.1 " fill="url(#6864B782-194A-43F6-86F9-C44945BE235F)"></path></g></g><path d="M 64.0 11.0 C 78.7 25.6 78.7 49.4 64.0 64.0 C 49.4 78.7 25.6 78.7 11.0 64.0 C -3.7 49.4 -3.7 25.6 11.0 11.0 C 25.6 -3.7 49.4 -3.7 64.0 11.0 Z M 64.0 11.0 " fill="none" stroke="#FEFFFF" stroke-width="8.00" transform="matrix(1.00, 0.00, 0.00, -1.00, 1305.9, 426.7)"></path><path d="M 39.4 155.8 C -15.1 101.7 -13.1 49.7 45.5 0.0 " fill="none" stroke="#FEFFFF" stroke-width="2.00" transform="matrix(1.00, 0.00, 0.00, -1.00, 1388.6, 503.0)"></path><g><clipPath id="clip-107"><path d="M 1454.8 415.0 C 1469.4 400.4 1469.4 376.6 1454.8 362.0 C 1440.2 347.3 1416.4 347.3 1401.8 362.0 C 1387.1 376.6 1387.1 400.4 1401.8 415.0 C 1416.4 429.7 1440.2 429.7 1454.8 415.0 Z M 1454.8 415.0 "></path></clipPath><g clip-path="url(#clip-107)"><image xlink:href="../../D8898D71-BD24-4EF7-8DFE-CD7FF25ACBC0/assets/E222AC374B02824B2CCF00038F2EA19F.png" width="97.00" height="106.00" transform="matrix(1.00, 0.00, -0.00, -1.00, 1390.8, 426.0)"></image></g></g><path d="M 64.0 11.0 C 78.7 25.6 78.7 49.4 64.0 64.0 C 49.4 78.7 25.6 78.7 11.0 64.0 C -3.7 49.4 -3.7 25.6 11.0 11.0 C 25.6 -3.7 49.4 -3.7 64.0 11.0 Z M 64.0 11.0 " fill="none" stroke="#FEFFFF" stroke-width="8.00" transform="matrix(1.00, 0.00, 0.00, -1.00, 1390.8, 426.0)"></path><path d="M 39.4 155.8 C -15.1 101.7 -13.1 49.7 45.5 0.0 " fill="none" stroke="#FEFFFF" stroke-width="2.00" transform="matrix(1.00, 0.00, 0.00, -1.00, 1551.1, 503.0)"></path><g><clipPath id="clip-108"><path d="M 1619.5 415.7 C 1634.2 401.1 1634.2 377.4 1619.5 362.7 C 1604.9 348.1 1581.2 348.1 1566.5 362.7 C 1551.9 377.4 1551.9 401.1 1566.5 415.7 C 1581.2 430.4 1604.9 430.4 1619.5 415.7 Z M 1619.5 415.7 "></path></clipPath><g clip-path="url(#clip-108)"><path d="M 1551.9 348.1 L 1634.2 348.1 L 1634.2 430.4 L 1551.9 430.4 Z M 1551.9 348.1 " fill="url(#68B40F76-380F-4C89-913E-3D863E4B16F5)"></path></g></g><path d="M 64.0 11.0 C 78.7 25.6 78.7 49.4 64.0 64.0 C 49.4 78.7 25.6 78.7 11.0 64.0 C -3.7 49.4 -3.7 25.6 11.0 11.0 C 25.6 -3.7 49.4 -3.7 64.0 11.0 Z M 64.0 11.0 " fill="none" stroke="#FEFFFF" stroke-width="8.00" transform="matrix(1.00, 0.00, 0.00, -1.00, 1555.5, 426.7)"></path><g><clipPath id="clip-109"><path d="M 287.7 332.7 L 732.4 332.7 L 732.4 467.7 L 287.7 467.7 Z M 287.7 332.7 "></path></clipPath><g clip-path="url(#clip-109)"><image xlink:href="../../24700E4A-6BA0-4DC2-B207-E7327B91710F/assets/617118220CAB0B5382618C40AF247E6B.png" width="443.00" height="133.00" transform="matrix(1.00, 0.00, -0.00, -1.00, 288.7, 466.7)" opacity="0.90"></image></g></g><g><clipPath id="clip-110"><path d="M 287.7 332.7 L 732.4 332.7 L 732.4 467.7 L 287.7 467.7 Z M 287.7 332.7 "></path></clipPath><g clip-path="url(#clip-110)"><g opacity="0.90"><g><clipPath id="clip-111"><path d="M 303.7 451.7 L 716.4 451.7 L 716.4 348.7 L 303.7 348.7 Z M 303.7 451.7 "></path></clipPath><g clip-path="url(#clip-111)"><g><clipPath id="clip-112"><path d="M 298.0 343.0 L 722.0 343.0 L 722.0 457.0 L 298.0 457.0 Z M 298.0 343.0 "></path></clipPath><g clip-path="url(#clip-112)"><path d="M 298.0 343.0 L 722.0 343.0 L 722.0 457.0 L 298.0 457.0 Z M 298.0 343.0 " fill="url(#gradSh1.1)"></path></g></g></g></g><g><clipPath id="clip-113"><path d="M 298.0 343.0 L 722.0 343.0 L 722.0 457.0 L 298.0 457.0 Z M 298.0 343.0 "></path></clipPath><g clip-path="url(#clip-113)"><path d="M 0.0 0.0 L 412.7 0.0 L 412.7 103.0 L 0.0 103.0 Z M 0.0 0.0 " fill="none" stroke="#FEFFFF" stroke-width="10.00" transform="matrix(1.00, 0.00, 0.00, -1.00, 303.7, 451.7)"></path></g></g></g></g></g><g opacity="0.90"><g><clipPath id="clip-114"><path d="M 308.7 353.7 L 711.4 353.7 L 711.4 446.7 L 308.7 446.7 Z M 308.7 353.7 "></path></clipPath><g clip-path="url(#clip-114)"><text xml:space="preserve" font-family="MuseoSans-700" font-weight="bold" font-size="24.0" fill="#585852" transform="matrix(1.00, 0.00, -0.00, -1.00, 329.0, 404.0)">F</text><text xml:space="preserve" font-family="MuseoSans-700" font-weight="bold" font-size="24.0" fill="#585852" transform="matrix(1.00, 0.00, -0.00, -1.00, 341.7, 404.0)">i</text><text xml:space="preserve" font-family="MuseoSans-700" font-weight="bold" font-size="24.0" fill="#585852" transform="matrix(1.00, 0.00, -0.00, -1.00, 348.1, 404.0)">r</text><text xml:space="preserve" font-family="MuseoSans-700" font-weight="bold" font-size="24.0" fill="#585852" transform="matrix(1.00, 0.00, -0.00, -1.00, 357.5, 404.0)">s</text><text xml:space="preserve" font-family="MuseoSans-700" font-weight="bold" font-size="24.0" fill="#585852" transform="matrix(1.00, 0.00, -0.00, -1.00, 368.4, 404.0)">t</text><text xml:space="preserve" font-family="MuseoSans-700" font-weight="bold" font-size="24.0" fill="#585852" transform="matrix(1.00, 0.00, -0.00, -1.00, 377.4, 404.0)"> </text><text xml:space="preserve" font-family="MuseoSans-700" font-weight="bold" font-size="24.0" fill="#585852" transform="matrix(1.00, 0.00, -0.00, -1.00, 383.3, 404.0)">F</text><text xml:space="preserve" font-family="MuseoSans-700" font-weight="bold" font-size="24.0" fill="#585852" transform="matrix(1.00, 0.00, -0.00, -1.00, 396.0, 404.0)">l</text><text xml:space="preserve" font-family="MuseoSans-700" font-weight="bold" font-size="24.0" fill="#585852" transform="matrix(1.00, 0.00, -0.00, -1.00, 402.8, 404.0)">i</text><text xml:space="preserve" font-family="MuseoSans-700" font-weight="bold" font-size="24.0" fill="#585852" transform="matrix(1.00, 0.00, -0.00, -1.00, 409.2, 404.0)">g</text><text xml:space="preserve" font-family="MuseoSans-700" font-weight="bold" font-size="24.0" fill="#585852" transform="matrix(1.00, 0.00, -0.00, -1.00, 423.7, 404.0)">h</text><text xml:space="preserve" font-family="MuseoSans-700" font-weight="bold" font-size="24.0" fill="#585852" transform="matrix(1.00, 0.00, -0.00, -1.00, 438.4, 404.0)">t</text><text xml:space="preserve" font-family="MuseoSans-700" font-weight="bold" font-size="24.0" fill="#585852" transform="matrix(1.00, 0.00, -0.00, -1.00, 447.4, 404.0)">:</text><text xml:space="preserve" font-family="MuseoSans-700" font-weight="bold" font-size="24.0" fill="#585852" transform="matrix(1.00, 0.00, -0.00, -1.00, 454.4, 404.0)"> </text><text xml:space="preserve" font-family="MuseoSans-700" font-weight="bold" font-size="24.0" fill="#585852" transform="matrix(1.00, 0.00, -0.00, -1.00, 460.2, 404.0)">Y</text><text xml:space="preserve" font-family="MuseoSans-700" font-weight="bold" font-size="24.0" fill="#585852" transform="matrix(1.00, 0.00, -0.00, -1.00, 474.0, 404.0)">u</text><text xml:space="preserve" font-family="MuseoSans-700" font-weight="bold" font-size="24.0" fill="#585852" transform="matrix(1.00, 0.00, -0.00, -1.00, 488.6, 404.0)">r</text><text xml:space="preserve" font-family="MuseoSans-700" font-weight="bold" font-size="24.0" fill="#585852" transform="matrix(1.00, 0.00, -0.00, -1.00, 498.0, 404.0)">i</text><text xml:space="preserve" font-family="MuseoSans-700" font-weight="bold" font-size="24.0" fill="#585852" transform="matrix(1.00, 0.00, -0.00, -1.00, 504.4, 404.0)">’</text><text xml:space="preserve" font-family="MuseoSans-700" font-weight="bold" font-size="24.0" fill="#585852" transform="matrix(1.00, 0.00, -0.00, -1.00, 510.0, 404.0)">s</text><text xml:space="preserve" font-family="MuseoSans-700" font-weight="bold" font-size="24.0" fill="#585852" transform="matrix(1.00, 0.00, -0.00, -1.00, 520.8, 404.0)"> </text><text xml:space="preserve" font-family="MuseoSans-700" font-weight="bold" font-size="24.0" fill="#585852" transform="matrix(1.00, 0.00, -0.00, -1.00, 526.6, 404.0)">N</text><text xml:space="preserve" font-family="MuseoSans-700" font-weight="bold" font-size="24.0" fill="#585852" transform="matrix(1.00, 0.00, -0.00, -1.00, 544.9, 404.0)">i</text><text xml:space="preserve" font-family="MuseoSans-700" font-weight="bold" font-size="24.0" fill="#585852" transform="matrix(1.00, 0.00, -0.00, -1.00, 551.3, 404.0)">g</text><text xml:space="preserve" font-family="MuseoSans-700" font-weight="bold" font-size="24.0" fill="#585852" transform="matrix(1.00, 0.00, -0.00, -1.00, 565.8, 404.0)">h</text><text xml:space="preserve" font-family="MuseoSans-700" font-weight="bold" font-size="24.0" fill="#585852" transform="matrix(1.00, 0.00, -0.00, -1.00, 580.5, 404.0)">t</text><text xml:space="preserve" font-family="MuseoSans-700" font-weight="bold" font-size="24.0" fill="#585852" transform="matrix(1.00, 0.00, -0.00, -1.00, 589.5, 404.0)"> </text><text xml:space="preserve" font-family="MuseoSans-500" font-size="20.0" fill="#585852" transform="matrix(1.00, 0.00, -0.00, -1.00, 329.0, 379.0)">Y</text><text xml:space="preserve" font-family="MuseoSans-500" font-size="20.0" fill="#585852" transform="matrix(1.00, 0.00, -0.00, -1.00, 340.8, 379.0)">N</text><text xml:space="preserve" font-family="MuseoSans-500" font-size="20.0" fill="#585852" transform="matrix(1.00, 0.00, -0.00, -1.00, 355.9, 379.0)"> </text><text xml:space="preserve" font-family="MuseoSans-500" font-size="20.0" fill="#585852" transform="matrix(1.00, 0.00, -0.00, -1.00, 361.0, 379.0)">Y</text><text xml:space="preserve" font-family="MuseoSans-500" font-size="20.0" fill="#585852" transform="matrix(1.00, 0.00, -0.00, -1.00, 371.7, 379.0)">e</text><text xml:space="preserve" font-family="MuseoSans-500" font-size="20.0" fill="#585852" transform="matrix(1.00, 0.00, -0.00, -1.00, 382.8, 379.0)">a</text><text xml:space="preserve" font-family="MuseoSans-500" font-size="20.0" fill="#585852" transform="matrix(1.00, 0.00, -0.00, -1.00, 393.3, 379.0)">r</text><text xml:space="preserve" font-family="MuseoSans-500" font-size="20.0" fill="#585852" transform="matrix(1.00, 0.00, -0.00, -1.00, 400.8, 379.0)"> </text><text xml:space="preserve" font-family="MuseoSans-500" font-size="20.0" fill="#585852" transform="matrix(1.00, 0.00, -0.00, -1.00, 406.0, 379.0)">Z</text><text xml:space="preserve" font-family="MuseoSans-500" font-size="20.0" fill="#585852" transform="matrix(1.00, 0.00, -0.00, -1.00, 418.0, 379.0)">e</text><text xml:space="preserve" font-family="MuseoSans-500" font-size="20.0" fill="#585852" transform="matrix(1.00, 0.00, -0.00, -1.00, 429.1, 379.0)">r</text><text xml:space="preserve" font-family="MuseoSans-500" font-size="20.0" fill="#585852" transform="matrix(1.00, 0.00, -0.00, -1.00, 436.6, 379.0)">o</text></g></g></g><g><clipPath id="clip-115"><path d="M 308.8 474.6 L 385.2 398.2 L 308.8 321.9 L 232.5 398.2 Z M 308.8 474.6 "></path></clipPath><g clip-path="url(#clip-115)"><image xlink:href="../../24700E4A-6BA0-4DC2-B207-E7327B91710F/assets/7F68E4F361647783939C428D42072155.png" width="106.00" height="106.00" transform="matrix(0.71, -0.71, -0.71, -0.71, 308.8, 473.2)" opacity="0.40"></image><path d="M 308.8 470.9 L 238.1 400.2 L 308.8 329.5 Z M 308.8 470.9 " fill="#FEFFFF" fill-opacity="0.80"></path></g></g></g></svg>