<?xml version="1.0" encoding="UTF-8" standalone="no"?><svg xmlns="http://www.w3.org/2000/svg" xmlns:xlink="http://www.w3.org/1999/xlink" clip-rule="evenodd" stroke-miterlimit="4.00" viewBox="0 0 1920 1080"><desc>SVG generated by Keynote</desc><defs></defs><g transform="matrix(1.00, 0.00, -0.00, -1.00, 0.0, 1080.0)"><path d="M 0.0 1080.0 L 1920.0 1080.0 L 1920.0 0.0 L 0.0 0.0 Z M 0.0 1080.0 " fill="#000000"></path><image xlink:href="982AD7F233AE2F1F66649165E5829EFB.png" width="1931.00" height="186.00" transform="matrix(1.00, 0.00, -0.00, -1.00, -5.5, 1082.5)" opacity="0.50"></image><path d="M -2.5 1081.5 L 1922.5 1081.5 L 1922.5 901.5 L -2.5 901.5 Z M -2.5 1081.5 " fill="#082433"></path><image xlink:href="../../D8898D71-BD24-4EF7-8DFE-CD7FF25ACBC0/assets/982AD7F233AE2F1F66649165E5829EFB.png" width="1931.00" height="186.00" transform="matrix(1.00, 0.00, -0.00, -1.00, -5.5, 180.9)" opacity="0.50"></image><path d="M -2.5 179.9 L 1922.5 179.9 L 1922.5 -0.1 L -2.5 -0.1 Z M -2.5 179.9 " fill="#082433"></path><g><clipPath id="clip-0"><path d="M 1300.0 364.0 L 1797.0 364.0 L 1797.0 264.0 L 1300.0 264.0 Z M 1299.7 363.8 "></path></clipPath><g clip-path="url(#clip-0)"><image xlink:href="9A93BABB89F697A9CB4D0A2BF2830789.png" width="498.00" height="100.00" transform="matrix(1.00, 0.00, -0.00, -1.00, 1300.0, 364.0)"></image></g></g><text xml:space="preserve" font-family="JosefinSans-Bold" font-weight="bold" font-size="28.0" fill="#851001" transform="matrix(1.00, 0.00, -0.00, -1.00, 1303.0, 271.0)">w</text><text xml:space="preserve" font-family="JosefinSans-Bold" font-weight="bold" font-size="28.0" fill="#851001" transform="matrix(1.00, 0.00, -0.00, -1.00, 1321.5, 271.0)">w</text><text xml:space="preserve" font-family="JosefinSans-Bold" font-weight="bold" font-size="28.0" fill="#851001" transform="matrix(1.00, 0.00, -0.00, -1.00, 1340.1, 271.0)">w</text><text xml:space="preserve" font-family="JosefinSans-Bold" font-weight="bold" font-size="28.0" fill="#851001" transform="matrix(1.00, 0.00, -0.00, -1.00, 1357.7, 271.0)">.</text><text xml:space="preserve" font-family="JosefinSans-Bold" font-weight="bold" font-size="28.0" fill="#851001" transform="matrix(1.00, 0.00, -0.00, -1.00, 1364.0, 271.0)">c</text><text xml:space="preserve" font-family="JosefinSans-Bold" font-weight="bold" font-size="28.0" fill="#851001" transform="matrix(1.00, 0.00, -0.00, -1.00, 1375.9, 271.0)">r</text><text xml:space="preserve" font-family="JosefinSans-Bold" font-weight="bold" font-size="28.0" fill="#851001" transform="matrix(1.00, 0.00, -0.00, -1.00, 1384.8, 271.0)">a</text><text xml:space="preserve" font-family="JosefinSans-Bold" font-weight="bold" font-size="28.0" fill="#851001" transform="matrix(1.00, 0.00, -0.00, -1.00, 1400.1, 271.0)">n</text><text xml:space="preserve" font-family="JosefinSans-Bold" font-weight="bold" font-size="28.0" fill="#851001" transform="matrix(1.00, 0.00, -0.00, -1.00, 1414.7, 271.0)">f</text><text xml:space="preserve" font-family="JosefinSans-Bold" font-weight="bold" font-size="28.0" fill="#851001" transform="matrix(1.00, 0.00, -0.00, -1.00, 1424.0, 271.0)">o</text><text xml:space="preserve" font-family="JosefinSans-Bold" font-weight="bold" font-size="28.0" fill="#851001" transform="matrix(1.00, 0.00, -0.00, -1.00, 1438.4, 271.0)">r</text><text xml:space="preserve" font-family="JosefinSans-Bold" font-weight="bold" font-size="28.0" fill="#851001" transform="matrix(1.00, 0.00, -0.00, -1.00, 1447.2, 271.0)">d</text><text xml:space="preserve" font-family="JosefinSans-Bold" font-weight="bold" font-size="28.0" fill="#851001" transform="matrix(1.00, 0.00, -0.00, -1.00, 1462.5, 271.0)">t</text><text xml:space="preserve" font-family="JosefinSans-Bold" font-weight="bold" font-size="28.0" fill="#851001" transform="matrix(1.00, 0.00, -0.00, -1.00, 1471.2, 271.0)">e</text><text xml:space="preserve" font-family="JosefinSans-Bold" font-weight="bold" font-size="28.0" fill="#851001" transform="matrix(1.00, 0.00, -0.00, -1.00, 1484.4, 271.0)">a</text><text xml:space="preserve" font-family="JosefinSans-Bold" font-weight="bold" font-size="28.0" fill="#851001" transform="matrix(1.00, 0.00, -0.00, -1.00, 1499.8, 271.0)">g</text><text xml:space="preserve" font-family="JosefinSans-Bold" font-weight="bold" font-size="28.0" fill="#851001" transform="matrix(1.00, 0.00, -0.00, -1.00, 1515.1, 271.0)">u</text><text xml:space="preserve" font-family="JosefinSans-Bold" font-weight="bold" font-size="28.0" fill="#851001" transform="matrix(1.00, 0.00, -0.00, -1.00, 1529.7, 271.0)">e</text><text xml:space="preserve" font-family="JosefinSans-Bold" font-weight="bold" font-size="28.0" fill="#851001" transform="matrix(1.00, 0.00, -0.00, -1.00, 1543.0, 271.0)">.</text><text xml:space="preserve" font-family="JosefinSans-Bold" font-weight="bold" font-size="28.0" fill="#851001" transform="matrix(1.00, 0.00, -0.00, -1.00, 1549.3, 271.0)">c</text><text xml:space="preserve" font-family="JosefinSans-Bold" font-weight="bold" font-size="28.0" fill="#851001" transform="matrix(1.00, 0.00, -0.00, -1.00, 1560.8, 271.0)">o</text><text xml:space="preserve" font-family="JosefinSans-Bold" font-weight="bold" font-size="28.0" fill="#851001" transform="matrix(1.00, 0.00, -0.00, -1.00, 1575.2, 271.0)">m</text><text xml:space="preserve" font-family="JosefinSans" font-size="36.0" fill="#1A90BE" transform="matrix(1.00, 0.00, -0.00, -1.00, 184.0, 320.0)">J</text><text xml:space="preserve" font-family="JosefinSans" font-size="36.0" fill="#1A90BE" transform="matrix(1.00, 0.00, -0.00, -1.00, 193.9, 320.0)">a</text><text xml:space="preserve" font-family="JosefinSans" font-size="36.0" fill="#1A90BE" transform="matrix(1.00, 0.00, -0.00, -1.00, 212.9, 320.0)">s</text><text xml:space="preserve" font-family="JosefinSans" font-size="36.0" fill="#1A90BE" transform="matrix(1.00, 0.00, -0.00, -1.00, 224.9, 320.0)">o</text><text xml:space="preserve" font-family="JosefinSans" font-size="36.0" fill="#1A90BE" transform="matrix(1.00, 0.00, -0.00, -1.00, 242.8, 320.0)">n</text><text xml:space="preserve" font-family="JosefinSans" font-size="36.0" fill="#1A90BE" transform="matrix(1.00, 0.00, -0.00, -1.00, 260.2, 320.0)"> </text><text xml:space="preserve" font-family="JosefinSans" font-size="36.0" fill="#1A90BE" transform="matrix(1.00, 0.00, -0.00, -1.00, 269.1, 320.0)">C</text><text xml:space="preserve" font-family="JosefinSans" font-size="36.0" fill="#1A90BE" transform="matrix(1.00, 0.00, -0.00, -1.00, 291.8, 320.0)">r</text><text xml:space="preserve" font-family="JosefinSans" font-size="36.0" fill="#1A90BE" transform="matrix(1.00, 0.00, -0.00, -1.00, 301.9, 320.0)">a</text><text xml:space="preserve" font-family="JosefinSans" font-size="36.0" fill="#1A90BE" transform="matrix(1.00, 0.00, -0.00, -1.00, 320.9, 320.0)">n</text><text xml:space="preserve" font-family="JosefinSans" font-size="36.0" fill="#1A90BE" transform="matrix(1.00, 0.00, -0.00, -1.00, 338.2, 320.0)">f</text><text xml:space="preserve" font-family="JosefinSans" font-size="36.0" fill="#1A90BE" transform="matrix(1.00, 0.00, -0.00, -1.00, 348.4, 320.0)">o</text><text xml:space="preserve" font-family="JosefinSans" font-size="36.0" fill="#1A90BE" transform="matrix(1.00, 0.00, -0.00, -1.00, 366.3, 320.0)">r</text><text xml:space="preserve" font-family="JosefinSans" font-size="36.0" fill="#1A90BE" transform="matrix(1.00, 0.00, -0.00, -1.00, 376.4, 320.0)">d</text><text xml:space="preserve" font-family="JosefinSans" font-size="36.0" fill="#1A90BE" transform="matrix(1.00, 0.00, -0.00, -1.00, 395.5, 320.0)"> </text><text xml:space="preserve" font-family="JosefinSans" font-size="36.0" fill="#1A90BE" transform="matrix(1.00, 0.00, -0.00, -1.00, 403.3, 320.0)">T</text><text xml:space="preserve" font-family="JosefinSans" font-size="36.0" fill="#1A90BE" transform="matrix(1.00, 0.00, -0.00, -1.00, 418.6, 320.0)">e</text><text xml:space="preserve" font-family="JosefinSans" font-size="36.0" fill="#1A90BE" transform="matrix(1.00, 0.00, -0.00, -1.00, 435.0, 320.0)">a</text><text xml:space="preserve" font-family="JosefinSans" font-size="36.0" fill="#1A90BE" transform="matrix(1.00, 0.00, -0.00, -1.00, 454.1, 320.0)">g</text><text xml:space="preserve" font-family="JosefinSans" font-size="36.0" fill="#1A90BE" transform="matrix(1.00, 0.00, -0.00, -1.00, 473.2, 320.0)">u</text><text xml:space="preserve" font-family="JosefinSans" font-size="36.0" fill="#1A90BE" transform="matrix(1.00, 0.00, -0.00, -1.00, 490.5, 320.0)">e</text><text xml:space="preserve" font-family="JosefinSans" font-size="36.0" fill="#1A90BE" transform="matrix(1.00, 0.00, -0.00, -1.00, 507.0, 320.0)"> </text><text xml:space="preserve" font-family="JosefinSans" font-size="36.0" fill="#1A90BE" transform="matrix(1.00, 0.00, -0.00, -1.00, 184.0, 277.0)">@</text><text xml:space="preserve" font-family="JosefinSans" font-size="36.0" fill="#1A90BE" transform="matrix(1.00, 0.00, -0.00, -1.00, 217.7, 277.0)">j</text><text xml:space="preserve" font-family="JosefinSans" font-size="36.0" fill="#1A90BE" transform="matrix(1.00, 0.00, -0.00, -1.00, 224.6, 277.0)">a</text><text xml:space="preserve" font-family="JosefinSans" font-size="36.0" fill="#1A90BE" transform="matrix(1.00, 0.00, -0.00, -1.00, 243.7, 277.0)">s</text><text xml:space="preserve" font-family="JosefinSans" font-size="36.0" fill="#1A90BE" transform="matrix(1.00, 0.00, -0.00, -1.00, 255.6, 277.0)">o</text><text xml:space="preserve" font-family="JosefinSans" font-size="36.0" fill="#1A90BE" transform="matrix(1.00, 0.00, -0.00, -1.00, 273.5, 277.0)">n</text><text xml:space="preserve" font-family="JosefinSans" font-size="36.0" fill="#1A90BE" transform="matrix(1.00, 0.00, -0.00, -1.00, 290.9, 277.0)">c</text><text xml:space="preserve" font-family="JosefinSans" font-size="36.0" fill="#1A90BE" transform="matrix(1.00, 0.00, -0.00, -1.00, 305.8, 277.0)">t</text><text xml:space="preserve" font-family="JosefinSans" font-size="36.0" fill="#1A90BE" transform="matrix(1.00, 0.00, -0.00, -1.00, 315.4, 277.0)"> </text><text xml:space="preserve" font-family="JosefinSans" font-size="36.0" fill="#1A90BE" transform="matrix(1.00, 0.00, -0.00, -1.00, 324.3, 277.0)">|</text><text xml:space="preserve" font-family="JosefinSans" font-size="36.0" fill="#1A90BE" transform="matrix(1.00, 0.00, -0.00, -1.00, 333.1, 277.0)"> </text><text xml:space="preserve" font-family="JosefinSans" font-size="36.0" fill="#1A90BE" transform="matrix(1.00, 0.00, -0.00, -1.00, 342.0, 277.0)">#</text><text xml:space="preserve" font-family="JosefinSans" font-size="36.0" fill="#1A90BE" transform="matrix(1.00, 0.00, -0.00, -1.00, 362.7, 277.0)">Y</text><text xml:space="preserve" font-family="JosefinSans" font-size="36.0" fill="#1A90BE" transform="matrix(1.00, 0.00, -0.00, -1.00, 381.2, 277.0)">u</text><text xml:space="preserve" font-family="JosefinSans" font-size="36.0" fill="#1A90BE" transform="matrix(1.00, 0.00, -0.00, -1.00, 398.5, 277.0)">r</text><text xml:space="preserve" font-family="JosefinSans" font-size="36.0" fill="#1A90BE" transform="matrix(1.00, 0.00, -0.00, -1.00, 409.1, 277.0)">i</text><text xml:space="preserve" font-family="JosefinSans" font-size="36.0" fill="#1A90BE" transform="matrix(1.00, 0.00, -0.00, -1.00, 416.0, 277.0)">s</text><text xml:space="preserve" font-family="JosefinSans" font-size="36.0" fill="#1A90BE" transform="matrix(1.00, 0.00, -0.00, -1.00, 426.9, 277.0)">N</text><text xml:space="preserve" font-family="JosefinSans" font-size="36.0" fill="#1A90BE" transform="matrix(1.00, 0.00, -0.00, -1.00, 455.7, 277.0)">i</text><text xml:space="preserve" font-family="JosefinSans" font-size="36.0" fill="#1A90BE" transform="matrix(1.00, 0.00, -0.00, -1.00, 462.6, 277.0)">g</text><text xml:space="preserve" font-family="JosefinSans" font-size="36.0" fill="#1A90BE" transform="matrix(1.00, 0.00, -0.00, -1.00, 481.7, 277.0)">h</text><text xml:space="preserve" font-family="JosefinSans" font-size="36.0" fill="#1A90BE" transform="matrix(1.00, 0.00, -0.00, -1.00, 499.1, 277.0)">t</text><text xml:space="preserve" font-family="JosefinSans" font-size="96.0" fill="#96E1FE" transform="matrix(1.00, 0.00, -0.00, -1.00, 180.0, 563.0)">Y</text><text xml:space="preserve" font-family="JosefinSans" font-size="96.0" fill="#96E1FE" transform="matrix(1.00, 0.00, -0.00, -1.00, 243.0, 563.0)">U</text><text xml:space="preserve" font-family="JosefinSans" font-size="96.0" fill="#96E1FE" transform="matrix(1.00, 0.00, -0.00, -1.00, 311.7, 563.0)">R</text><text xml:space="preserve" font-family="JosefinSans" font-size="96.0" fill="#96E1FE" transform="matrix(1.00, 0.00, -0.00, -1.00, 371.5, 563.0)">I</text><text xml:space="preserve" font-family="JosefinSans" font-size="96.0" fill="#96E1FE" transform="matrix(1.00, 0.00, -0.00, -1.00, 399.6, 563.0)">’</text><text xml:space="preserve" font-family="JosefinSans" font-size="96.0" fill="#96E1FE" transform="matrix(1.00, 0.00, -0.00, -1.00, 419.3, 563.0)">S</text><text xml:space="preserve" font-family="JosefinSans" font-size="96.0" fill="#96E1FE" transform="matrix(1.00, 0.00, -0.00, -1.00, 474.1, 563.0)"> </text><text xml:space="preserve" font-family="JosefinSans" font-size="96.0" fill="#96E1FE" transform="matrix(1.00, 0.00, -0.00, -1.00, 499.7, 563.0)">N</text><text xml:space="preserve" font-family="JosefinSans" font-size="96.0" fill="#96E1FE" transform="matrix(1.00, 0.00, -0.00, -1.00, 579.6, 563.0)">I</text><text xml:space="preserve" font-family="JosefinSans" font-size="96.0" fill="#96E1FE" transform="matrix(1.00, 0.00, -0.00, -1.00, 607.7, 563.0)">G</text><text xml:space="preserve" font-family="JosefinSans" font-size="96.0" fill="#96E1FE" transform="matrix(1.00, 0.00, -0.00, -1.00, 675.2, 563.0)">H</text><text xml:space="preserve" font-family="JosefinSans" font-size="96.0" fill="#96E1FE" transform="matrix(1.00, 0.00, -0.00, -1.00, 748.9, 563.0)">T</text><text xml:space="preserve" font-family="JosefinSans-Light" font-size="64.0" fill="#CA553A" transform="matrix(1.00, 0.00, -0.00, -1.00, 184.0, 477.0)">I</text><text xml:space="preserve" font-family="JosefinSans-Light" font-size="64.0" fill="#CA553A" transform="matrix(1.00, 0.00, -0.00, -1.00, 200.8, 477.0)">A</text><text xml:space="preserve" font-family="JosefinSans-Light" font-size="64.0" fill="#CA553A" transform="matrix(1.00, 0.00, -0.00, -1.00, 240.4, 477.0)">C</text><text xml:space="preserve" font-family="JosefinSans-Light" font-size="64.0" fill="#CA553A" transform="matrix(1.00, 0.00, -0.00, -1.00, 281.6, 477.0)"> </text><text xml:space="preserve" font-family="JosefinSans-Light" font-size="64.0" fill="#CA553A" transform="matrix(1.00, 0.00, -0.00, -1.00, 297.7, 477.0)">I</text><text xml:space="preserve" font-family="JosefinSans-Light" font-size="64.0" fill="#CA553A" transform="matrix(1.00, 0.00, -0.00, -1.00, 313.5, 477.0)">n</text><text xml:space="preserve" font-family="JosefinSans-Light" font-size="64.0" fill="#CA553A" transform="matrix(1.00, 0.00, -0.00, -1.00, 342.8, 477.0)">t</text><text xml:space="preserve" font-family="JosefinSans-Light" font-size="64.0" fill="#CA553A" transform="matrix(1.00, 0.00, -0.00, -1.00, 359.2, 477.0)">e</text><text xml:space="preserve" font-family="JosefinSans-Light" font-size="64.0" fill="#CA553A" transform="matrix(1.00, 0.00, -0.00, -1.00, 387.3, 477.0)">r</text><text xml:space="preserve" font-family="JosefinSans-Light" font-size="64.0" fill="#CA553A" transform="matrix(1.00, 0.00, -0.00, -1.00, 403.3, 477.0)">a</text><text xml:space="preserve" font-family="JosefinSans-Light" font-size="64.0" fill="#CA553A" transform="matrix(1.00, 0.00, -0.00, -1.00, 436.2, 477.0)">c</text><text xml:space="preserve" font-family="JosefinSans-Light" font-size="64.0" fill="#CA553A" transform="matrix(1.00, 0.00, -0.00, -1.00, 461.9, 477.0)">t</text><text xml:space="preserve" font-family="JosefinSans-Light" font-size="64.0" fill="#CA553A" transform="matrix(1.00, 0.00, -0.00, -1.00, 479.0, 477.0)">i</text><text xml:space="preserve" font-family="JosefinSans-Light" font-size="64.0" fill="#CA553A" transform="matrix(1.00, 0.00, -0.00, -1.00, 490.2, 477.0)">v</text><text xml:space="preserve" font-family="JosefinSans-Light" font-size="64.0" fill="#CA553A" transform="matrix(1.00, 0.00, -0.00, -1.00, 515.5, 477.0)">e</text><text xml:space="preserve" font-family="JosefinSans-Light" font-size="64.0" fill="#CA553A" transform="matrix(1.00, 0.00, -0.00, -1.00, 543.7, 477.0)"> </text><text xml:space="preserve" font-family="JosefinSans-Light" font-size="64.0" fill="#CA553A" transform="matrix(1.00, 0.00, -0.00, -1.00, 559.8, 477.0)">P</text><text xml:space="preserve" font-family="JosefinSans-Light" font-size="64.0" fill="#CA553A" transform="matrix(1.00, 0.00, -0.00, -1.00, 587.5, 477.0)">a</text><text xml:space="preserve" font-family="JosefinSans-Light" font-size="64.0" fill="#CA553A" transform="matrix(1.00, 0.00, -0.00, -1.00, 620.4, 477.0)">p</text><text xml:space="preserve" font-family="JosefinSans-Light" font-size="64.0" fill="#CA553A" transform="matrix(1.00, 0.00, -0.00, -1.00, 653.4, 477.0)">e</text><text xml:space="preserve" font-family="JosefinSans-Light" font-size="64.0" fill="#CA553A" transform="matrix(1.00, 0.00, -0.00, -1.00, 681.6, 477.0)">r</text><text xml:space="preserve" font-family="JosefinSans-Light" font-size="64.0" fill="#CA553A" transform="matrix(1.00, 0.00, -0.00, -1.00, 697.5, 477.0)"> </text><text xml:space="preserve" font-family="JosefinSans-Light" font-size="64.0" fill="#CA553A" transform="matrix(1.00, 0.00, -0.00, -1.00, 711.8, 477.0)">T</text><text xml:space="preserve" font-family="JosefinSans-Light" font-size="64.0" fill="#CA553A" transform="matrix(1.00, 0.00, -0.00, -1.00, 739.1, 477.0)">i</text><text xml:space="preserve" font-family="JosefinSans-Light" font-size="64.0" fill="#CA553A" transform="matrix(1.00, 0.00, -0.00, -1.00, 750.2, 477.0)">m</text><text xml:space="preserve" font-family="JosefinSans-Light" font-size="64.0" fill="#CA553A" transform="matrix(1.00, 0.00, -0.00, -1.00, 797.5, 477.0)">e</text><text xml:space="preserve" font-family="JosefinSans-Light" font-size="64.0" fill="#CA553A" transform="matrix(1.00, 0.00, -0.00, -1.00, 825.7, 477.0)">l</text><text xml:space="preserve" font-family="JosefinSans-Light" font-size="64.0" fill="#CA553A" transform="matrix(1.00, 0.00, -0.00, -1.00, 837.4, 477.0)">i</text><text xml:space="preserve" font-family="JosefinSans-Light" font-size="64.0" fill="#CA553A" transform="matrix(1.00, 0.00, -0.00, -1.00, 848.5, 477.0)">n</text><text xml:space="preserve" font-family="JosefinSans-Light" font-size="64.0" fill="#CA553A" transform="matrix(1.00, 0.00, -0.00, -1.00, 877.8, 477.0)">e</text></g></svg>