<?xml version="1.0" encoding="UTF-8" standalone="no"?><svg xmlns="http://www.w3.org/2000/svg" xmlns:xlink="http://www.w3.org/1999/xlink" clip-rule="evenodd" stroke-miterlimit="4.00" viewBox="0 0 501 153"><desc>SVG generated by Keynote</desc><defs><linearGradient id="gradSh1.12" x1="0.0" y1="0.0" x2="100.0" y2="0.0" gradientUnits="userSpaceOnUse" gradientTransform="matrix(0.00, -1.05, -4.15, 0.00, 277.8, 131.0)"><stop offset="0.00000" stop-color="#FBF7E9"></stop><stop offset="0.00806" stop-color="#FBF6E9"></stop><stop offset="1.00000" stop-color="#C3C2B7"></stop></linearGradient></defs><g transform="matrix(1.00, 0.00, -0.00, -1.00, 0.0, 153.0)"><g><clipPath id="clip-624"><path d="M 55.5 11.0 L 500.2 11.0 L 500.2 146.0 L 55.5 146.0 Z M 55.5 11.0 "></path></clipPath><g clip-path="url(#clip-624)"><image xlink:href="../../24700E4A-6BA0-4DC2-B207-E7327B91710F/assets/617118220CAB0B5382618C40AF247E6B.png" width="443.00" height="133.00" transform="matrix(1.00, 0.00, -0.00, -1.00, 56.5, 145.0)" opacity="0.90"></image></g></g><g><clipPath id="clip-625"><path d="M 55.5 11.0 L 500.2 11.0 L 500.2 146.0 L 55.5 146.0 Z M 55.5 11.0 "></path></clipPath><g clip-path="url(#clip-625)"><g opacity="0.90"><g><clipPath id="clip-626"><path d="M 71.5 130.0 L 484.2 130.0 L 484.2 27.0 L 71.5 27.0 Z M 71.5 130.0 "></path></clipPath><g clip-path="url(#clip-626)"><g><clipPath id="clip-627"><path d="M 66.0 21.0 L 490.0 21.0 L 490.0 135.0 L 66.0 135.0 Z M 66.0 21.0 "></path></clipPath><g clip-path="url(#clip-627)"><path d="M 66.0 21.0 L 490.0 21.0 L 490.0 135.0 L 66.0 135.0 Z M 66.0 21.0 " fill="url(#gradSh1.12)"></path></g></g></g></g><g><clipPath id="clip-628"><path d="M 66.0 21.0 L 490.0 21.0 L 490.0 135.0 L 66.0 135.0 Z M 66.0 21.0 "></path></clipPath><g clip-path="url(#clip-628)"><path d="M 0.0 0.0 L 412.7 0.0 L 412.7 103.0 L 0.0 103.0 Z M 0.0 0.0 " fill="none" stroke="#FEFFFF" stroke-width="10.00" transform="matrix(1.00, 0.00, 0.00, -1.00, 71.5, 130.0)"></path></g></g></g></g></g><g opacity="0.90"><g><clipPath id="clip-629"><path d="M 76.5 32.0 L 479.2 32.0 L 479.2 125.0 L 76.5 125.0 Z M 76.5 32.0 "></path></clipPath><g clip-path="url(#clip-629)"><text xml:space="preserve" font-family="MuseoSans-700" font-weight="bold" font-size="24.0" fill="#585852" transform="matrix(1.00, 0.00, -0.00, -1.00, 97.0, 82.0)">Y</text><text xml:space="preserve" font-family="MuseoSans-700" font-weight="bold" font-size="24.0" fill="#585852" transform="matrix(1.00, 0.00, -0.00, -1.00, 110.8, 82.0)">u</text><text xml:space="preserve" font-family="MuseoSans-700" font-weight="bold" font-size="24.0" fill="#585852" transform="matrix(1.00, 0.00, -0.00, -1.00, 125.4, 82.0)">r</text><text xml:space="preserve" font-family="MuseoSans-700" font-weight="bold" font-size="24.0" fill="#585852" transform="matrix(1.00, 0.00, -0.00, -1.00, 134.8, 82.0)">i</text><text xml:space="preserve" font-family="MuseoSans-700" font-weight="bold" font-size="24.0" fill="#585852" transform="matrix(1.00, 0.00, -0.00, -1.00, 141.2, 82.0)">’</text><text xml:space="preserve" font-family="MuseoSans-700" font-weight="bold" font-size="24.0" fill="#585852" transform="matrix(1.00, 0.00, -0.00, -1.00, 146.8, 82.0)">s</text><text xml:space="preserve" font-family="MuseoSans-700" font-weight="bold" font-size="24.0" fill="#585852" transform="matrix(1.00, 0.00, -0.00, -1.00, 157.6, 82.0)"> </text><text xml:space="preserve" font-family="MuseoSans-700" font-weight="bold" font-size="24.0" fill="#585852" transform="matrix(1.00, 0.00, -0.00, -1.00, 163.5, 82.0)">N</text><text xml:space="preserve" font-family="MuseoSans-700" font-weight="bold" font-size="24.0" fill="#585852" transform="matrix(1.00, 0.00, -0.00, -1.00, 181.7, 82.0)">i</text><text xml:space="preserve" font-family="MuseoSans-700" font-weight="bold" font-size="24.0" fill="#585852" transform="matrix(1.00, 0.00, -0.00, -1.00, 188.1, 82.0)">g</text><text xml:space="preserve" font-family="MuseoSans-700" font-weight="bold" font-size="24.0" fill="#585852" transform="matrix(1.00, 0.00, -0.00, -1.00, 202.6, 82.0)">h</text><text xml:space="preserve" font-family="MuseoSans-700" font-weight="bold" font-size="24.0" fill="#585852" transform="matrix(1.00, 0.00, -0.00, -1.00, 217.3, 82.0)">t</text><text xml:space="preserve" font-family="MuseoSans-700" font-weight="bold" font-size="24.0" fill="#585852" transform="matrix(1.00, 0.00, -0.00, -1.00, 226.4, 82.0)"> </text><text xml:space="preserve" font-family="MuseoSans-700" font-weight="bold" font-size="24.0" fill="#585852" transform="matrix(1.00, 0.00, -0.00, -1.00, 232.2, 82.0)">R</text><text xml:space="preserve" font-family="MuseoSans-700" font-weight="bold" font-size="24.0" fill="#585852" transform="matrix(1.00, 0.00, -0.00, -1.00, 247.9, 82.0)">e</text><text xml:space="preserve" font-family="MuseoSans-700" font-weight="bold" font-size="24.0" fill="#585852" transform="matrix(1.00, 0.00, -0.00, -1.00, 261.2, 82.0)">n</text><text xml:space="preserve" font-family="MuseoSans-700" font-weight="bold" font-size="24.0" fill="#585852" transform="matrix(1.00, 0.00, -0.00, -1.00, 275.9, 82.0)">o</text><text xml:space="preserve" font-family="MuseoSans-700" font-weight="bold" font-size="24.0" fill="#585852" transform="matrix(1.00, 0.00, -0.00, -1.00, 290.9, 82.0)"> </text><text xml:space="preserve" font-family="MuseoSans-700" font-weight="bold" font-size="24.0" fill="#585852" transform="matrix(1.00, 0.00, -0.00, -1.00, 296.7, 82.0)"> </text><text xml:space="preserve" font-family="MuseoSans-500" font-size="20.0" fill="#585852" transform="matrix(1.00, 0.00, -0.00, -1.00, 97.0, 57.0)">Y</text><text xml:space="preserve" font-family="MuseoSans-500" font-size="20.0" fill="#585852" transform="matrix(1.00, 0.00, -0.00, -1.00, 108.8, 57.0)">N</text><text xml:space="preserve" font-family="MuseoSans-500" font-size="20.0" fill="#585852" transform="matrix(1.00, 0.00, -0.00, -1.00, 123.9, 57.0)"> </text><text xml:space="preserve" font-family="MuseoSans-500" font-size="20.0" fill="#585852" transform="matrix(1.00, 0.00, -0.00, -1.00, 129.0, 57.0)">+</text><text xml:space="preserve" font-family="MuseoSans-500" font-size="20.0" fill="#585852" transform="matrix(1.00, 0.00, -0.00, -1.00, 142.7, 57.0)">4</text><text xml:space="preserve" font-family="MuseoSans-500" font-size="20.0" fill="#585852" transform="matrix(1.00, 0.00, -0.00, -1.00, 154.8, 57.0)">6</text></g></g></g><g><clipPath id="clip-630"><path d="M 76.6 152.9 L 153.0 76.5 L 76.6 0.1 L 0.3 76.5 Z M 76.6 152.9 "></path></clipPath><g clip-path="url(#clip-630)"><image xlink:href="../../24700E4A-6BA0-4DC2-B207-E7327B91710F/assets/7F68E4F361647783939C428D42072155.png" width="106.00" height="106.00" transform="matrix(0.71, -0.71, -0.71, -0.71, 76.6, 151.5)" opacity="0.40"></image><path d="M 76.6 149.2 L 5.9 78.5 L 76.6 7.8 Z M 76.6 149.2 " fill="#FEFFFF" fill-opacity="0.80"></path></g></g></g></svg>