<?xml version="1.0" encoding="UTF-8" standalone="no"?><svg xmlns="http://www.w3.org/2000/svg" xmlns:xlink="http://www.w3.org/1999/xlink" clip-rule="evenodd" stroke-miterlimit="4.00" viewBox="0 0 292 39"><desc>SVG generated by Keynote</desc><defs></defs><g transform="matrix(1.00, 0.00, -0.00, -1.00, 0.0, 39.0)"><text xml:space="preserve" font-family="JosefinSans-SemiBold" font-weight="bold" font-size="44.0" fill="#FFDA52" transform="matrix(1.00, 0.00, -0.00, -1.00, 2.0, 4.0)">Y</text><text xml:space="preserve" font-family="JosefinSans-SemiBold" font-weight="bold" font-size="44.0" fill="#FFDA52" transform="matrix(1.00, 0.00, -0.00, -1.00, 31.7, 4.0)">U</text><text xml:space="preserve" font-family="JosefinSans-SemiBold" font-weight="bold" font-size="44.0" fill="#FFDA52" transform="matrix(1.00, 0.00, -0.00, -1.00, 64.1, 4.0)">R</text><text xml:space="preserve" font-family="JosefinSans-SemiBold" font-weight="bold" font-size="44.0" fill="#FFDA52" transform="matrix(1.00, 0.00, -0.00, -1.00, 92.6, 4.0)">I</text><text xml:space="preserve" font-family="JosefinSans-SemiBold" font-weight="bold" font-size="44.0" fill="#FFDA52" transform="matrix(1.00, 0.00, -0.00, -1.00, 106.1, 4.0)">’</text><text xml:space="preserve" font-family="JosefinSans-SemiBold" font-weight="bold" font-size="44.0" fill="#FFDA52" transform="matrix(1.00, 0.00, -0.00, -1.00, 114.9, 4.0)">S</text><text xml:space="preserve" font-family="JosefinSans-SemiBold" font-weight="bold" font-size="44.0" fill="#FFDA52" transform="matrix(1.00, 0.00, -0.00, -1.00, 140.6, 4.0)"> </text><text xml:space="preserve" font-family="JosefinSans-SemiBold" font-weight="bold" font-size="44.0" fill="#FFDA52" transform="matrix(1.00, 0.00, -0.00, -1.00, 151.6, 4.0)">N</text><text xml:space="preserve" font-family="JosefinSans-SemiBold" font-weight="bold" font-size="44.0" fill="#FFDA52" transform="matrix(1.00, 0.00, -0.00, -1.00, 188.3, 4.0)">I</text><text xml:space="preserve" font-family="JosefinSans-SemiBold" font-weight="bold" font-size="44.0" fill="#FFDA52" transform="matrix(1.00, 0.00, -0.00, -1.00, 201.8, 4.0)">G</text><text xml:space="preserve" font-family="JosefinSans-SemiBold" font-weight="bold" font-size="44.0" fill="#FFDA52" transform="matrix(1.00, 0.00, -0.00, -1.00, 232.8, 4.0)">H</text><text xml:space="preserve" font-family="JosefinSans-SemiBold" font-weight="bold" font-size="44.0" fill="#FFDA52" transform="matrix(1.00, 0.00, -0.00, -1.00, 267.1, 4.0)">T</text></g></svg>