<?xml version="1.0" encoding="UTF-8" standalone="no"?><svg xmlns="http://www.w3.org/2000/svg" xmlns:xlink="http://www.w3.org/1999/xlink" clip-rule="evenodd" stroke-miterlimit="4.00" viewBox="0 0 92 96"><desc>SVG generated by Keynote</desc><defs></defs><g transform="matrix(1.00, 0.00, -0.00, -1.00, 0.0, 96.0)"><image xlink:href="../../D8898D71-BD24-4EF7-8DFE-CD7FF25ACBC0/assets/36BE20CD8D9F65DA45F486A29ADA303E.png" width="89.00" height="89.00" transform="matrix(1.00, 0.00, -0.00, -1.00, 1.8, 90.2)" opacity="0.50"></image><g><clipPath id="clip-1166"><path d="M 72.9 74.2 C 87.5 59.6 87.5 35.8 72.9 21.2 C 58.2 6.5 34.5 6.5 19.8 21.2 C 5.2 35.8 5.2 59.6 19.8 74.2 C 34.5 88.8 58.2 88.8 72.9 74.2 Z M 72.9 74.2 "></path></clipPath><g clip-path="url(#clip-1166)"><image xlink:href="../../D8898D71-BD24-4EF7-8DFE-CD7FF25ACBC0/assets/B7A5F73D73A43974F59286A36D1180A3.jpeg" width="125.00" height="125.00" transform="matrix(1.00, 0.00, -0.00, -1.00, 8.8, 85.2)"></image></g></g><path d="M 64.0 11.0 C 78.7 25.6 78.7 49.4 64.0 64.0 C 49.4 78.7 25.6 78.7 11.0 64.0 C -3.7 49.4 -3.7 25.6 11.0 11.0 C 25.6 -3.7 49.4 -3.7 64.0 11.0 Z M 64.0 11.0 " fill="none" stroke="#FEFFFF" stroke-width="8.00" transform="matrix(1.00, 0.00, 0.00, -1.00, 8.8, 85.2)"></path></g></svg>