<?xml version="1.0" encoding="UTF-8" standalone="no"?><svg xmlns="http://www.w3.org/2000/svg" xmlns:xlink="http://www.w3.org/1999/xlink" clip-rule="evenodd" stroke-miterlimit="4.00" viewBox="0 0 86 86"><desc>SVG generated by Keynote</desc><defs></defs><g transform="matrix(1.00, 0.00, -0.00, -1.00, 0.0, 86.0)"><g><clipPath id="clip-1168"><path d="M 69.8 70.0 C 84.4 55.4 84.4 31.6 69.8 17.0 C 55.2 2.3 31.4 2.3 16.8 17.0 C 2.1 31.6 2.1 55.4 16.8 70.0 C 31.4 84.7 55.2 84.7 69.8 70.0 Z M 69.8 70.0 "></path></clipPath><g clip-path="url(#clip-1168)"><image xlink:href="../../D8898D71-BD24-4EF7-8DFE-CD7FF25ACBC0/assets/E222AC374B02824B2CCF00038F2EA19F.png" width="97.00" height="106.00" transform="matrix(1.00, 0.00, -0.00, -1.00, 5.8, 81.0)"></image></g></g><path d="M 64.0 11.0 C 78.7 25.6 78.7 49.4 64.0 64.0 C 49.4 78.7 25.6 78.7 11.0 64.0 C -3.7 49.4 -3.7 25.6 11.0 11.0 C 25.6 -3.7 49.4 -3.7 64.0 11.0 Z M 64.0 11.0 " fill="none" stroke="#FEFFFF" stroke-width="8.00" transform="matrix(1.00, 0.00, 0.00, -1.00, 5.8, 81.0)"></path></g></svg>