<?xml version="1.0" encoding="UTF-8" standalone="no"?><svg xmlns="http://www.w3.org/2000/svg" xmlns:xlink="http://www.w3.org/1999/xlink" clip-rule="evenodd" stroke-miterlimit="4.00" viewBox="0 0 144 144"><desc>SVG generated by Keynote</desc><defs><pattern id="845F8C41-38D1-46FE-9BB6-04FF64099A02" patternUnits="userSpaceOnUse" width="137" height="137" viewBox="0 0 137 137" patternTransform="matrix(0.883212, 0.000000, 0.000000, -0.883212, 9.032013, 136.689300)"><image xlink:href="../../D8898D71-BD24-4EF7-8DFE-CD7FF25ACBC0/assets/9AEBE0A7E3F9945ABCEB712DEA2E6E62.jpeg" width="137.00" height="137.00"></image></pattern></defs><g transform="matrix(1.00, 0.00, -0.00, -1.00, 0.0, 144.0)"><g><clipPath id="clip-334"><path d="M 0.0 0.1 L 143.7 0.1 L 143.7 143.7 L 0.0 143.7 Z M 0.0 0.1 "></path></clipPath><g clip-path="url(#clip-334)"><image xlink:href="../../D8898D71-BD24-4EF7-8DFE-CD7FF25ACBC0/assets/A976DCE697CEDF1FC26A7142CCC27F08.png" width="142.00" height="142.00" transform="matrix(1.00, 0.00, -0.00, -1.00, 1.0, 142.7)" opacity="0.50"></image></g></g><g><clipPath id="clip-335"><path d="M 116.3 118.3 C 140.8 93.8 140.8 54.0 116.3 29.5 C 91.7 4.9 52.0 4.9 27.4 29.5 C 2.9 54.0 2.9 93.8 27.4 118.3 C 52.0 142.8 91.7 142.8 116.3 118.3 Z M 116.3 118.3 "></path></clipPath><g clip-path="url(#clip-335)"><g><clipPath id="clip-336"><path d="M 0.0 0.1 L 143.7 0.1 L 143.7 143.7 L 0.0 143.7 Z M 0.0 0.1 "></path></clipPath><g clip-path="url(#clip-336)"><path d="M 2.9 4.9 L 140.8 4.9 L 140.8 142.8 L 2.9 142.8 Z M 2.9 4.9 " fill="url(#845F8C41-38D1-46FE-9BB6-04FF64099A02)"></path></g></g></g></g><g><clipPath id="clip-337"><path d="M 0.0 0.1 L 143.7 0.1 L 143.7 143.7 L 0.0 143.7 Z M 0.0 0.1 "></path></clipPath><g clip-path="url(#clip-337)"><path d="M 107.2 18.4 C 131.8 42.9 131.8 82.7 107.2 107.2 C 82.7 131.8 42.9 131.8 18.4 107.2 C -6.1 82.7 -6.1 42.9 18.4 18.4 C 42.9 -6.1 82.7 -6.1 107.2 18.4 Z M 107.2 18.4 " fill="none" stroke="#FEFFFF" stroke-width="10.00" transform="matrix(1.00, 0.00, 0.00, -1.00, 9.0, 136.7)"></path></g></g><g><clipPath id="clip-338"><path d="M 11.1 134.6 L 132.6 134.6 L 132.6 13.0 L 11.1 13.0 Z M 11.1 134.6 "></path></clipPath><g clip-path="url(#clip-338)"><g><clipPath id="clip-339"><path d="M 11.1 13.2 L 132.6 13.2 L 132.6 134.6 L 11.1 134.6 Z M 11.1 13.2 "></path></clipPath><g clip-path="url(#clip-339)"><path d="M 14.3 72.9 C 14.3 104.2 39.6 129.6 71.0 129.6 C 102.3 129.6 127.6 104.2 127.6 72.9 C 127.6 41.6 102.3 16.2 71.0 16.2 C 39.6 16.2 14.3 41.6 14.3 72.9 " fill="#000000"></path><path d="M 71.8 15.9 C 39.8 15.9 13.9 41.8 13.9 73.8 C 13.9 105.8 39.8 131.7 71.8 131.7 C 103.8 131.7 129.7 105.8 129.7 73.8 C 129.7 41.8 103.8 15.9 71.8 15.9 Z M 71.8 134.6 C 38.3 134.6 11.0 107.3 11.0 73.8 C 11.0 40.3 38.3 13.0 71.8 13.0 C 105.3 13.0 132.6 40.3 132.6 73.8 C 132.6 107.3 105.3 134.6 71.8 134.6 " fill="#FFFFFF"></path></g></g></g></g><g><clipPath id="clip-340"><path d="M 11.1 13.2 L 132.6 13.2 L 132.6 134.6 L 11.1 134.6 Z M 11.1 13.2 "></path></clipPath><g clip-path="url(#clip-340)"><path d="M 107.6 62.3 C 107.5 59.6 107.1 57.1 106.4 55.1 C 105.5 52.8 104.0 50.1 103.0 48.6 C 103.2 48.5 105.0 46.5 105.0 46.5 C 105.0 46.5 104.8 45.8 104.8 45.7 C 104.1 40.0 98.7 27.3 86.3 22.8 C 82.7 21.5 79.3 21.4 79.2 21.4 L 79.2 21.4 C 70.6 20.9 60.4 26.2 53.7 31.3 C 47.2 36.2 44.1 39.3 44.0 39.4 C 43.5 39.8 43.3 40.5 43.3 41.2 C 43.3 42.6 42.7 48.7 42.4 50.1 C 41.7 53.1 37.7 54.5 37.7 54.4 C 36.8 55.9 34.3 58.5 32.5 62.1 C 31.1 65.3 28.3 73.3 32.5 77.7 C 32.4 79.1 31.4 85.4 31.8 90.0 C 32.7 101.7 40.0 109.2 46.1 113.3 C 52.3 117.5 63.6 120.7 71.3 121.5 C 80.9 122.4 86.0 119.3 89.8 117.5 C 98.5 113.3 101.2 104.0 101.7 103.9 C 104.8 102.8 106.1 98.3 106.1 98.3 C 106.1 98.3 107.2 93.8 107.2 92.1 C 107.1 91.5 107.5 90.6 107.2 90.1 C 110.5 84.6 106.8 78.5 105.6 76.9 C 105.7 76.7 107.9 68.4 107.6 62.3 Z M 71.8 131.7 C 39.8 131.7 13.9 105.8 13.9 73.8 C 13.9 41.8 39.8 15.9 71.8 15.9 C 103.8 15.9 129.7 41.8 129.7 73.8 C 129.7 105.8 103.8 131.7 71.8 131.7 Z M 79.9 23.7 C 76.0 23.8 72.9 27.2 73.1 31.2 C 73.2 35.1 76.6 38.2 80.6 38.0 C 84.5 37.9 87.6 34.5 87.4 30.5 C 87.3 26.6 83.9 23.5 79.9 23.7 Z M 102.8 91.3 C 102.8 91.3 101.5 92.0 94.9 90.3 C 96.0 88.7 97.8 85.8 98.6 83.4 C 99.5 80.8 100.3 76.3 100.8 74.5 L 101.2 73.3 C 101.7 71.5 102.7 67.5 102.5 63.0 C 102.4 59.6 101.5 56.0 99.4 52.8 C 97.4 49.9 94.4 47.5 91.0 46.1 C 88.7 45.2 86.1 44.5 83.6 44.2 C 80.4 43.8 77.5 43.7 74.7 44.0 C 71.1 44.4 67.5 45.4 63.5 47.2 C 52.0 52.5 45.5 66.6 44.6 67.9 L 44.2 68.5 C 43.9 68.5 43.6 71.1 43.5 72.1 C 43.4 72.3 43.4 72.6 43.7 72.8 C 44.1 73.3 44.8 74.0 45.8 74.9 C 48.4 77.2 52.2 80.3 52.2 80.3 C 56.7 83.5 64.4 90.5 76.4 94.1 C 86.6 97.2 92.4 97.7 100.1 97.5 C 100.7 97.5 101.6 97.4 102.7 97.1 C 103.3 96.9 103.9 96.7 104.5 96.4 C 104.7 96.2 104.8 96.1 105.0 96.0 C 104.8 96.7 104.5 97.4 104.8 96.8 C 104.2 98.3 103.2 101.9 101.4 102.5 C 99.6 103.1 99.9 106.2 97.6 108.9 C 97.0 109.6 96.5 110.7 93.2 113.5 C 90.5 115.8 88.2 116.4 89.4 115.4 C 91.3 113.9 91.2 113.1 91.4 112.8 C 91.1 113.2 88.5 115.6 86.7 116.8 C 85.1 117.8 81.5 119.3 77.5 119.6 C 72.9 119.8 76.7 117.0 77.1 116.7 C 78.2 115.8 78.7 114.5 78.0 114.9 C 77.9 115.0 77.7 115.2 77.4 115.4 C 76.5 116.0 75.4 117.0 72.7 118.2 C 70.1 119.4 68.4 119.4 66.5 119.0 C 62.5 118.2 63.0 118.0 64.3 117.4 C 66.4 116.4 66.0 116.7 67.8 115.9 C 70.9 114.5 71.5 112.5 70.9 112.8 C 68.5 114.1 67.4 114.6 65.1 115.2 C 63.2 115.8 62.3 116.0 60.8 116.0 C 57.9 115.8 54.8 114.9 51.7 113.2 C 48.2 111.3 47.1 110.3 47.4 109.0 C 47.6 108.4 51.2 106.6 51.8 106.3 C 52.8 105.8 54.6 103.7 53.6 104.3 C 51.2 105.4 46.2 108.3 41.7 105.9 C 39.2 104.6 39.2 102.5 39.5 101.6 C 39.9 100.6 38.0 101.1 35.9 98.3 C 33.8 95.5 33.5 91.2 33.9 86.7 C 34.3 83.1 35.5 79.2 35.6 78.1 C 35.7 77.0 35.8 75.7 34.2 74.5 C 33.4 73.9 33.3 73.1 33.3 71.8 C 33.6 72.5 33.9 73.1 34.4 73.3 C 35.8 73.9 39.7 69.1 40.7 66.8 C 41.7 64.6 43.7 57.2 41.5 56.0 C 41.1 55.7 40.8 55.6 40.4 55.6 C 41.2 55.2 41.4 55.2 42.2 55.3 C 43.1 55.4 44.1 55.5 44.4 55.6 C 45.4 56.5 45.1 59.4 45.1 59.4 C 45.1 59.4 48.3 55.0 53.6 50.7 C 58.9 46.3 68.6 40.0 83.0 41.7 C 93.3 42.9 99.9 49.1 99.9 49.1 C 97.6 46.1 90.7 39.4 78.1 38.6 C 68.1 37.9 61.0 41.3 56.2 44.6 C 55.1 44.0 53.0 42.9 52.8 40.4 C 52.5 33.3 66.2 26.1 66.5 25.4 C 70.4 23.6 75.8 22.6 79.7 23.0 C 96.0 24.7 102.6 40.7 103.2 46.1 L 100.7 48.2 C 100.7 48.2 103.2 51.1 104.6 55.0 C 107.1 61.9 105.8 70.1 104.5 74.6 C 104.5 74.6 103.8 76.8 103.5 77.7 C 104.5 79.1 105.8 81.3 106.1 83.9 C 106.4 86.9 104.8 90.0 103.7 91.0 C 103.5 91.2 103.2 91.3 102.8 91.3 Z M 94.1 84.0 C 93.6 84.4 87.7 84.5 82.8 83.4 C 71.4 80.9 66.2 77.4 63.5 74.9 L 63.5 74.9 C 68.9 76.6 77.5 79.3 81.5 80.3 C 85.9 81.4 91.6 82.1 94.5 82.4 C 94.7 82.4 94.7 82.5 94.7 82.8 C 94.5 83.4 94.3 83.9 94.1 84.0 Z M 81.0 34.3 C 78.1 34.4 75.6 32.3 75.5 29.5 C 75.4 26.8 77.7 24.5 80.5 24.3 C 83.4 24.2 85.9 26.3 86.0 29.1 C 86.1 31.8 83.9 34.2 81.0 34.3 Z M 36.0 62.7 C 35.0 64.4 35.4 65.4 35.4 65.4 C 35.4 65.4 34.3 64.2 35.3 62.3 C 36.3 60.4 37.7 61.2 37.7 61.2 C 37.7 61.2 36.9 61.3 36.0 62.7 Z M 100.7 95.2 C 100.7 95.2 100.1 95.2 100.1 94.4 C 100.1 93.9 100.3 93.3 100.9 93.4 C 98.5 92.6 99.1 96.3 100.7 95.2 Z M 90.8 94.1 C 90.8 94.1 90.2 94.0 90.3 93.2 C 90.3 92.7 90.6 92.2 91.2 92.3 C 89.0 91.2 89.0 95.0 90.8 94.1 Z M 79.3 91.3 C 79.3 91.3 78.7 91.2 78.8 90.4 C 78.9 89.9 79.2 89.4 79.8 89.6 C 77.6 88.4 77.5 92.2 79.3 91.3 Z M 67.1 86.6 C 67.1 86.6 66.6 86.4 66.9 85.6 C 67.0 85.2 67.4 84.8 68.0 85.0 C 66.1 83.5 65.3 87.1 67.1 86.6 Z M 57.1 80.4 C 57.1 80.4 56.7 80.1 57.0 79.5 C 57.2 79.2 57.6 78.8 58.0 79.1 C 56.6 77.5 55.4 80.6 57.1 80.4 Z M 100.6 96.3 C 90.2 96.5 84.0 95.3 76.4 92.7 C 65.9 89.5 56.8 82.4 51.9 78.9 C 51.9 78.9 48.8 76.5 46.1 74.2 C 45.5 73.7 44.9 73.1 44.4 72.6 C 44.3 72.5 44.1 72.4 44.1 71.9 C 44.2 71.4 44.3 70.6 44.4 70.1 C 44.4 69.8 44.7 69.5 45.1 69.9 C 45.8 70.3 46.6 70.8 47.4 71.4 C 49.7 72.9 52.2 74.5 52.2 74.5 C 59.9 79.3 65.8 83.2 78.2 87.5 C 86.6 90.5 92.8 91.5 99.9 92.4 C 103.2 92.7 104.6 92.1 105.1 91.9 C 105.2 92.0 105.2 92.1 105.3 92.2 C 105.2 93.2 105.1 94.8 105.0 94.9 L 105.0 95.0 C 104.9 95.2 104.5 95.4 104.0 95.6 C 103.2 95.9 102.1 96.2 100.6 96.3 Z M 98.5 53.4 C 101.8 58.2 101.7 64.3 101.1 68.6 C 100.7 66.1 99.7 65.0 97.8 62.7 C 95.5 59.9 95.5 55.7 94.9 53.6 C 94.4 52.0 93.6 49.6 93.2 48.5 C 95.3 49.8 97.2 51.5 98.5 53.4 " fill="#F7200D"></path><path d="M 94.1 84.0 C 93.6 84.4 87.7 84.5 82.8 83.4 C 71.4 80.9 66.2 77.4 63.5 74.9 L 63.5 74.9 C 68.9 76.6 77.5 79.3 81.5 80.3 C 85.9 81.4 91.6 82.1 94.5 82.4 C 94.7 82.4 94.7 82.5 94.7 82.8 C 94.5 83.4 94.3 83.9 94.1 84.0 Z M 81.0 34.3 C 78.1 34.4 75.6 32.3 75.5 29.5 C 75.4 26.8 77.7 24.5 80.5 24.3 C 83.4 24.2 85.9 26.3 86.0 29.1 C 86.1 31.8 83.9 34.2 81.0 34.3 Z M 100.7 95.2 C 100.7 95.2 100.1 95.2 100.1 94.4 C 100.1 93.9 100.3 93.3 100.9 93.4 C 98.5 92.6 99.1 96.3 100.7 95.2 Z M 90.8 94.1 C 90.8 94.1 90.2 94.0 90.3 93.2 C 90.3 92.7 90.6 92.2 91.2 92.3 C 89.0 91.2 89.0 95.0 90.8 94.1 Z M 79.3 91.3 C 79.3 91.3 78.7 91.2 78.8 90.4 C 78.9 89.9 79.2 89.4 79.8 89.6 C 77.6 88.4 77.5 92.2 79.3 91.3 Z M 67.1 86.6 C 67.1 86.6 66.6 86.4 66.9 85.6 C 67.0 85.2 67.4 84.8 68.0 85.0 C 66.1 83.5 65.3 87.1 67.1 86.6 Z M 57.1 80.4 C 57.1 80.4 56.7 80.1 57.0 79.5 C 57.2 79.2 57.6 78.8 58.0 79.1 C 56.6 77.5 55.4 80.6 57.1 80.4 Z M 100.6 96.3 C 90.2 96.5 84.0 95.3 76.4 92.7 C 65.9 89.5 56.8 82.4 51.9 78.9 C 51.9 78.9 48.8 76.5 46.1 74.2 C 45.5 73.7 44.9 73.1 44.4 72.6 C 44.3 72.5 44.1 72.4 44.1 71.9 C 44.2 71.4 44.3 70.6 44.4 70.1 C 44.4 69.8 44.7 69.5 45.1 69.9 C 45.8 70.3 46.6 70.8 47.4 71.4 C 49.7 72.9 52.2 74.5 52.2 74.5 C 59.9 79.3 65.8 83.2 78.2 87.5 C 86.6 90.5 92.8 91.5 99.9 92.4 C 103.2 92.7 104.6 92.1 105.1 91.9 C 105.2 92.0 105.2 92.1 105.3 92.2 C 105.2 93.2 105.1 94.8 105.0 94.9 L 105.0 95.0 C 104.9 95.2 104.5 95.4 104.0 95.6 C 103.2 95.9 102.1 96.2 100.6 96.3 Z M 79.9 23.7 C 76.0 23.8 72.9 27.2 73.1 31.2 C 73.2 35.1 76.6 38.2 80.6 38.0 C 84.5 37.9 87.6 34.5 87.4 30.5 C 87.3 26.6 83.9 23.5 79.9 23.7 Z M 103.7 91.0 C 103.5 91.2 103.2 91.3 102.8 91.3 C 102.8 91.3 101.5 92.0 94.9 90.3 C 96.0 88.7 97.8 85.8 98.6 83.4 C 99.5 80.8 100.3 76.3 100.8 74.5 L 101.2 73.3 C 101.7 71.5 102.7 67.5 102.5 63.0 C 102.4 59.6 101.5 56.0 99.4 52.8 C 97.4 49.9 94.4 47.5 91.0 46.1 C 88.7 45.2 86.1 44.5 83.6 44.2 C 80.4 43.8 77.5 43.7 74.7 44.0 C 71.1 44.4 67.5 45.4 63.5 47.2 C 52.0 52.5 45.5 66.6 44.6 67.9 L 44.2 68.5 C 43.9 68.5 43.6 71.1 43.5 72.1 C 43.4 72.3 43.4 72.6 43.7 72.8 C 44.1 73.3 44.8 74.0 45.8 74.9 C 48.4 77.2 52.2 80.3 52.2 80.3 C 56.7 83.5 64.4 90.5 76.4 94.1 C 86.6 97.2 92.4 97.7 100.1 97.5 C 100.7 97.5 101.6 97.4 102.7 97.1 C 103.3 96.9 103.9 96.7 104.5 96.4 C 104.7 96.2 104.8 96.1 105.0 96.0 C 104.8 96.7 104.5 97.4 104.8 96.8 C 104.2 98.3 103.2 101.9 101.4 102.5 C 99.6 103.1 99.9 106.2 97.6 108.9 C 97.0 109.6 96.5 110.7 93.2 113.5 C 90.5 115.8 88.2 116.4 89.4 115.4 C 91.3 113.9 91.2 113.1 91.4 112.8 C 91.1 113.2 88.5 115.6 86.7 116.8 C 85.1 117.8 81.5 119.3 77.5 119.6 C 72.9 119.8 76.7 117.0 77.1 116.7 C 78.2 115.8 78.7 114.5 78.0 114.9 C 77.9 115.0 77.7 115.2 77.4 115.4 C 76.5 116.0 75.4 117.0 72.7 118.2 C 70.1 119.4 68.4 119.4 66.5 119.0 C 62.5 118.2 63.0 118.0 64.3 117.4 C 66.4 116.4 66.0 116.7 67.8 115.9 C 70.9 114.5 71.5 112.5 70.9 112.8 C 68.5 114.1 67.4 114.6 65.1 115.2 C 63.2 115.8 62.3 116.0 60.8 116.0 C 57.9 115.8 54.8 114.9 51.7 113.2 C 48.2 111.3 47.1 110.3 47.4 109.0 C 47.6 108.4 51.2 106.6 51.8 106.3 C 52.8 105.8 54.6 103.7 53.6 104.3 C 51.2 105.4 46.2 108.3 41.7 105.9 C 39.2 104.6 39.2 102.5 39.5 101.6 C 39.9 100.6 38.0 101.1 35.9 98.3 C 33.8 95.5 33.5 91.2 33.9 86.7 C 34.3 83.1 35.5 79.2 35.6 78.1 C 35.7 77.0 35.8 75.7 34.2 74.5 C 33.4 73.9 33.3 73.1 33.3 71.8 C 33.6 72.5 33.9 73.1 34.4 73.3 C 35.8 73.9 39.7 69.1 40.7 66.8 C 41.7 64.6 43.7 57.2 41.5 56.0 C 41.1 55.7 40.8 55.6 40.4 55.6 C 41.2 55.2 41.4 55.2 42.2 55.3 C 43.1 55.4 44.1 55.5 44.4 55.6 C 45.4 56.5 45.1 59.4 45.1 59.4 C 45.1 59.4 48.3 55.0 53.6 50.7 C 58.9 46.3 68.6 40.0 83.0 41.7 C 93.3 42.9 99.9 49.1 99.9 49.1 C 97.6 46.1 90.7 39.4 78.1 38.6 C 68.1 37.9 61.0 41.3 56.2 44.6 C 55.1 44.0 53.0 42.9 52.8 40.4 C 52.5 33.3 66.2 26.1 66.5 25.4 C 70.4 23.6 75.8 22.6 79.7 23.0 C 96.0 24.7 102.6 40.7 103.2 46.1 L 100.7 48.2 C 100.7 48.2 103.2 51.1 104.6 55.0 C 107.1 61.9 105.8 70.1 104.5 74.6 C 104.5 74.6 103.8 76.8 103.5 77.7 C 104.5 79.1 105.8 81.3 106.1 83.9 C 106.4 86.9 104.8 90.0 103.7 91.0 Z M 98.5 53.4 C 101.8 58.2 101.7 64.3 101.1 68.6 C 100.7 66.1 99.7 65.0 97.8 62.7 C 95.5 59.9 95.5 55.7 94.9 53.6 C 94.4 52.0 93.6 49.6 93.2 48.5 C 95.3 49.8 97.2 51.5 98.5 53.4 Z M 36.0 62.7 C 35.0 64.4 35.4 65.4 35.4 65.4 C 35.4 65.4 34.3 64.2 35.3 62.3 C 36.3 60.4 37.7 61.2 37.7 61.2 C 37.7 61.2 36.9 61.3 36.0 62.7 " fill="#FFFFFF"></path><path d="M 90.5 47.1 C 90.6 47.2 90.7 47.2 90.8 47.3 C 90.6 47.2 90.4 47.1 90.2 47.0 C 90.3 47.0 90.4 47.1 90.5 47.1 " fill="#000000"></path><path d="M 84.7 50.5 C 85.6 51.0 86.5 51.5 87.4 52.0 C 87.5 52.1 87.6 52.1 87.7 52.2 C 87.5 52.1 87.3 51.9 87.1 51.8 C 86.5 51.5 85.8 51.1 85.1 50.7 C 85.0 50.6 84.8 50.6 84.7 50.5 " fill="#FA0F0B"></path><path d="M 95.2 78.0 C 94.6 77.4 94.2 77.0 93.5 77.4 C 92.8 77.8 93.7 78.5 91.7 77.9 C 90.6 77.6 89.9 77.5 88.7 76.8 C 86.7 75.7 85.9 74.9 85.9 74.9 C 85.9 74.9 88.6 76.0 89.5 76.3 C 90.6 76.7 91.9 77.1 92.4 76.8 C 92.8 76.6 93.0 75.1 92.7 74.8 C 92.5 74.4 92.3 75.2 91.3 75.4 C 90.7 75.5 90.0 75.5 89.4 75.4 C 89.7 75.1 89.4 74.6 89.1 73.9 C 88.9 73.1 87.7 73.2 87.1 73.2 C 86.5 73.2 86.1 73.5 86.1 74.0 L 86.3 74.5 L 86.2 74.5 L 84.8 74.2 C 84.8 74.2 84.5 74.3 84.7 74.4 C 85.2 75.1 86.5 76.9 87.7 77.7 C 89.9 79.3 91.5 80.4 92.0 80.4 C 93.1 80.4 95.7 78.5 95.2 78.0 Z M 88.4 54.7 C 87.3 54.6 85.7 53.6 84.2 53.6 C 82.8 53.5 78.5 51.9 76.5 52.9 C 75.6 53.3 78.0 53.1 78.6 53.2 C 79.2 53.3 80.9 53.2 81.7 53.7 C 82.6 54.1 83.6 55.1 83.9 54.8 C 84.3 54.4 84.8 53.8 85.4 54.0 C 86.1 54.2 86.1 55.5 86.6 55.5 C 87.1 55.5 88.4 55.3 89.2 55.5 C 90.1 55.7 91.1 56.4 91.1 56.4 C 91.1 56.4 89.4 54.8 88.4 54.7 Z M 88.3 51.6 C 87.7 51.0 86.9 50.9 86.1 50.7 C 85.2 50.5 84.4 50.0 83.4 49.9 C 82.6 49.8 81.7 49.9 80.9 50.0 L 80.9 50.0 L 81.2 50.5 C 82.5 50.4 83.8 50.3 85.0 50.8 C 85.9 51.3 86.8 51.8 87.6 52.3 C 87.7 52.3 87.8 52.4 87.9 52.4 C 88.4 52.8 88.8 53.1 89.3 53.4 C 89.3 52.8 88.6 52.0 88.3 51.6 Z M 75.7 70.4 C 75.7 70.8 74.8 71.2 74.3 71.2 C 73.9 71.3 73.7 71.3 73.3 71.3 L 72.1 71.0 L 72.0 71.0 C 72.2 70.8 72.2 70.4 72.3 70.1 C 72.4 69.6 72.0 69.2 71.5 69.0 C 70.9 68.9 70.8 68.9 70.2 68.9 C 69.4 68.9 68.8 69.1 68.8 69.1 C 68.8 69.4 68.9 69.7 69.2 69.9 C 68.5 69.8 67.2 69.6 66.5 69.3 C 66.5 69.3 67.7 70.3 68.8 70.6 C 69.9 71.0 72.4 71.7 73.5 72.0 C 73.9 72.1 74.8 72.2 75.0 72.2 C 75.4 72.2 75.9 72.0 75.9 72.0 L 74.7 71.7 C 75.1 71.5 75.5 71.2 75.8 71.0 C 76.5 70.5 76.4 70.3 76.1 69.9 C 75.9 69.6 75.7 69.9 75.7 70.4 Z M 62.6 71.9 C 62.6 71.9 66.8 73.0 68.8 73.9 C 70.9 74.8 74.1 74.6 75.9 74.2 C 77.0 73.9 76.3 73.9 76.2 73.5 C 76.1 72.7 76.2 72.9 75.2 72.8 C 74.3 72.7 74.5 72.9 73.3 72.8 C 72.1 72.6 69.8 72.2 69.1 71.9 C 68.3 71.5 64.8 70.1 64.0 70.1 C 63.3 70.1 62.6 71.9 62.6 71.9 Z M 78.7 62.7 C 78.7 62.7 79.0 61.1 79.7 60.1 C 80.4 59.1 80.8 59.0 80.8 59.0 C 80.8 59.0 79.3 59.4 78.7 59.9 C 78.2 60.4 78.7 62.7 78.7 62.7 Z M 86.7 68.5 C 86.2 68.0 85.8 68.5 85.2 69.7 C 84.8 70.4 84.7 73.0 84.7 73.0 C 84.7 73.0 85.7 71.7 85.8 70.9 C 85.9 70.1 86.8 68.6 86.7 68.5 Z M 87.2 61.2 C 86.6 60.9 86.5 60.3 86.0 60.2 C 85.1 59.9 86.4 61.2 86.9 61.6 C 87.4 62.1 87.4 62.1 87.4 62.1 C 87.4 62.1 87.9 62.8 87.3 64.2 C 86.8 65.7 85.2 66.8 85.9 66.7 C 86.6 66.5 87.1 66.3 87.6 65.5 C 88.2 64.8 88.3 63.9 88.3 63.9 C 88.3 63.9 88.5 62.8 88.4 62.4 C 88.3 61.0 88.0 60.8 87.5 60.5 C 87.0 60.3 88.2 61.8 87.2 61.2 Z M 83.1 61.0 C 83.8 61.0 84.8 60.1 84.7 59.8 C 84.7 59.8 84.1 60.4 83.2 60.2 C 81.9 60.0 81.5 60.4 81.5 60.4 C 82.3 60.8 82.4 61.1 83.1 61.0 Z M 95.6 77.5 C 95.6 78.2 95.4 79.9 95.1 81.3 C 95.1 81.4 95.1 81.6 94.7 81.6 C 91.8 81.4 86.1 80.6 81.7 79.5 C 77.7 78.5 67.9 75.7 62.6 74.0 C 62.2 73.8 61.8 73.5 61.5 73.1 C 59.3 69.6 60.3 69.3 61.1 65.3 C 61.9 61.3 68.2 48.2 69.2 47.1 C 69.4 46.9 70.1 46.5 70.9 46.2 C 75.4 45.2 80.2 45.0 83.7 45.5 C 86.0 45.8 88.4 46.4 90.5 47.3 C 90.7 47.3 90.9 47.4 91.1 47.5 C 91.2 47.6 91.4 47.6 91.5 47.7 C 91.7 48.1 91.7 48.5 91.8 48.7 C 92.1 49.6 94.1 55.0 94.4 56.7 C 94.8 58.3 95.7 63.3 96.0 66.0 C 96.4 68.6 95.5 76.3 95.6 77.5 " fill="#FFFFFF"></path><path d="M 87.2 73.7 C 87.4 73.7 87.6 73.8 87.6 74.0 C 87.6 74.2 87.4 74.3 87.3 74.3 C 87.1 74.3 87.0 74.2 87.0 74.0 C 87.0 73.9 87.1 73.7 87.2 73.7 " fill="#FFFFFF"></path><path d="M 70.8 69.8 C 70.7 69.6 70.7 69.4 70.8 69.3 C 70.9 69.2 71.1 69.3 71.2 69.5 C 71.3 69.7 71.3 69.9 71.2 69.9 C 71.1 70.0 71.0 69.9 70.8 69.8 " fill="#FFFFFF"></path><path d="M 91.3 47.4 L 91.3 47.4 C 91.1 47.4 91.0 47.3 90.8 47.3 C 91.0 47.3 91.1 47.4 91.3 47.4 " fill="#000000"></path></g></g></g></svg>