<?xml version="1.0" encoding="UTF-8" standalone="no"?><svg xmlns="http://www.w3.org/2000/svg" xmlns:xlink="http://www.w3.org/1999/xlink" clip-rule="evenodd" stroke-miterlimit="4.00" viewBox="0 0 86 86"><desc>SVG generated by Keynote</desc><defs><pattern id="F73CC04D-DB0E-45F7-B610-A6F78E34EDDD" patternUnits="userSpaceOnUse" width="84" height="52" viewBox="0 0 84 52" patternTransform="matrix(0.345238, 0.000000, 0.000000, -0.346154, 5.887329, 80.724120)"><image xlink:href="../../D8898D71-BD24-4EF7-8DFE-CD7FF25ACBC0/assets/C14209068D51DCCA0D3C86FF96D1FD4A.png" width="84.00" height="52.00"></image></pattern></defs><g transform="matrix(1.00, 0.00, -0.00, -1.00, 0.0, 86.0)"><g><clipPath id="clip-985"><path d="M 69.9 69.7 C 84.5 55.1 84.5 31.4 69.9 16.7 C 55.3 2.1 31.5 2.1 16.9 16.7 C 2.2 31.4 2.2 55.1 16.9 69.7 C 31.5 84.4 55.3 84.4 69.9 69.7 Z M 69.9 69.7 "></path></clipPath><g clip-path="url(#clip-985)"><path d="M 2.2 2.1 L 84.5 2.1 L 84.5 84.4 L 2.2 84.4 Z M 2.2 2.1 " fill="url(#F73CC04D-DB0E-45F7-B610-A6F78E34EDDD)"></path></g></g><path d="M 64.0 11.0 C 78.7 25.6 78.7 49.4 64.0 64.0 C 49.4 78.7 25.6 78.7 11.0 64.0 C -3.7 49.4 -3.7 25.6 11.0 11.0 C 25.6 -3.7 49.4 -3.7 64.0 11.0 Z M 64.0 11.0 " fill="none" stroke="#FEFFFF" stroke-width="8.00" transform="matrix(1.00, 0.00, 0.00, -1.00, 5.9, 80.7)"></path></g></svg>