<?xml version="1.0" encoding="UTF-8" standalone="no"?><svg xmlns="http://www.w3.org/2000/svg" xmlns:xlink="http://www.w3.org/1999/xlink" clip-rule="evenodd" stroke-miterlimit="4.00" viewBox="0 0 159 28"><desc>SVG generated by Keynote</desc><defs></defs><g transform="matrix(1.00, 0.00, -0.00, -1.00, 0.0, 28.0)"><text xml:space="preserve" font-family="MuseoSans-900" font-weight="bold" font-size="32.0" fill="#919191" transform="matrix(1.00, 0.00, -0.00, -1.00, 1.0, 3.0)">t</text><text xml:space="preserve" font-family="MuseoSans-900" font-weight="bold" font-size="32.0" fill="#919191" transform="matrix(1.00, 0.00, -0.00, -1.00, 14.3, 3.0)">h</text><text xml:space="preserve" font-family="MuseoSans-900" font-weight="bold" font-size="32.0" fill="#919191" transform="matrix(1.00, 0.00, -0.00, -1.00, 34.6, 3.0)">e</text><text xml:space="preserve" font-family="MuseoSans-900" font-weight="bold" font-size="32.0" fill="#919191" transform="matrix(1.00, 0.00, -0.00, -1.00, 52.6, 3.0)"> </text><text xml:space="preserve" font-family="MuseoSans-900" font-weight="bold" font-size="32.0" fill="#919191" transform="matrix(1.00, 0.00, -0.00, -1.00, 60.0, 3.0)">f</text><text xml:space="preserve" font-family="MuseoSans-900" font-weight="bold" font-size="32.0" fill="#919191" transform="matrix(1.00, 0.00, -0.00, -1.00, 72.3, 3.0)">u</text><text xml:space="preserve" font-family="MuseoSans-900" font-weight="bold" font-size="32.0" fill="#919191" transform="matrix(1.00, 0.00, -0.00, -1.00, 92.5, 3.0)">t</text><text xml:space="preserve" font-family="MuseoSans-900" font-weight="bold" font-size="32.0" fill="#919191" transform="matrix(1.00, 0.00, -0.00, -1.00, 105.7, 3.0)">u</text><text xml:space="preserve" font-family="MuseoSans-900" font-weight="bold" font-size="32.0" fill="#919191" transform="matrix(1.00, 0.00, -0.00, -1.00, 125.9, 3.0)">r</text><text xml:space="preserve" font-family="MuseoSans-900" font-weight="bold" font-size="32.0" fill="#919191" transform="matrix(1.00, 0.00, -0.00, -1.00, 139.7, 3.0)">e</text></g></svg>