<?xml version="1.0" encoding="UTF-8" standalone="no"?><svg xmlns="http://www.w3.org/2000/svg" xmlns:xlink="http://www.w3.org/1999/xlink" clip-rule="evenodd" stroke-miterlimit="4.00" viewBox="0 0 139 138"><desc>SVG generated by Keynote</desc><defs></defs><g transform="matrix(1.00, 0.00, -0.00, -1.00, 0.0, 138.0)"><g><clipPath id="clip-524"><path d="M 113.8 113.3 C 138.3 88.8 138.3 49.0 113.8 24.5 C 89.2 -0.1 49.5 -0.1 24.9 24.5 C 0.4 49.0 0.4 88.8 24.9 113.3 C 49.5 137.8 89.2 137.8 113.8 113.3 Z M 113.8 113.3 "></path></clipPath><g clip-path="url(#clip-524)"><g><clipPath id="clip-525"><path d="M 0.5 0.1 L 138.2 0.1 L 138.2 137.7 L 0.5 137.7 Z M 0.5 0.1 "></path></clipPath><g clip-path="url(#clip-525)"><image xlink:href="../../D8898D71-BD24-4EF7-8DFE-CD7FF25ACBC0/assets/D2941D8E2B2A0D16EE53CCA1771677F4.jpeg" width="145.00" height="145.00" transform="matrix(1.00, 0.00, -0.00, -1.00, 6.5, 131.7)"></image></g></g></g></g><g><clipPath id="clip-526"><path d="M 0.5 0.1 L 138.2 0.1 L 138.2 137.7 L 0.5 137.7 Z M 0.5 0.1 "></path></clipPath><g clip-path="url(#clip-526)"><path d="M 107.2 18.4 C 131.8 42.9 131.8 82.7 107.2 107.2 C 82.7 131.8 42.9 131.8 18.4 107.2 C -6.1 82.7 -6.1 42.9 18.4 18.4 C 42.9 -6.1 82.7 -6.1 107.2 18.4 Z M 107.2 18.4 " fill="none" stroke="#FEFFFF" stroke-width="10.00" transform="matrix(1.00, 0.00, 0.00, -1.00, 6.5, 131.7)"></path></g></g><g><clipPath id="clip-527"><path d="M 9.6 9.2 L 129.0 9.2 L 129.0 128.6 L 9.6 128.6 Z M 9.6 9.2 "></path></clipPath><g clip-path="url(#clip-527)"><image xlink:href="../../D8898D71-BD24-4EF7-8DFE-CD7FF25ACBC0/assets/F19C3CD95C0F783AAE61B665146A0D03.png" width="120.00" height="120.00" transform="matrix(0.99, 0.00, -0.00, -1.00, 10.0, 129.0)"></image></g></g></g></svg>