<?xml version="1.0" encoding="UTF-8" standalone="no"?><svg xmlns="http://www.w3.org/2000/svg" xmlns:xlink="http://www.w3.org/1999/xlink" clip-rule="evenodd" stroke-miterlimit="4.00" viewBox="0 0 501 352"><desc>SVG generated by Keynote</desc><defs><linearGradient id="gradSh1.4" x1="0.0" y1="0.0" x2="100.0" y2="0.0" gradientUnits="userSpaceOnUse" gradientTransform="matrix(0.00, -3.21, -4.15, 0.00, 278.1, 337.0)"><stop offset="0.00000" stop-color="#FBF7E9"></stop><stop offset="0.00806" stop-color="#FBF6E9"></stop><stop offset="1.00000" stop-color="#C3C2B7"></stop></linearGradient></defs><g transform="matrix(1.00, 0.00, -0.00, -1.00, 0.0, 352.0)"><g><clipPath id="clip-260"><path d="M 55.7 1.0 L 500.4 1.0 L 500.4 352.0 L 55.7 352.0 Z M 55.7 1.0 "></path></clipPath><g clip-path="url(#clip-260)"><image xlink:href="B58E6FE26344E2AA16B017CC8CF47DC3.png" width="443.00" height="349.00" transform="matrix(1.00, 0.00, -0.00, -1.00, 56.7, 351.0)" opacity="0.90"></image></g></g><g><clipPath id="clip-261"><path d="M 55.7 1.0 L 500.4 1.0 L 500.4 352.0 L 55.7 352.0 Z M 55.7 1.0 "></path></clipPath><g clip-path="url(#clip-261)"><g opacity="0.90"><g><clipPath id="clip-262"><path d="M 71.7 336.0 L 484.4 336.0 L 484.4 17.0 L 71.7 17.0 Z M 71.7 336.0 "></path></clipPath><g clip-path="url(#clip-262)"><g><clipPath id="clip-263"><path d="M 66.0 11.0 L 490.0 11.0 L 490.0 341.0 L 66.0 341.0 Z M 66.0 11.0 "></path></clipPath><g clip-path="url(#clip-263)"><path d="M 66.0 11.0 L 490.0 11.0 L 490.0 341.0 L 66.0 341.0 Z M 66.0 11.0 " fill="url(#gradSh1.4)"></path></g></g></g></g><g><clipPath id="clip-264"><path d="M 66.0 11.0 L 490.0 11.0 L 490.0 341.0 L 66.0 341.0 Z M 66.0 11.0 "></path></clipPath><g clip-path="url(#clip-264)"><path d="M 0.0 0.0 L 412.7 0.0 L 412.7 319.0 L 0.0 319.0 Z M 0.0 0.0 " fill="none" stroke="#FEFFFF" stroke-width="10.00" transform="matrix(1.00, 0.00, 0.00, -1.00, 71.7, 336.0)"></path></g></g></g></g></g><g opacity="0.90"><g><clipPath id="clip-265"><path d="M 76.7 22.0 L 479.4 22.0 L 479.4 331.0 L 76.7 331.0 Z M 76.7 22.0 "></path></clipPath><g clip-path="url(#clip-265)"><text xml:space="preserve" font-family="MuseoSans-700" font-weight="bold" font-size="24.0" fill="#585852" transform="matrix(1.00, 0.00, -0.00, -1.00, 97.0, 288.0)">I</text><text xml:space="preserve" font-family="MuseoSans-700" font-weight="bold" font-size="24.0" fill="#585852" transform="matrix(1.00, 0.00, -0.00, -1.00, 104.4, 288.0)">n</text><text xml:space="preserve" font-family="MuseoSans-700" font-weight="bold" font-size="24.0" fill="#585852" transform="matrix(1.00, 0.00, -0.00, -1.00, 119.1, 288.0)">c</text><text xml:space="preserve" font-family="MuseoSans-700" font-weight="bold" font-size="24.0" fill="#585852" transform="matrix(1.00, 0.00, -0.00, -1.00, 132.2, 288.0)">e</text><text xml:space="preserve" font-family="MuseoSans-700" font-weight="bold" font-size="24.0" fill="#585852" transform="matrix(1.00, 0.00, -0.00, -1.00, 145.5, 288.0)">p</text><text xml:space="preserve" font-family="MuseoSans-700" font-weight="bold" font-size="24.0" fill="#585852" transform="matrix(1.00, 0.00, -0.00, -1.00, 160.2, 288.0)">t</text><text xml:space="preserve" font-family="MuseoSans-700" font-weight="bold" font-size="24.0" fill="#585852" transform="matrix(1.00, 0.00, -0.00, -1.00, 169.2, 288.0)">i</text><text xml:space="preserve" font-family="MuseoSans-700" font-weight="bold" font-size="24.0" fill="#585852" transform="matrix(1.00, 0.00, -0.00, -1.00, 175.6, 288.0)">o</text><text xml:space="preserve" font-family="MuseoSans-700" font-weight="bold" font-size="24.0" fill="#585852" transform="matrix(1.00, 0.00, -0.00, -1.00, 190.6, 288.0)">n</text><text xml:space="preserve" font-family="MuseoSans-700" font-weight="bold" font-size="24.0" fill="#585852" transform="matrix(1.00, 0.00, -0.00, -1.00, 205.3, 288.0)"> </text><text xml:space="preserve" font-family="MuseoSans-500" font-size="20.0" fill="#585852" transform="matrix(1.00, 0.00, -0.00, -1.00, 97.0, 263.0)">Y</text><text xml:space="preserve" font-family="MuseoSans-500" font-size="20.0" fill="#585852" transform="matrix(1.00, 0.00, -0.00, -1.00, 108.8, 263.0)">N</text><text xml:space="preserve" font-family="MuseoSans-500" font-size="20.0" fill="#585852" transform="matrix(1.00, 0.00, -0.00, -1.00, 123.9, 263.0)"> </text><text xml:space="preserve" font-family="MuseoSans-500" font-size="20.0" fill="#585852" transform="matrix(1.00, 0.00, -0.00, -1.00, 129.0, 263.0)">+</text><text xml:space="preserve" font-family="MuseoSans-500" font-size="20.0" fill="#585852" transform="matrix(1.00, 0.00, -0.00, -1.00, 142.7, 263.0)">3</text><text xml:space="preserve" font-family="MuseoSans-500" font-size="20.0" fill="#585852" transform="matrix(1.00, 0.00, -0.00, -1.00, 154.0, 263.0)">9</text><text xml:space="preserve" font-family="MuseoSans-500" font-size="20.0" fill="#585852" transform="matrix(1.00, 0.00, -0.00, -1.00, 166.0, 263.0)"> </text><text xml:space="preserve" font-family="MuseoSans-300" font-size="20.0" fill="#585852" transform="matrix(1.00, 0.00, -0.00, -1.00, 97.0, 215.0)">Y</text><text xml:space="preserve" font-family="MuseoSans-300" font-size="20.0" fill="#585852" transform="matrix(1.00, 0.00, -0.00, -1.00, 107.8, 215.0)">u</text><text xml:space="preserve" font-family="MuseoSans-300" font-size="20.0" fill="#585852" transform="matrix(1.00, 0.00, -0.00, -1.00, 119.6, 215.0)">r</text><text xml:space="preserve" font-family="MuseoSans-300" font-size="20.0" fill="#585852" transform="matrix(1.00, 0.00, -0.00, -1.00, 126.7, 215.0)">i</text><text xml:space="preserve" font-family="MuseoSans-300" font-size="20.0" fill="#585852" transform="matrix(1.00, 0.00, -0.00, -1.00, 131.3, 215.0)">'</text><text xml:space="preserve" font-family="MuseoSans-300" font-size="20.0" fill="#585852" transform="matrix(1.00, 0.00, -0.00, -1.00, 135.3, 215.0)">s</text><text xml:space="preserve" font-family="MuseoSans-300" font-size="20.0" fill="#585852" transform="matrix(1.00, 0.00, -0.00, -1.00, 144.1, 215.0)"> </text><text xml:space="preserve" font-family="MuseoSans-300" font-size="20.0" fill="#585852" transform="matrix(1.00, 0.00, -0.00, -1.00, 149.5, 215.0)">N</text><text xml:space="preserve" font-family="MuseoSans-300" font-size="20.0" fill="#585852" transform="matrix(1.00, 0.00, -0.00, -1.00, 164.6, 215.0)">i</text><text xml:space="preserve" font-family="MuseoSans-300" font-size="20.0" fill="#585852" transform="matrix(1.00, 0.00, -0.00, -1.00, 169.2, 215.0)">g</text><text xml:space="preserve" font-family="MuseoSans-300" font-size="20.0" fill="#585852" transform="matrix(1.00, 0.00, -0.00, -1.00, 180.9, 215.0)">h</text><text xml:space="preserve" font-family="MuseoSans-300" font-size="20.0" fill="#585852" transform="matrix(1.00, 0.00, -0.00, -1.00, 192.7, 215.0)">t</text><text xml:space="preserve" font-family="MuseoSans-300" font-size="20.0" fill="#585852" transform="matrix(1.00, 0.00, -0.00, -1.00, 199.4, 215.0)"> </text><text xml:space="preserve" font-family="MuseoSans-300" font-size="20.0" fill="#585852" transform="matrix(1.00, 0.00, -0.00, -1.00, 204.8, 215.0)">w</text><text xml:space="preserve" font-family="MuseoSans-300" font-size="20.0" fill="#585852" transform="matrix(1.00, 0.00, -0.00, -1.00, 220.8, 215.0)">a</text><text xml:space="preserve" font-family="MuseoSans-300" font-size="20.0" fill="#585852" transform="matrix(1.00, 0.00, -0.00, -1.00, 231.2, 215.0)">s</text><text xml:space="preserve" font-family="MuseoSans-300" font-size="20.0" fill="#585852" transform="matrix(1.00, 0.00, -0.00, -1.00, 240.1, 215.0)"> </text><text xml:space="preserve" font-family="MuseoSans-300" font-size="20.0" fill="#585852" transform="matrix(1.00, 0.00, -0.00, -1.00, 245.5, 215.0)">c</text><text xml:space="preserve" font-family="MuseoSans-300" font-size="20.0" fill="#585852" transform="matrix(1.00, 0.00, -0.00, -1.00, 256.4, 215.0)">r</text><text xml:space="preserve" font-family="MuseoSans-300" font-size="20.0" fill="#585852" transform="matrix(1.00, 0.00, -0.00, -1.00, 263.4, 215.0)">e</text><text xml:space="preserve" font-family="MuseoSans-300" font-size="20.0" fill="#585852" transform="matrix(1.00, 0.00, -0.00, -1.00, 274.5, 215.0)">a</text><text xml:space="preserve" font-family="MuseoSans-300" font-size="20.0" fill="#585852" transform="matrix(1.00, 0.00, -0.00, -1.00, 284.8, 215.0)">t</text><text xml:space="preserve" font-family="MuseoSans-300" font-size="20.0" fill="#585852" transform="matrix(1.00, 0.00, -0.00, -1.00, 291.5, 215.0)">e</text><text xml:space="preserve" font-family="MuseoSans-300" font-size="20.0" fill="#585852" transform="matrix(1.00, 0.00, -0.00, -1.00, 302.6, 215.0)">d</text><text xml:space="preserve" font-family="MuseoSans-300" font-size="20.0" fill="#585852" transform="matrix(1.00, 0.00, -0.00, -1.00, 314.4, 215.0)"> </text><text xml:space="preserve" font-family="MuseoSans-300" font-size="20.0" fill="#585852" transform="matrix(1.00, 0.00, -0.00, -1.00, 319.8, 215.0)">i</text><text xml:space="preserve" font-family="MuseoSans-300" font-size="20.0" fill="#585852" transform="matrix(1.00, 0.00, -0.00, -1.00, 324.4, 215.0)">n</text><text xml:space="preserve" font-family="MuseoSans-300" font-size="20.0" fill="#585852" transform="matrix(1.00, 0.00, -0.00, -1.00, 336.3, 215.0)"> </text><text xml:space="preserve" font-family="MuseoSans-300" font-size="20.0" fill="#585852" transform="matrix(1.00, 0.00, -0.00, -1.00, 341.6, 215.0)">2</text><text xml:space="preserve" font-family="MuseoSans-300" font-size="20.0" fill="#585852" transform="matrix(1.00, 0.00, -0.00, -1.00, 352.9, 215.0)">0</text><text xml:space="preserve" font-family="MuseoSans-300" font-size="20.0" fill="#585852" transform="matrix(1.00, 0.00, -0.00, -1.00, 365.4, 215.0)">0</text><text xml:space="preserve" font-family="MuseoSans-300" font-size="20.0" fill="#585852" transform="matrix(1.00, 0.00, -0.00, -1.00, 377.9, 215.0)">0</text><text xml:space="preserve" font-family="MuseoSans-300" font-size="20.0" fill="#585852" transform="matrix(1.00, 0.00, -0.00, -1.00, 390.4, 215.0)"> </text><text xml:space="preserve" font-family="MuseoSans-300" font-size="20.0" fill="#585852" transform="matrix(1.00, 0.00, -0.00, -1.00, 395.8, 215.0)">b</text><text xml:space="preserve" font-family="MuseoSans-300" font-size="20.0" fill="#585852" transform="matrix(1.00, 0.00, -0.00, -1.00, 407.6, 215.0)">y</text><text xml:space="preserve" font-family="MuseoSans-300" font-size="20.0" fill="#585852" transform="matrix(1.00, 0.00, -0.00, -1.00, 417.6, 215.0)"> </text><text xml:space="preserve" font-family="MuseoSans-300" font-size="20.0" fill="#585852" transform="matrix(1.00, 0.00, -0.00, -1.00, 97.0, 191.0)">L</text><text xml:space="preserve" font-family="MuseoSans-300" font-size="20.0" fill="#585852" transform="matrix(1.00, 0.00, -0.00, -1.00, 107.4, 191.0)">o</text><text xml:space="preserve" font-family="MuseoSans-300" font-size="20.0" fill="#585852" transform="matrix(1.00, 0.00, -0.00, -1.00, 119.8, 191.0)">r</text><text xml:space="preserve" font-family="MuseoSans-300" font-size="20.0" fill="#585852" transform="matrix(1.00, 0.00, -0.00, -1.00, 126.8, 191.0)">e</text><text xml:space="preserve" font-family="MuseoSans-300" font-size="20.0" fill="#585852" transform="matrix(1.00, 0.00, -0.00, -1.00, 137.9, 191.0)">t</text><text xml:space="preserve" font-family="MuseoSans-300" font-size="20.0" fill="#585852" transform="matrix(1.00, 0.00, -0.00, -1.00, 144.6, 191.0)">t</text><text xml:space="preserve" font-family="MuseoSans-300" font-size="20.0" fill="#585852" transform="matrix(1.00, 0.00, -0.00, -1.00, 151.3, 191.0)">a</text><text xml:space="preserve" font-family="MuseoSans-300" font-size="20.0" fill="#585852" transform="matrix(1.00, 0.00, -0.00, -1.00, 161.7, 191.0)"> </text><text xml:space="preserve" font-family="MuseoSans-300" font-size="20.0" fill="#585852" transform="matrix(1.00, 0.00, -0.00, -1.00, 167.0, 191.0)">H</text><text xml:space="preserve" font-family="MuseoSans-300" font-size="20.0" fill="#585852" transform="matrix(1.00, 0.00, -0.00, -1.00, 182.0, 191.0)">i</text><text xml:space="preserve" font-family="MuseoSans-300" font-size="20.0" fill="#585852" transform="matrix(1.00, 0.00, -0.00, -1.00, 186.7, 191.0)">d</text><text xml:space="preserve" font-family="MuseoSans-300" font-size="20.0" fill="#585852" transform="matrix(1.00, 0.00, -0.00, -1.00, 198.5, 191.0)">a</text><text xml:space="preserve" font-family="MuseoSans-300" font-size="20.0" fill="#585852" transform="matrix(1.00, 0.00, -0.00, -1.00, 208.9, 191.0)">l</text><text xml:space="preserve" font-family="MuseoSans-300" font-size="20.0" fill="#585852" transform="matrix(1.00, 0.00, -0.00, -1.00, 213.8, 191.0)">g</text><text xml:space="preserve" font-family="MuseoSans-300" font-size="20.0" fill="#585852" transform="matrix(1.00, 0.00, -0.00, -1.00, 225.4, 191.0)">o</text><text xml:space="preserve" font-family="MuseoSans-300" font-size="20.0" fill="#585852" transform="matrix(1.00, 0.00, -0.00, -1.00, 237.9, 191.0)"> </text><text xml:space="preserve" font-family="MuseoSans-300" font-size="20.0" fill="#585852" transform="matrix(1.00, 0.00, -0.00, -1.00, 243.3, 191.0)">(</text><text xml:space="preserve" font-family="MuseoSans-300" font-size="20.0" fill="#585852" transform="matrix(1.00, 0.00, -0.00, -1.00, 249.1, 191.0)">l</text><text xml:space="preserve" font-family="MuseoSans-300" font-size="20.0" fill="#585852" transform="matrix(1.00, 0.00, -0.00, -1.00, 254.0, 191.0)">a</text><text xml:space="preserve" font-family="MuseoSans-300" font-size="20.0" fill="#585852" transform="matrix(1.00, 0.00, -0.00, -1.00, 264.3, 191.0)">t</text><text xml:space="preserve" font-family="MuseoSans-300" font-size="20.0" fill="#585852" transform="matrix(1.00, 0.00, -0.00, -1.00, 271.0, 191.0)">e</text><text xml:space="preserve" font-family="MuseoSans-300" font-size="20.0" fill="#585852" transform="matrix(1.00, 0.00, -0.00, -1.00, 282.1, 191.0)">r</text><text xml:space="preserve" font-family="MuseoSans-300" font-size="20.0" fill="#585852" transform="matrix(1.00, 0.00, -0.00, -1.00, 289.2, 191.0)"> </text><text xml:space="preserve" font-family="MuseoSans-300" font-size="20.0" fill="#585852" transform="matrix(1.00, 0.00, -0.00, -1.00, 294.6, 191.0)">t</text><text xml:space="preserve" font-family="MuseoSans-300" font-size="20.0" fill="#585852" transform="matrix(1.00, 0.00, -0.00, -1.00, 301.3, 191.0)">o</text><text xml:space="preserve" font-family="MuseoSans-300" font-size="20.0" fill="#585852" transform="matrix(1.00, 0.00, -0.00, -1.00, 313.7, 191.0)"> </text><text xml:space="preserve" font-family="MuseoSans-300" font-size="20.0" fill="#585852" transform="matrix(1.00, 0.00, -0.00, -1.00, 319.1, 191.0)">b</text><text xml:space="preserve" font-family="MuseoSans-300" font-size="20.0" fill="#585852" transform="matrix(1.00, 0.00, -0.00, -1.00, 330.9, 191.0)">e</text><text xml:space="preserve" font-family="MuseoSans-300" font-size="20.0" fill="#585852" transform="matrix(1.00, 0.00, -0.00, -1.00, 342.0, 191.0)"> </text><text xml:space="preserve" font-family="MuseoSans-300" font-size="20.0" fill="#585852" transform="matrix(1.00, 0.00, -0.00, -1.00, 347.3, 191.0)">W</text><text xml:space="preserve" font-family="MuseoSans-300" font-size="20.0" fill="#585852" transform="matrix(1.00, 0.00, -0.00, -1.00, 365.9, 191.0)">h</text><text xml:space="preserve" font-family="MuseoSans-300" font-size="20.0" fill="#585852" transform="matrix(1.00, 0.00, -0.00, -1.00, 377.7, 191.0)">i</text><text xml:space="preserve" font-family="MuseoSans-300" font-size="20.0" fill="#585852" transform="matrix(1.00, 0.00, -0.00, -1.00, 382.4, 191.0)">t</text><text xml:space="preserve" font-family="MuseoSans-300" font-size="20.0" fill="#585852" transform="matrix(1.00, 0.00, -0.00, -1.00, 389.1, 191.0)">e</text><text xml:space="preserve" font-family="MuseoSans-300" font-size="20.0" fill="#585852" transform="matrix(1.00, 0.00, -0.00, -1.00, 400.1, 191.0)">s</text><text xml:space="preserve" font-family="MuseoSans-300" font-size="20.0" fill="#585852" transform="matrix(1.00, 0.00, -0.00, -1.00, 409.0, 191.0)">i</text><text xml:space="preserve" font-family="MuseoSans-300" font-size="20.0" fill="#585852" transform="matrix(1.00, 0.00, -0.00, -1.00, 413.6, 191.0)">d</text><text xml:space="preserve" font-family="MuseoSans-300" font-size="20.0" fill="#585852" transform="matrix(1.00, 0.00, -0.00, -1.00, 425.4, 191.0)">e</text><text xml:space="preserve" font-family="MuseoSans-300" font-size="20.0" fill="#585852" transform="matrix(1.00, 0.00, -0.00, -1.00, 436.5, 191.0)">s</text><text xml:space="preserve" font-family="MuseoSans-300" font-size="20.0" fill="#585852" transform="matrix(1.00, 0.00, -0.00, -1.00, 445.3, 191.0)">)</text><text xml:space="preserve" font-family="MuseoSans-300" font-size="20.0" fill="#585852" transform="matrix(1.00, 0.00, -0.00, -1.00, 451.1, 191.0)">,</text><text xml:space="preserve" font-family="MuseoSans-300" font-size="20.0" fill="#585852" transform="matrix(1.00, 0.00, -0.00, -1.00, 456.0, 191.0)"> </text><text xml:space="preserve" font-family="MuseoSans-300" font-size="20.0" fill="#585852" transform="matrix(1.00, 0.00, -0.00, -1.00, 97.0, 167.0)">G</text><text xml:space="preserve" font-family="MuseoSans-300" font-size="20.0" fill="#585852" transform="matrix(1.00, 0.00, -0.00, -1.00, 112.2, 167.0)">e</text><text xml:space="preserve" font-family="MuseoSans-300" font-size="20.0" fill="#585852" transform="matrix(1.00, 0.00, -0.00, -1.00, 123.2, 167.0)">o</text><text xml:space="preserve" font-family="MuseoSans-300" font-size="20.0" fill="#585852" transform="matrix(1.00, 0.00, -0.00, -1.00, 135.7, 167.0)">r</text><text xml:space="preserve" font-family="MuseoSans-300" font-size="20.0" fill="#585852" transform="matrix(1.00, 0.00, -0.00, -1.00, 142.7, 167.0)">g</text><text xml:space="preserve" font-family="MuseoSans-300" font-size="20.0" fill="#585852" transform="matrix(1.00, 0.00, -0.00, -1.00, 154.4, 167.0)">e</text><text xml:space="preserve" font-family="MuseoSans-300" font-size="20.0" fill="#585852" transform="matrix(1.00, 0.00, -0.00, -1.00, 165.4, 167.0)"> </text><text xml:space="preserve" font-family="MuseoSans-300" font-size="20.0" fill="#585852" transform="matrix(1.00, 0.00, -0.00, -1.00, 170.8, 167.0)">W</text><text xml:space="preserve" font-family="MuseoSans-300" font-size="20.0" fill="#585852" transform="matrix(1.00, 0.00, -0.00, -1.00, 189.3, 167.0)">h</text><text xml:space="preserve" font-family="MuseoSans-300" font-size="20.0" fill="#585852" transform="matrix(1.00, 0.00, -0.00, -1.00, 201.2, 167.0)">i</text><text xml:space="preserve" font-family="MuseoSans-300" font-size="20.0" fill="#585852" transform="matrix(1.00, 0.00, -0.00, -1.00, 205.8, 167.0)">t</text><text xml:space="preserve" font-family="MuseoSans-300" font-size="20.0" fill="#585852" transform="matrix(1.00, 0.00, -0.00, -1.00, 212.5, 167.0)">e</text><text xml:space="preserve" font-family="MuseoSans-300" font-size="20.0" fill="#585852" transform="matrix(1.00, 0.00, -0.00, -1.00, 223.6, 167.0)">s</text><text xml:space="preserve" font-family="MuseoSans-300" font-size="20.0" fill="#585852" transform="matrix(1.00, 0.00, -0.00, -1.00, 232.5, 167.0)">i</text><text xml:space="preserve" font-family="MuseoSans-300" font-size="20.0" fill="#585852" transform="matrix(1.00, 0.00, -0.00, -1.00, 237.1, 167.0)">d</text><text xml:space="preserve" font-family="MuseoSans-300" font-size="20.0" fill="#585852" transform="matrix(1.00, 0.00, -0.00, -1.00, 248.9, 167.0)">e</text><text xml:space="preserve" font-family="MuseoSans-300" font-size="20.0" fill="#585852" transform="matrix(1.00, 0.00, -0.00, -1.00, 259.9, 167.0)">s</text><text xml:space="preserve" font-family="MuseoSans-300" font-size="20.0" fill="#585852" transform="matrix(1.00, 0.00, -0.00, -1.00, 268.8, 167.0)"> </text><text xml:space="preserve" font-family="MuseoSans-300" font-size="20.0" fill="#585852" transform="matrix(1.00, 0.00, -0.00, -1.00, 274.2, 167.0)">a</text><text xml:space="preserve" font-family="MuseoSans-300" font-size="20.0" fill="#585852" transform="matrix(1.00, 0.00, -0.00, -1.00, 284.6, 167.0)">n</text><text xml:space="preserve" font-family="MuseoSans-300" font-size="20.0" fill="#585852" transform="matrix(1.00, 0.00, -0.00, -1.00, 296.4, 167.0)">d</text><text xml:space="preserve" font-family="MuseoSans-300" font-size="20.0" fill="#585852" transform="matrix(1.00, 0.00, -0.00, -1.00, 308.2, 167.0)"> </text><text xml:space="preserve" font-family="MuseoSans-300" font-size="20.0" fill="#585852" transform="matrix(1.00, 0.00, -0.00, -1.00, 313.6, 167.0)">T</text><text xml:space="preserve" font-family="MuseoSans-300" font-size="20.0" fill="#585852" transform="matrix(1.00, 0.00, -0.00, -1.00, 323.3, 167.0)">r</text><text xml:space="preserve" font-family="MuseoSans-300" font-size="20.0" fill="#585852" transform="matrix(1.00, 0.00, -0.00, -1.00, 330.4, 167.0)">i</text><text xml:space="preserve" font-family="MuseoSans-300" font-size="20.0" fill="#585852" transform="matrix(1.00, 0.00, -0.00, -1.00, 335.0, 167.0)">s</text><text xml:space="preserve" font-family="MuseoSans-300" font-size="20.0" fill="#585852" transform="matrix(1.00, 0.00, -0.00, -1.00, 343.9, 167.0)">h</text><text xml:space="preserve" font-family="MuseoSans-300" font-size="20.0" fill="#585852" transform="matrix(1.00, 0.00, -0.00, -1.00, 355.7, 167.0)"> </text><text xml:space="preserve" font-family="MuseoSans-300" font-size="20.0" fill="#585852" transform="matrix(1.00, 0.00, -0.00, -1.00, 361.1, 167.0)">G</text><text xml:space="preserve" font-family="MuseoSans-300" font-size="20.0" fill="#585852" transform="matrix(1.00, 0.00, -0.00, -1.00, 376.3, 167.0)">a</text><text xml:space="preserve" font-family="MuseoSans-300" font-size="20.0" fill="#585852" transform="matrix(1.00, 0.00, -0.00, -1.00, 386.7, 167.0)">r</text><text xml:space="preserve" font-family="MuseoSans-300" font-size="20.0" fill="#585852" transform="matrix(1.00, 0.00, -0.00, -1.00, 393.8, 167.0)">n</text><text xml:space="preserve" font-family="MuseoSans-300" font-size="20.0" fill="#585852" transform="matrix(1.00, 0.00, -0.00, -1.00, 405.7, 167.0)">e</text><text xml:space="preserve" font-family="MuseoSans-300" font-size="20.0" fill="#585852" transform="matrix(1.00, 0.00, -0.00, -1.00, 416.7, 167.0)">r</text><text xml:space="preserve" font-family="MuseoSans-300" font-size="20.0" fill="#585852" transform="matrix(1.00, 0.00, -0.00, -1.00, 423.1, 167.0)">.</text><text xml:space="preserve" font-family="MuseoSans-300" font-size="20.0" fill="#585852" transform="matrix(1.00, 0.00, -0.00, -1.00, 428.1, 167.0)"> </text><text xml:space="preserve" font-family="MuseoSans-300" font-size="20.0" fill="#585852" transform="matrix(1.00, 0.00, -0.00, -1.00, 433.5, 167.0)"> </text><text xml:space="preserve" font-family="MuseoSans-300" font-size="20.0" fill="#585852" transform="matrix(1.00, 0.00, -0.00, -1.00, 438.8, 167.0)"> </text><text xml:space="preserve" font-family="MuseoSans-300" font-size="20.0" fill="#585852" transform="matrix(1.00, 0.00, -0.00, -1.00, 97.0, 119.0)">T</text><text xml:space="preserve" font-family="MuseoSans-300" font-size="20.0" fill="#585852" transform="matrix(1.00, 0.00, -0.00, -1.00, 108.8, 119.0)">h</text><text xml:space="preserve" font-family="MuseoSans-300" font-size="20.0" fill="#585852" transform="matrix(1.00, 0.00, -0.00, -1.00, 120.6, 119.0)">e</text><text xml:space="preserve" font-family="MuseoSans-300" font-size="20.0" fill="#585852" transform="matrix(1.00, 0.00, -0.00, -1.00, 131.7, 119.0)"> </text><text xml:space="preserve" font-family="MuseoSans-300" font-size="20.0" fill="#585852" transform="matrix(1.00, 0.00, -0.00, -1.00, 137.1, 119.0)">g</text><text xml:space="preserve" font-family="MuseoSans-300" font-size="20.0" fill="#585852" transform="matrix(1.00, 0.00, -0.00, -1.00, 148.7, 119.0)">o</text><text xml:space="preserve" font-family="MuseoSans-300" font-size="20.0" fill="#585852" transform="matrix(1.00, 0.00, -0.00, -1.00, 161.1, 119.0)">a</text><text xml:space="preserve" font-family="MuseoSans-300" font-size="20.0" fill="#585852" transform="matrix(1.00, 0.00, -0.00, -1.00, 171.5, 119.0)">l</text><text xml:space="preserve" font-family="MuseoSans-300" font-size="20.0" fill="#585852" transform="matrix(1.00, 0.00, -0.00, -1.00, 176.5, 119.0)"> </text><text xml:space="preserve" font-family="MuseoSans-300" font-size="20.0" fill="#585852" transform="matrix(1.00, 0.00, -0.00, -1.00, 181.9, 119.0)">a</text><text xml:space="preserve" font-family="MuseoSans-300" font-size="20.0" fill="#585852" transform="matrix(1.00, 0.00, -0.00, -1.00, 192.3, 119.0)">c</text><text xml:space="preserve" font-family="MuseoSans-300" font-size="20.0" fill="#585852" transform="matrix(1.00, 0.00, -0.00, -1.00, 203.2, 119.0)">c</text><text xml:space="preserve" font-family="MuseoSans-300" font-size="20.0" fill="#585852" transform="matrix(1.00, 0.00, -0.00, -1.00, 214.2, 119.0)">o</text><text xml:space="preserve" font-family="MuseoSans-300" font-size="20.0" fill="#585852" transform="matrix(1.00, 0.00, -0.00, -1.00, 226.7, 119.0)">r</text><text xml:space="preserve" font-family="MuseoSans-300" font-size="20.0" fill="#585852" transform="matrix(1.00, 0.00, -0.00, -1.00, 233.7, 119.0)">d</text><text xml:space="preserve" font-family="MuseoSans-300" font-size="20.0" fill="#585852" transform="matrix(1.00, 0.00, -0.00, -1.00, 245.5, 119.0)">i</text><text xml:space="preserve" font-family="MuseoSans-300" font-size="20.0" fill="#585852" transform="matrix(1.00, 0.00, -0.00, -1.00, 250.1, 119.0)">n</text><text xml:space="preserve" font-family="MuseoSans-300" font-size="20.0" fill="#585852" transform="matrix(1.00, 0.00, -0.00, -1.00, 262.0, 119.0)">g</text><text xml:space="preserve" font-family="MuseoSans-300" font-size="20.0" fill="#585852" transform="matrix(1.00, 0.00, -0.00, -1.00, 273.6, 119.0)"> </text><text xml:space="preserve" font-family="MuseoSans-300" font-size="20.0" fill="#585852" transform="matrix(1.00, 0.00, -0.00, -1.00, 279.0, 119.0)">t</text><text xml:space="preserve" font-family="MuseoSans-300" font-size="20.0" fill="#585852" transform="matrix(1.00, 0.00, -0.00, -1.00, 285.7, 119.0)">o</text><text xml:space="preserve" font-family="MuseoSans-300" font-size="20.0" fill="#585852" transform="matrix(1.00, 0.00, -0.00, -1.00, 298.1, 119.0)"> </text><text xml:space="preserve" font-family="MuseoSans-300" font-size="20.0" fill="#585852" transform="matrix(1.00, 0.00, -0.00, -1.00, 303.5, 119.0)">L</text><text xml:space="preserve" font-family="MuseoSans-300" font-size="20.0" fill="#585852" transform="matrix(1.00, 0.00, -0.00, -1.00, 313.9, 119.0)">o</text><text xml:space="preserve" font-family="MuseoSans-300" font-size="20.0" fill="#585852" transform="matrix(1.00, 0.00, -0.00, -1.00, 326.3, 119.0)">r</text><text xml:space="preserve" font-family="MuseoSans-300" font-size="20.0" fill="#585852" transform="matrix(1.00, 0.00, -0.00, -1.00, 333.3, 119.0)">e</text><text xml:space="preserve" font-family="MuseoSans-300" font-size="20.0" fill="#585852" transform="matrix(1.00, 0.00, -0.00, -1.00, 344.4, 119.0)">t</text><text xml:space="preserve" font-family="MuseoSans-300" font-size="20.0" fill="#585852" transform="matrix(1.00, 0.00, -0.00, -1.00, 351.1, 119.0)">t</text><text xml:space="preserve" font-family="MuseoSans-300" font-size="20.0" fill="#585852" transform="matrix(1.00, 0.00, -0.00, -1.00, 357.8, 119.0)">a</text><text xml:space="preserve" font-family="MuseoSans-300" font-size="20.0" fill="#585852" transform="matrix(1.00, 0.00, -0.00, -1.00, 368.2, 119.0)"> </text><text xml:space="preserve" font-family="MuseoSans-300" font-size="20.0" fill="#585852" transform="matrix(1.00, 0.00, -0.00, -1.00, 373.6, 119.0)">H</text><text xml:space="preserve" font-family="MuseoSans-300" font-size="20.0" fill="#585852" transform="matrix(1.00, 0.00, -0.00, -1.00, 388.6, 119.0)">i</text><text xml:space="preserve" font-family="MuseoSans-300" font-size="20.0" fill="#585852" transform="matrix(1.00, 0.00, -0.00, -1.00, 393.2, 119.0)">d</text><text xml:space="preserve" font-family="MuseoSans-300" font-size="20.0" fill="#585852" transform="matrix(1.00, 0.00, -0.00, -1.00, 405.0, 119.0)">a</text><text xml:space="preserve" font-family="MuseoSans-300" font-size="20.0" fill="#585852" transform="matrix(1.00, 0.00, -0.00, -1.00, 415.4, 119.0)">l</text><text xml:space="preserve" font-family="MuseoSans-300" font-size="20.0" fill="#585852" transform="matrix(1.00, 0.00, -0.00, -1.00, 420.3, 119.0)">g</text><text xml:space="preserve" font-family="MuseoSans-300" font-size="20.0" fill="#585852" transform="matrix(1.00, 0.00, -0.00, -1.00, 432.0, 119.0)">o</text><text xml:space="preserve" font-family="MuseoSans-300" font-size="20.0" fill="#585852" transform="matrix(1.00, 0.00, -0.00, -1.00, 444.4, 119.0)">-</text><text xml:space="preserve" font-family="MuseoSans-300" font-size="20.0" fill="#585852" transform="matrix(1.00, 0.00, -0.00, -1.00, 97.0, 95.0)">W</text><text xml:space="preserve" font-family="MuseoSans-300" font-size="20.0" fill="#585852" transform="matrix(1.00, 0.00, -0.00, -1.00, 115.5, 95.0)">h</text><text xml:space="preserve" font-family="MuseoSans-300" font-size="20.0" fill="#585852" transform="matrix(1.00, 0.00, -0.00, -1.00, 127.4, 95.0)">i</text><text xml:space="preserve" font-family="MuseoSans-300" font-size="20.0" fill="#585852" transform="matrix(1.00, 0.00, -0.00, -1.00, 132.0, 95.0)">t</text><text xml:space="preserve" font-family="MuseoSans-300" font-size="20.0" fill="#585852" transform="matrix(1.00, 0.00, -0.00, -1.00, 138.7, 95.0)">e</text><text xml:space="preserve" font-family="MuseoSans-300" font-size="20.0" fill="#585852" transform="matrix(1.00, 0.00, -0.00, -1.00, 149.8, 95.0)">s</text><text xml:space="preserve" font-family="MuseoSans-300" font-size="20.0" fill="#585852" transform="matrix(1.00, 0.00, -0.00, -1.00, 158.7, 95.0)">i</text><text xml:space="preserve" font-family="MuseoSans-300" font-size="20.0" fill="#585852" transform="matrix(1.00, 0.00, -0.00, -1.00, 163.3, 95.0)">d</text><text xml:space="preserve" font-family="MuseoSans-300" font-size="20.0" fill="#585852" transform="matrix(1.00, 0.00, -0.00, -1.00, 175.1, 95.0)">e</text><text xml:space="preserve" font-family="MuseoSans-300" font-size="20.0" fill="#585852" transform="matrix(1.00, 0.00, -0.00, -1.00, 186.1, 95.0)">s</text><text xml:space="preserve" font-family="MuseoSans-300" font-size="20.0" fill="#585852" transform="matrix(1.00, 0.00, -0.00, -1.00, 195.0, 95.0)">,</text><text xml:space="preserve" font-family="MuseoSans-300" font-size="20.0" fill="#585852" transform="matrix(1.00, 0.00, -0.00, -1.00, 199.9, 95.0)"> </text><text xml:space="preserve" font-family="MuseoSans-300" font-size="20.0" fill="#585852" transform="matrix(1.00, 0.00, -0.00, -1.00, 205.3, 95.0)">"</text><text xml:space="preserve" font-family="MuseoSans-300" font-size="20.0" fill="#585852" transform="matrix(1.00, 0.00, -0.00, -1.00, 211.6, 95.0)">W</text><text xml:space="preserve" font-family="MuseoSans-300" font-size="20.0" fill="#585852" transform="matrix(1.00, 0.00, -0.00, -1.00, 229.8, 95.0)">e</text><text xml:space="preserve" font-family="MuseoSans-300" font-size="20.0" fill="#585852" transform="matrix(1.00, 0.00, -0.00, -1.00, 240.8, 95.0)">’</text><text xml:space="preserve" font-family="MuseoSans-300" font-size="20.0" fill="#585852" transform="matrix(1.00, 0.00, -0.00, -1.00, 245.0, 95.0)">r</text><text xml:space="preserve" font-family="MuseoSans-300" font-size="20.0" fill="#585852" transform="matrix(1.00, 0.00, -0.00, -1.00, 252.0, 95.0)">e</text><text xml:space="preserve" font-family="MuseoSans-300" font-size="20.0" fill="#585852" transform="matrix(1.00, 0.00, -0.00, -1.00, 263.1, 95.0)"> </text><text xml:space="preserve" font-family="MuseoSans-300" font-size="20.0" fill="#585852" transform="matrix(1.00, 0.00, -0.00, -1.00, 268.5, 95.0)">t</text><text xml:space="preserve" font-family="MuseoSans-300" font-size="20.0" fill="#585852" transform="matrix(1.00, 0.00, -0.00, -1.00, 275.2, 95.0)">r</text><text xml:space="preserve" font-family="MuseoSans-300" font-size="20.0" fill="#585852" transform="matrix(1.00, 0.00, -0.00, -1.00, 282.3, 95.0)">y</text><text xml:space="preserve" font-family="MuseoSans-300" font-size="20.0" fill="#585852" transform="matrix(1.00, 0.00, -0.00, -1.00, 292.3, 95.0)">i</text><text xml:space="preserve" font-family="MuseoSans-300" font-size="20.0" fill="#585852" transform="matrix(1.00, 0.00, -0.00, -1.00, 296.9, 95.0)">n</text><text xml:space="preserve" font-family="MuseoSans-300" font-size="20.0" fill="#585852" transform="matrix(1.00, 0.00, -0.00, -1.00, 308.8, 95.0)">g</text><text xml:space="preserve" font-family="MuseoSans-300" font-size="20.0" fill="#585852" transform="matrix(1.00, 0.00, -0.00, -1.00, 320.4, 95.0)"> </text><text xml:space="preserve" font-family="MuseoSans-300" font-size="20.0" fill="#585852" transform="matrix(1.00, 0.00, -0.00, -1.00, 325.8, 95.0)">t</text><text xml:space="preserve" font-family="MuseoSans-300" font-size="20.0" fill="#585852" transform="matrix(1.00, 0.00, -0.00, -1.00, 332.5, 95.0)">o</text><text xml:space="preserve" font-family="MuseoSans-300" font-size="20.0" fill="#585852" transform="matrix(1.00, 0.00, -0.00, -1.00, 344.9, 95.0)"> </text><text xml:space="preserve" font-family="MuseoSans-300" font-size="20.0" fill="#585852" transform="matrix(1.00, 0.00, -0.00, -1.00, 350.3, 95.0)">m</text><text xml:space="preserve" font-family="MuseoSans-300" font-size="20.0" fill="#585852" transform="matrix(1.00, 0.00, -0.00, -1.00, 368.6, 95.0)">a</text><text xml:space="preserve" font-family="MuseoSans-300" font-size="20.0" fill="#585852" transform="matrix(1.00, 0.00, -0.00, -1.00, 379.0, 95.0)">k</text><text xml:space="preserve" font-family="MuseoSans-300" font-size="20.0" fill="#585852" transform="matrix(1.00, 0.00, -0.00, -1.00, 388.9, 95.0)">e</text><text xml:space="preserve" font-family="MuseoSans-300" font-size="20.0" fill="#585852" transform="matrix(1.00, 0.00, -0.00, -1.00, 400.0, 95.0)"> </text><text xml:space="preserve" font-family="MuseoSans-300" font-size="20.0" fill="#585852" transform="matrix(1.00, 0.00, -0.00, -1.00, 405.3, 95.0)">s</text><text xml:space="preserve" font-family="MuseoSans-300" font-size="20.0" fill="#585852" transform="matrix(1.00, 0.00, -0.00, -1.00, 414.2, 95.0)">p</text><text xml:space="preserve" font-family="MuseoSans-300" font-size="20.0" fill="#585852" transform="matrix(1.00, 0.00, -0.00, -1.00, 426.0, 95.0)">a</text><text xml:space="preserve" font-family="MuseoSans-300" font-size="20.0" fill="#585852" transform="matrix(1.00, 0.00, -0.00, -1.00, 436.4, 95.0)">c</text><text xml:space="preserve" font-family="MuseoSans-300" font-size="20.0" fill="#585852" transform="matrix(1.00, 0.00, -0.00, -1.00, 447.4, 95.0)">e</text><text xml:space="preserve" font-family="MuseoSans-300" font-size="20.0" fill="#585852" transform="matrix(1.00, 0.00, -0.00, -1.00, 458.4, 95.0)"> </text><text xml:space="preserve" font-family="MuseoSans-300" font-size="20.0" fill="#585852" transform="matrix(1.00, 0.00, -0.00, -1.00, 97.0, 71.0)">c</text><text xml:space="preserve" font-family="MuseoSans-300" font-size="20.0" fill="#585852" transform="matrix(1.00, 0.00, -0.00, -1.00, 108.0, 71.0)">o</text><text xml:space="preserve" font-family="MuseoSans-300" font-size="20.0" fill="#585852" transform="matrix(1.00, 0.00, -0.00, -1.00, 120.4, 71.0)">o</text><text xml:space="preserve" font-family="MuseoSans-300" font-size="20.0" fill="#585852" transform="matrix(1.00, 0.00, -0.00, -1.00, 132.9, 71.0)">l</text><text xml:space="preserve" font-family="MuseoSans-300" font-size="20.0" fill="#585852" transform="matrix(1.00, 0.00, -0.00, -1.00, 137.8, 71.0)"> </text><text xml:space="preserve" font-family="MuseoSans-300" font-size="20.0" fill="#585852" transform="matrix(1.00, 0.00, -0.00, -1.00, 143.2, 71.0)">a</text><text xml:space="preserve" font-family="MuseoSans-300" font-size="20.0" fill="#585852" transform="matrix(1.00, 0.00, -0.00, -1.00, 153.6, 71.0)">n</text><text xml:space="preserve" font-family="MuseoSans-300" font-size="20.0" fill="#585852" transform="matrix(1.00, 0.00, -0.00, -1.00, 165.4, 71.0)">d</text><text xml:space="preserve" font-family="MuseoSans-300" font-size="20.0" fill="#585852" transform="matrix(1.00, 0.00, -0.00, -1.00, 177.2, 71.0)"> </text><text xml:space="preserve" font-family="MuseoSans-300" font-size="20.0" fill="#585852" transform="matrix(1.00, 0.00, -0.00, -1.00, 182.6, 71.0)">a</text><text xml:space="preserve" font-family="MuseoSans-300" font-size="20.0" fill="#585852" transform="matrix(1.00, 0.00, -0.00, -1.00, 193.0, 71.0)">p</text><text xml:space="preserve" font-family="MuseoSans-300" font-size="20.0" fill="#585852" transform="matrix(1.00, 0.00, -0.00, -1.00, 204.8, 71.0)">p</text><text xml:space="preserve" font-family="MuseoSans-300" font-size="20.0" fill="#585852" transform="matrix(1.00, 0.00, -0.00, -1.00, 216.6, 71.0)">e</text><text xml:space="preserve" font-family="MuseoSans-300" font-size="20.0" fill="#585852" transform="matrix(1.00, 0.00, -0.00, -1.00, 227.6, 71.0)">a</text><text xml:space="preserve" font-family="MuseoSans-300" font-size="20.0" fill="#585852" transform="matrix(1.00, 0.00, -0.00, -1.00, 238.0, 71.0)">l</text><text xml:space="preserve" font-family="MuseoSans-300" font-size="20.0" fill="#585852" transform="matrix(1.00, 0.00, -0.00, -1.00, 243.0, 71.0)"> </text><text xml:space="preserve" font-family="MuseoSans-300" font-size="20.0" fill="#585852" transform="matrix(1.00, 0.00, -0.00, -1.00, 248.3, 71.0)">t</text><text xml:space="preserve" font-family="MuseoSans-300" font-size="20.0" fill="#585852" transform="matrix(1.00, 0.00, -0.00, -1.00, 255.0, 71.0)">o</text><text xml:space="preserve" font-family="MuseoSans-300" font-size="20.0" fill="#585852" transform="matrix(1.00, 0.00, -0.00, -1.00, 267.5, 71.0)"> </text><text xml:space="preserve" font-family="MuseoSans-300" font-size="20.0" fill="#585852" transform="matrix(1.00, 0.00, -0.00, -1.00, 272.9, 71.0)">y</text><text xml:space="preserve" font-family="MuseoSans-300" font-size="20.0" fill="#585852" transform="matrix(1.00, 0.00, -0.00, -1.00, 282.8, 71.0)">o</text><text xml:space="preserve" font-family="MuseoSans-300" font-size="20.0" fill="#585852" transform="matrix(1.00, 0.00, -0.00, -1.00, 295.3, 71.0)">u</text><text xml:space="preserve" font-family="MuseoSans-300" font-size="20.0" fill="#585852" transform="matrix(1.00, 0.00, -0.00, -1.00, 307.0, 71.0)">n</text><text xml:space="preserve" font-family="MuseoSans-300" font-size="20.0" fill="#585852" transform="matrix(1.00, 0.00, -0.00, -1.00, 318.9, 71.0)">g</text><text xml:space="preserve" font-family="MuseoSans-300" font-size="20.0" fill="#585852" transform="matrix(1.00, 0.00, -0.00, -1.00, 330.5, 71.0)">e</text><text xml:space="preserve" font-family="MuseoSans-300" font-size="20.0" fill="#585852" transform="matrix(1.00, 0.00, -0.00, -1.00, 341.6, 71.0)">r</text><text xml:space="preserve" font-family="MuseoSans-300" font-size="20.0" fill="#585852" transform="matrix(1.00, 0.00, -0.00, -1.00, 348.7, 71.0)"> </text><text xml:space="preserve" font-family="MuseoSans-300" font-size="20.0" fill="#585852" transform="matrix(1.00, 0.00, -0.00, -1.00, 97.0, 47.0)">g</text><text xml:space="preserve" font-family="MuseoSans-300" font-size="20.0" fill="#585852" transform="matrix(1.00, 0.00, -0.00, -1.00, 108.6, 47.0)">e</text><text xml:space="preserve" font-family="MuseoSans-300" font-size="20.0" fill="#585852" transform="matrix(1.00, 0.00, -0.00, -1.00, 119.7, 47.0)">n</text><text xml:space="preserve" font-family="MuseoSans-300" font-size="20.0" fill="#585852" transform="matrix(1.00, 0.00, -0.00, -1.00, 131.6, 47.0)">e</text><text xml:space="preserve" font-family="MuseoSans-300" font-size="20.0" fill="#585852" transform="matrix(1.00, 0.00, -0.00, -1.00, 142.6, 47.0)">r</text><text xml:space="preserve" font-family="MuseoSans-300" font-size="20.0" fill="#585852" transform="matrix(1.00, 0.00, -0.00, -1.00, 149.7, 47.0)">a</text><text xml:space="preserve" font-family="MuseoSans-300" font-size="20.0" fill="#585852" transform="matrix(1.00, 0.00, -0.00, -1.00, 160.1, 47.0)">t</text><text xml:space="preserve" font-family="MuseoSans-300" font-size="20.0" fill="#585852" transform="matrix(1.00, 0.00, -0.00, -1.00, 166.8, 47.0)">i</text><text xml:space="preserve" font-family="MuseoSans-300" font-size="20.0" fill="#585852" transform="matrix(1.00, 0.00, -0.00, -1.00, 171.4, 47.0)">o</text><text xml:space="preserve" font-family="MuseoSans-300" font-size="20.0" fill="#585852" transform="matrix(1.00, 0.00, -0.00, -1.00, 183.9, 47.0)">n</text><text xml:space="preserve" font-family="MuseoSans-300" font-size="20.0" fill="#585852" transform="matrix(1.00, 0.00, -0.00, -1.00, 195.7, 47.0)">s</text><text xml:space="preserve" font-family="MuseoSans-300" font-size="20.0" fill="#585852" transform="matrix(1.00, 0.00, -0.00, -1.00, 204.6, 47.0)"> </text><text xml:space="preserve" font-family="MuseoSans-300" font-size="20.0" fill="#585852" transform="matrix(1.00, 0.00, -0.00, -1.00, 210.0, 47.0)">a</text><text xml:space="preserve" font-family="MuseoSans-300" font-size="20.0" fill="#585852" transform="matrix(1.00, 0.00, -0.00, -1.00, 220.4, 47.0)">n</text><text xml:space="preserve" font-family="MuseoSans-300" font-size="20.0" fill="#585852" transform="matrix(1.00, 0.00, -0.00, -1.00, 232.2, 47.0)">d</text><text xml:space="preserve" font-family="MuseoSans-300" font-size="20.0" fill="#585852" transform="matrix(1.00, 0.00, -0.00, -1.00, 244.0, 47.0)"> </text><text xml:space="preserve" font-family="MuseoSans-300" font-size="20.0" fill="#585852" transform="matrix(1.00, 0.00, -0.00, -1.00, 249.4, 47.0)">n</text><text xml:space="preserve" font-family="MuseoSans-300" font-size="20.0" fill="#585852" transform="matrix(1.00, 0.00, -0.00, -1.00, 261.2, 47.0)">o</text><text xml:space="preserve" font-family="MuseoSans-300" font-size="20.0" fill="#585852" transform="matrix(1.00, 0.00, -0.00, -1.00, 273.7, 47.0)">n</text><text xml:space="preserve" font-family="MuseoSans-300" font-size="20.0" fill="#585852" transform="matrix(1.00, 0.00, -0.00, -1.00, 285.5, 47.0)">-</text><text xml:space="preserve" font-family="MuseoSans-300" font-size="20.0" fill="#585852" transform="matrix(1.00, 0.00, -0.00, -1.00, 295.4, 47.0)">s</text><text xml:space="preserve" font-family="MuseoSans-300" font-size="20.0" fill="#585852" transform="matrix(1.00, 0.00, -0.00, -1.00, 304.2, 47.0)">c</text><text xml:space="preserve" font-family="MuseoSans-300" font-size="20.0" fill="#585852" transform="matrix(1.00, 0.00, -0.00, -1.00, 315.2, 47.0)">i</text><text xml:space="preserve" font-family="MuseoSans-300" font-size="20.0" fill="#585852" transform="matrix(1.00, 0.00, -0.00, -1.00, 319.9, 47.0)">e</text><text xml:space="preserve" font-family="MuseoSans-300" font-size="20.0" fill="#585852" transform="matrix(1.00, 0.00, -0.00, -1.00, 330.9, 47.0)">n</text><text xml:space="preserve" font-family="MuseoSans-300" font-size="20.0" fill="#585852" transform="matrix(1.00, 0.00, -0.00, -1.00, 342.8, 47.0)">t</text><text xml:space="preserve" font-family="MuseoSans-300" font-size="20.0" fill="#585852" transform="matrix(1.00, 0.00, -0.00, -1.00, 349.5, 47.0)">i</text><text xml:space="preserve" font-family="MuseoSans-300" font-size="20.0" fill="#585852" transform="matrix(1.00, 0.00, -0.00, -1.00, 354.1, 47.0)">s</text><text xml:space="preserve" font-family="MuseoSans-300" font-size="20.0" fill="#585852" transform="matrix(1.00, 0.00, -0.00, -1.00, 363.0, 47.0)">t</text><text xml:space="preserve" font-family="MuseoSans-300" font-size="20.0" fill="#585852" transform="matrix(1.00, 0.00, -0.00, -1.00, 369.7, 47.0)">s</text><text xml:space="preserve" font-family="MuseoSans-300" font-size="20.0" fill="#585852" transform="matrix(1.00, 0.00, -0.00, -1.00, 378.5, 47.0)">.</text><text xml:space="preserve" font-family="MuseoSans-300" font-size="20.0" fill="#585852" transform="matrix(1.00, 0.00, -0.00, -1.00, 383.5, 47.0)">"</text></g></g></g><g><clipPath id="clip-266"><path d="M 76.9 250.9 L 153.2 174.5 L 76.9 98.1 L 0.5 174.5 Z M 76.9 250.9 "></path></clipPath><g clip-path="url(#clip-266)"><image xlink:href="../../24700E4A-6BA0-4DC2-B207-E7327B91710F/assets/7F68E4F361647783939C428D42072155.png" width="106.00" height="106.00" transform="matrix(0.71, -0.71, -0.71, -0.71, 76.9, 249.5)" opacity="0.40"></image><path d="M 76.9 247.2 L 6.1 176.5 L 76.9 105.8 Z M 76.9 247.2 " fill="#FEFFFF" fill-opacity="0.80"></path></g></g></g></svg>