<?xml version="1.0" encoding="UTF-8" standalone="no"?><svg xmlns="http://www.w3.org/2000/svg" xmlns:xlink="http://www.w3.org/1999/xlink" clip-rule="evenodd" stroke-miterlimit="4.00" viewBox="0 0 86 86"><desc>SVG generated by Keynote</desc><defs></defs><g transform="matrix(1.00, 0.00, -0.00, -1.00, 0.0, 86.0)"><g><clipPath id="clip-796"><path d="M 69.5 70.0 C 84.1 55.4 84.1 31.6 69.5 17.0 C 54.9 2.3 31.1 2.3 16.5 17.0 C 1.8 31.6 1.8 55.4 16.5 70.0 C 31.1 84.7 54.9 84.7 69.5 70.0 Z M 69.5 70.0 "></path></clipPath><g clip-path="url(#clip-796)"><image xlink:href="../../D8898D71-BD24-4EF7-8DFE-CD7FF25ACBC0/assets/9BF4A6574DD83C0B905E61F4E5BC8EAE.jpeg" width="148.00" height="107.00" transform="matrix(1.00, 0.00, -0.00, -1.01, 5.5, 81.0)"></image></g></g><path d="M 64.0 11.0 C 78.7 25.6 78.7 49.4 64.0 64.0 C 49.4 78.7 25.6 78.7 11.0 64.0 C -3.7 49.4 -3.7 25.6 11.0 11.0 C 25.6 -3.7 49.4 -3.7 64.0 11.0 Z M 64.0 11.0 " fill="none" stroke="#FEFFFF" stroke-width="8.00" transform="matrix(1.00, 0.00, 0.00, -1.00, 5.5, 81.0)"></path></g></svg>