<?xml version="1.0" encoding="UTF-8" standalone="no"?><svg xmlns="http://www.w3.org/2000/svg" xmlns:xlink="http://www.w3.org/1999/xlink" clip-rule="evenodd" stroke-miterlimit="4.00" viewBox="0 0 1017 717"><desc>SVG generated by Keynote</desc><defs><linearGradient id="gradSh1.16" x1="0.0" y1="0.0" x2="100.0" y2="0.0" gradientUnits="userSpaceOnUse" gradientTransform="matrix(0.00, -6.86, -9.29, 0.00, 480.2, 701.4)"><stop offset="0.00000" stop-color="#FBF7E9"></stop><stop offset="0.00806" stop-color="#FBF6E9"></stop><stop offset="1.00000" stop-color="#C3C2B7"></stop></linearGradient></defs><g transform="matrix(1.00, 0.00, -0.00, -1.00, 0.0, 717.0)"><g><clipPath id="clip-806"><path d="M 0.4 0.4 L 959.9 0.4 L 959.9 716.4 L 0.4 716.4 Z M 0.4 0.4 "></path></clipPath><g clip-path="url(#clip-806)"><image xlink:href="2C4CC6037260065FA483B0B059EF3F25.png" width="957.00" height="714.00" transform="matrix(1.00, 0.00, -0.00, -1.00, 1.4, 715.4)" opacity="0.90"></image></g></g><g><clipPath id="clip-807"><path d="M 0.4 0.4 L 959.9 0.4 L 959.9 716.4 L 0.4 716.4 Z M 0.4 0.4 "></path></clipPath><g clip-path="url(#clip-807)"><g opacity="0.90"><g><clipPath id="clip-808"><path d="M 16.4 700.4 L 943.9 700.4 L 943.9 16.4 L 16.4 16.4 Z M 16.4 700.4 "></path></clipPath><g clip-path="url(#clip-808)"><g><clipPath id="clip-809"><path d="M 11.0 11.0 L 949.0 11.0 L 949.0 706.0 L 11.0 706.0 Z M 11.0 11.0 "></path></clipPath><g clip-path="url(#clip-809)"><path d="M 11.0 11.0 L 949.0 11.0 L 949.0 706.0 L 11.0 706.0 Z M 11.0 11.0 " fill="url(#gradSh1.16)"></path></g></g></g></g><g><clipPath id="clip-810"><path d="M 11.0 11.0 L 949.0 11.0 L 949.0 706.0 L 11.0 706.0 Z M 11.0 11.0 "></path></clipPath><g clip-path="url(#clip-810)"><path d="M 0.0 0.0 L 927.5 0.0 L 927.5 684.0 L 0.0 684.0 Z M 0.0 0.0 " fill="none" stroke="#FEFFFF" stroke-width="10.00" transform="matrix(1.00, 0.00, 0.00, -1.00, 16.4, 700.4)"></path></g></g></g></g></g><g opacity="0.90"><g><clipPath id="clip-811"><path d="M 21.4 21.4 L 938.9 21.4 L 938.9 695.4 L 21.4 695.4 Z M 21.4 21.4 "></path></clipPath><g clip-path="url(#clip-811)"><text xml:space="preserve" font-family="MuseoSans-700" font-weight="bold" font-size="24.0" fill="#585852" transform="matrix(1.00, 0.00, -0.00, -1.00, 41.0, 653.0)">C</text><text xml:space="preserve" font-family="MuseoSans-700" font-weight="bold" font-size="24.0" fill="#585852" transform="matrix(1.00, 0.00, -0.00, -1.00, 58.2, 653.0)">e</text><text xml:space="preserve" font-family="MuseoSans-700" font-weight="bold" font-size="24.0" fill="#585852" transform="matrix(1.00, 0.00, -0.00, -1.00, 71.5, 653.0)">l</text><text xml:space="preserve" font-family="MuseoSans-700" font-weight="bold" font-size="24.0" fill="#585852" transform="matrix(1.00, 0.00, -0.00, -1.00, 78.3, 653.0)">e</text><text xml:space="preserve" font-family="MuseoSans-700" font-weight="bold" font-size="24.0" fill="#585852" transform="matrix(1.00, 0.00, -0.00, -1.00, 91.6, 653.0)">b</text><text xml:space="preserve" font-family="MuseoSans-700" font-weight="bold" font-size="24.0" fill="#585852" transform="matrix(1.00, 0.00, -0.00, -1.00, 106.3, 653.0)">r</text><text xml:space="preserve" font-family="MuseoSans-700" font-weight="bold" font-size="24.0" fill="#585852" transform="matrix(1.00, 0.00, -0.00, -1.00, 115.7, 653.0)">a</text><text xml:space="preserve" font-family="MuseoSans-700" font-weight="bold" font-size="24.0" fill="#585852" transform="matrix(1.00, 0.00, -0.00, -1.00, 128.4, 653.0)">t</text><text xml:space="preserve" font-family="MuseoSans-700" font-weight="bold" font-size="24.0" fill="#585852" transform="matrix(1.00, 0.00, -0.00, -1.00, 137.5, 653.0)">i</text><text xml:space="preserve" font-family="MuseoSans-700" font-weight="bold" font-size="24.0" fill="#585852" transform="matrix(1.00, 0.00, -0.00, -1.00, 143.9, 653.0)">o</text><text xml:space="preserve" font-family="MuseoSans-700" font-weight="bold" font-size="24.0" fill="#585852" transform="matrix(1.00, 0.00, -0.00, -1.00, 158.9, 653.0)">n</text><text xml:space="preserve" font-family="MuseoSans-700" font-weight="bold" font-size="24.0" fill="#585852" transform="matrix(1.00, 0.00, -0.00, -1.00, 173.6, 653.0)"> </text><text xml:space="preserve" font-family="MuseoSans-700" font-weight="bold" font-size="24.0" fill="#585852" transform="matrix(1.00, 0.00, -0.00, -1.00, 179.4, 653.0)">1</text><text xml:space="preserve" font-family="MuseoSans-700" font-weight="bold" font-size="24.0" fill="#585852" transform="matrix(1.00, 0.00, -0.00, -1.00, 191.7, 653.0)">0</text><text xml:space="preserve" font-family="MuseoSans-700" font-weight="bold" font-size="24.0" fill="#585852" transform="matrix(1.00, 0.00, -0.00, -1.00, 206.8, 653.0)">t</text><text xml:space="preserve" font-family="MuseoSans-700" font-weight="bold" font-size="24.0" fill="#585852" transform="matrix(1.00, 0.00, -0.00, -1.00, 215.9, 653.0)">h</text><text xml:space="preserve" font-family="MuseoSans-700" font-weight="bold" font-size="24.0" fill="#585852" transform="matrix(1.00, 0.00, -0.00, -1.00, 230.6, 653.0)"> </text><text xml:space="preserve" font-family="MuseoSans-700" font-weight="bold" font-size="24.0" fill="#585852" transform="matrix(1.00, 0.00, -0.00, -1.00, 236.4, 653.0)">A</text><text xml:space="preserve" font-family="MuseoSans-700" font-weight="bold" font-size="24.0" fill="#585852" transform="matrix(1.00, 0.00, -0.00, -1.00, 251.7, 653.0)">n</text><text xml:space="preserve" font-family="MuseoSans-700" font-weight="bold" font-size="24.0" fill="#585852" transform="matrix(1.00, 0.00, -0.00, -1.00, 266.4, 653.0)">n</text><text xml:space="preserve" font-family="MuseoSans-700" font-weight="bold" font-size="24.0" fill="#585852" transform="matrix(1.00, 0.00, -0.00, -1.00, 281.1, 653.0)">i</text><text xml:space="preserve" font-family="MuseoSans-700" font-weight="bold" font-size="24.0" fill="#585852" transform="matrix(1.00, 0.00, -0.00, -1.00, 287.5, 653.0)">v</text><text xml:space="preserve" font-family="MuseoSans-700" font-weight="bold" font-size="24.0" fill="#585852" transform="matrix(1.00, 0.00, -0.00, -1.00, 300.0, 653.0)">e</text><text xml:space="preserve" font-family="MuseoSans-700" font-weight="bold" font-size="24.0" fill="#585852" transform="matrix(1.00, 0.00, -0.00, -1.00, 313.3, 653.0)">r</text><text xml:space="preserve" font-family="MuseoSans-700" font-weight="bold" font-size="24.0" fill="#585852" transform="matrix(1.00, 0.00, -0.00, -1.00, 322.7, 653.0)">s</text><text xml:space="preserve" font-family="MuseoSans-700" font-weight="bold" font-size="24.0" fill="#585852" transform="matrix(1.00, 0.00, -0.00, -1.00, 333.6, 653.0)">a</text><text xml:space="preserve" font-family="MuseoSans-700" font-weight="bold" font-size="24.0" fill="#585852" transform="matrix(1.00, 0.00, -0.00, -1.00, 346.4, 653.0)">r</text><text xml:space="preserve" font-family="MuseoSans-700" font-weight="bold" font-size="24.0" fill="#585852" transform="matrix(1.00, 0.00, -0.00, -1.00, 356.3, 653.0)">y</text><text xml:space="preserve" font-family="MuseoSans-700" font-weight="bold" font-size="24.0" fill="#585852" transform="matrix(1.00, 0.00, -0.00, -1.00, 368.8, 653.0)"> </text><text xml:space="preserve" font-family="MuseoSans-500" font-size="20.0" fill="#585852" transform="matrix(1.00, 0.00, -0.00, -1.00, 41.0, 628.0)">Y</text><text xml:space="preserve" font-family="MuseoSans-500" font-size="20.0" fill="#585852" transform="matrix(1.00, 0.00, -0.00, -1.00, 52.8, 628.0)">N</text><text xml:space="preserve" font-family="MuseoSans-500" font-size="20.0" fill="#585852" transform="matrix(1.00, 0.00, -0.00, -1.00, 67.9, 628.0)"> </text><text xml:space="preserve" font-family="MuseoSans-500" font-size="20.0" fill="#585852" transform="matrix(1.00, 0.00, -0.00, -1.00, 73.0, 628.0)">+</text><text xml:space="preserve" font-family="MuseoSans-500" font-size="20.0" fill="#585852" transform="matrix(1.00, 0.00, -0.00, -1.00, 86.7, 628.0)">5</text><text xml:space="preserve" font-family="MuseoSans-500" font-size="20.0" fill="#585852" transform="matrix(1.00, 0.00, -0.00, -1.00, 98.0, 628.0)">0</text><text xml:space="preserve" font-family="MuseoSans-500" font-size="20.0" fill="#585852" transform="matrix(1.00, 0.00, -0.00, -1.00, 110.5, 628.0)"> </text><text xml:space="preserve" font-family="MuseoSans-300" font-size="20.0" fill="#585852" transform="matrix(1.00, 0.00, -0.00, -1.00, 41.0, 575.0)">A</text><text xml:space="preserve" font-family="MuseoSans-300" font-size="20.0" fill="#585852" transform="matrix(1.00, 0.00, -0.00, -1.00, 53.3, 575.0)">p</text><text xml:space="preserve" font-family="MuseoSans-300" font-size="20.0" fill="#585852" transform="matrix(1.00, 0.00, -0.00, -1.00, 65.1, 575.0)">r</text><text xml:space="preserve" font-family="MuseoSans-300" font-size="20.0" fill="#585852" transform="matrix(1.00, 0.00, -0.00, -1.00, 72.2, 575.0)">i</text><text xml:space="preserve" font-family="MuseoSans-300" font-size="20.0" fill="#585852" transform="matrix(1.00, 0.00, -0.00, -1.00, 76.9, 575.0)">l</text><text xml:space="preserve" font-family="MuseoSans-300" font-size="20.0" fill="#585852" transform="matrix(1.00, 0.00, -0.00, -1.00, 81.8, 575.0)"> </text><text xml:space="preserve" font-family="MuseoSans-300" font-size="20.0" fill="#585852" transform="matrix(1.00, 0.00, -0.00, -1.00, 87.2, 575.0)">2</text><text xml:space="preserve" font-family="MuseoSans-300" font-size="20.0" fill="#585852" transform="matrix(1.00, 0.00, -0.00, -1.00, 98.5, 575.0)">0</text><text xml:space="preserve" font-family="MuseoSans-300" font-size="20.0" fill="#585852" transform="matrix(1.00, 0.00, -0.00, -1.00, 111.0, 575.0)">1</text><text xml:space="preserve" font-family="MuseoSans-300" font-size="20.0" fill="#585852" transform="matrix(1.00, 0.00, -0.00, -1.00, 120.3, 575.0)">1</text><text xml:space="preserve" font-family="MuseoSans-300" font-size="20.0" fill="#585852" transform="matrix(1.00, 0.00, -0.00, -1.00, 129.6, 575.0)"> </text><text xml:space="preserve" font-family="MuseoSans-300" font-size="20.0" fill="#585852" transform="matrix(1.00, 0.00, -0.00, -1.00, 135.0, 575.0)">m</text><text xml:space="preserve" font-family="MuseoSans-300" font-size="20.0" fill="#585852" transform="matrix(1.00, 0.00, -0.00, -1.00, 153.3, 575.0)">a</text><text xml:space="preserve" font-family="MuseoSans-300" font-size="20.0" fill="#585852" transform="matrix(1.00, 0.00, -0.00, -1.00, 163.7, 575.0)">r</text><text xml:space="preserve" font-family="MuseoSans-300" font-size="20.0" fill="#585852" transform="matrix(1.00, 0.00, -0.00, -1.00, 170.8, 575.0)">k</text><text xml:space="preserve" font-family="MuseoSans-300" font-size="20.0" fill="#585852" transform="matrix(1.00, 0.00, -0.00, -1.00, 180.7, 575.0)">e</text><text xml:space="preserve" font-family="MuseoSans-300" font-size="20.0" fill="#585852" transform="matrix(1.00, 0.00, -0.00, -1.00, 191.8, 575.0)">d</text><text xml:space="preserve" font-family="MuseoSans-300" font-size="20.0" fill="#585852" transform="matrix(1.00, 0.00, -0.00, -1.00, 203.6, 575.0)"> </text><text xml:space="preserve" font-family="MuseoSans-300" font-size="20.0" fill="#585852" transform="matrix(1.00, 0.00, -0.00, -1.00, 208.9, 575.0)">t</text><text xml:space="preserve" font-family="MuseoSans-300" font-size="20.0" fill="#585852" transform="matrix(1.00, 0.00, -0.00, -1.00, 215.6, 575.0)">h</text><text xml:space="preserve" font-family="MuseoSans-300" font-size="20.0" fill="#585852" transform="matrix(1.00, 0.00, -0.00, -1.00, 227.5, 575.0)">e</text><text xml:space="preserve" font-family="MuseoSans-300" font-size="20.0" fill="#585852" transform="matrix(1.00, 0.00, -0.00, -1.00, 238.6, 575.0)"> </text><text xml:space="preserve" font-family="MuseoSans-300" font-size="20.0" fill="#585852" transform="matrix(1.00, 0.00, -0.00, -1.00, 243.9, 575.0)">5</text><text xml:space="preserve" font-family="MuseoSans-300" font-size="20.0" fill="#585852" transform="matrix(1.00, 0.00, -0.00, -1.00, 255.1, 575.0)">0</text><text xml:space="preserve" font-family="MuseoSans-300" font-size="20.0" fill="#585852" transform="matrix(1.00, 0.00, -0.00, -1.00, 267.6, 575.0)">t</text><text xml:space="preserve" font-family="MuseoSans-300" font-size="20.0" fill="#585852" transform="matrix(1.00, 0.00, -0.00, -1.00, 274.3, 575.0)">h</text><text xml:space="preserve" font-family="MuseoSans-300" font-size="20.0" fill="#585852" transform="matrix(1.00, 0.00, -0.00, -1.00, 286.2, 575.0)"> </text><text xml:space="preserve" font-family="MuseoSans-300" font-size="20.0" fill="#585852" transform="matrix(1.00, 0.00, -0.00, -1.00, 291.5, 575.0)">a</text><text xml:space="preserve" font-family="MuseoSans-300" font-size="20.0" fill="#585852" transform="matrix(1.00, 0.00, -0.00, -1.00, 301.9, 575.0)">n</text><text xml:space="preserve" font-family="MuseoSans-300" font-size="20.0" fill="#585852" transform="matrix(1.00, 0.00, -0.00, -1.00, 313.8, 575.0)">n</text><text xml:space="preserve" font-family="MuseoSans-300" font-size="20.0" fill="#585852" transform="matrix(1.00, 0.00, -0.00, -1.00, 325.7, 575.0)">i</text><text xml:space="preserve" font-family="MuseoSans-300" font-size="20.0" fill="#585852" transform="matrix(1.00, 0.00, -0.00, -1.00, 330.3, 575.0)">v</text><text xml:space="preserve" font-family="MuseoSans-300" font-size="20.0" fill="#585852" transform="matrix(1.00, 0.00, -0.00, -1.00, 340.0, 575.0)">e</text><text xml:space="preserve" font-family="MuseoSans-300" font-size="20.0" fill="#585852" transform="matrix(1.00, 0.00, -0.00, -1.00, 351.1, 575.0)">r</text><text xml:space="preserve" font-family="MuseoSans-300" font-size="20.0" fill="#585852" transform="matrix(1.00, 0.00, -0.00, -1.00, 358.2, 575.0)">s</text><text xml:space="preserve" font-family="MuseoSans-300" font-size="20.0" fill="#585852" transform="matrix(1.00, 0.00, -0.00, -1.00, 367.0, 575.0)">a</text><text xml:space="preserve" font-family="MuseoSans-300" font-size="20.0" fill="#585852" transform="matrix(1.00, 0.00, -0.00, -1.00, 377.4, 575.0)">r</text><text xml:space="preserve" font-family="MuseoSans-300" font-size="20.0" fill="#585852" transform="matrix(1.00, 0.00, -0.00, -1.00, 384.6, 575.0)">y</text><text xml:space="preserve" font-family="MuseoSans-300" font-size="20.0" fill="#585852" transform="matrix(1.00, 0.00, -0.00, -1.00, 394.5, 575.0)"> </text><text xml:space="preserve" font-family="MuseoSans-300" font-size="20.0" fill="#585852" transform="matrix(1.00, 0.00, -0.00, -1.00, 399.9, 575.0)">o</text><text xml:space="preserve" font-family="MuseoSans-300" font-size="20.0" fill="#585852" transform="matrix(1.00, 0.00, -0.00, -1.00, 412.3, 575.0)">f</text><text xml:space="preserve" font-family="MuseoSans-300" font-size="20.0" fill="#585852" transform="matrix(1.00, 0.00, -0.00, -1.00, 418.7, 575.0)"> </text><text xml:space="preserve" font-family="MuseoSans-300" font-size="20.0" fill="#585852" transform="matrix(1.00, 0.00, -0.00, -1.00, 424.1, 575.0)">G</text><text xml:space="preserve" font-family="MuseoSans-300" font-size="20.0" fill="#585852" transform="matrix(1.00, 0.00, -0.00, -1.00, 439.2, 575.0)">a</text><text xml:space="preserve" font-family="MuseoSans-300" font-size="20.0" fill="#585852" transform="matrix(1.00, 0.00, -0.00, -1.00, 449.6, 575.0)">g</text><text xml:space="preserve" font-family="MuseoSans-300" font-size="20.0" fill="#585852" transform="matrix(1.00, 0.00, -0.00, -1.00, 461.3, 575.0)">a</text><text xml:space="preserve" font-family="MuseoSans-300" font-size="20.0" fill="#585852" transform="matrix(1.00, 0.00, -0.00, -1.00, 471.7, 575.0)">r</text><text xml:space="preserve" font-family="MuseoSans-300" font-size="20.0" fill="#585852" transform="matrix(1.00, 0.00, -0.00, -1.00, 478.8, 575.0)">i</text><text xml:space="preserve" font-family="MuseoSans-300" font-size="20.0" fill="#585852" transform="matrix(1.00, 0.00, -0.00, -1.00, 483.4, 575.0)">n</text><text xml:space="preserve" font-family="MuseoSans-300" font-size="20.0" fill="#585852" transform="matrix(1.00, 0.00, -0.00, -1.00, 495.3, 575.0)">'</text><text xml:space="preserve" font-family="MuseoSans-300" font-size="20.0" fill="#585852" transform="matrix(1.00, 0.00, -0.00, -1.00, 499.2, 575.0)">s</text><text xml:space="preserve" font-family="MuseoSans-300" font-size="20.0" fill="#585852" transform="matrix(1.00, 0.00, -0.00, -1.00, 508.1, 575.0)"> </text><text xml:space="preserve" font-family="MuseoSans-300" font-size="20.0" fill="#585852" transform="matrix(1.00, 0.00, -0.00, -1.00, 513.5, 575.0)">h</text><text xml:space="preserve" font-family="MuseoSans-300" font-size="20.0" fill="#585852" transform="matrix(1.00, 0.00, -0.00, -1.00, 525.3, 575.0)">i</text><text xml:space="preserve" font-family="MuseoSans-300" font-size="20.0" fill="#585852" transform="matrix(1.00, 0.00, -0.00, -1.00, 530.0, 575.0)">s</text><text xml:space="preserve" font-family="MuseoSans-300" font-size="20.0" fill="#585852" transform="matrix(1.00, 0.00, -0.00, -1.00, 538.8, 575.0)">t</text><text xml:space="preserve" font-family="MuseoSans-300" font-size="20.0" fill="#585852" transform="matrix(1.00, 0.00, -0.00, -1.00, 545.5, 575.0)">o</text><text xml:space="preserve" font-family="MuseoSans-300" font-size="20.0" fill="#585852" transform="matrix(1.00, 0.00, -0.00, -1.00, 558.0, 575.0)">r</text><text xml:space="preserve" font-family="MuseoSans-300" font-size="20.0" fill="#585852" transform="matrix(1.00, 0.00, -0.00, -1.00, 565.1, 575.0)">i</text><text xml:space="preserve" font-family="MuseoSans-300" font-size="20.0" fill="#585852" transform="matrix(1.00, 0.00, -0.00, -1.00, 569.7, 575.0)">c</text><text xml:space="preserve" font-family="MuseoSans-300" font-size="20.0" fill="#585852" transform="matrix(1.00, 0.00, -0.00, -1.00, 580.7, 575.0)"> </text><text xml:space="preserve" font-family="MuseoSans-300" font-size="20.0" fill="#585852" transform="matrix(1.00, 0.00, -0.00, -1.00, 586.1, 575.0)">ﬁ</text><text xml:space="preserve" font-family="MuseoSans-300" font-size="20.0" fill="#585852" transform="matrix(1.00, 0.00, -0.00, -1.00, 597.1, 575.0)">r</text><text xml:space="preserve" font-family="MuseoSans-300" font-size="20.0" fill="#585852" transform="matrix(1.00, 0.00, -0.00, -1.00, 604.3, 575.0)">s</text><text xml:space="preserve" font-family="MuseoSans-300" font-size="20.0" fill="#585852" transform="matrix(1.00, 0.00, -0.00, -1.00, 613.1, 575.0)">t</text><text xml:space="preserve" font-family="MuseoSans-300" font-size="20.0" fill="#585852" transform="matrix(1.00, 0.00, -0.00, -1.00, 619.8, 575.0)"> </text><text xml:space="preserve" font-family="MuseoSans-300" font-size="20.0" fill="#585852" transform="matrix(1.00, 0.00, -0.00, -1.00, 625.2, 575.0)">ﬂ</text><text xml:space="preserve" font-family="MuseoSans-300" font-size="20.0" fill="#585852" transform="matrix(1.00, 0.00, -0.00, -1.00, 636.5, 575.0)">i</text><text xml:space="preserve" font-family="MuseoSans-300" font-size="20.0" fill="#585852" transform="matrix(1.00, 0.00, -0.00, -1.00, 641.2, 575.0)">g</text><text xml:space="preserve" font-family="MuseoSans-300" font-size="20.0" fill="#585852" transform="matrix(1.00, 0.00, -0.00, -1.00, 652.8, 575.0)">h</text><text xml:space="preserve" font-family="MuseoSans-300" font-size="20.0" fill="#585852" transform="matrix(1.00, 0.00, -0.00, -1.00, 664.7, 575.0)">t</text><text xml:space="preserve" font-family="MuseoSans-300" font-size="20.0" fill="#585852" transform="matrix(1.00, 0.00, -0.00, -1.00, 671.4, 575.0)">.</text><text xml:space="preserve" font-family="MuseoSans-300" font-size="20.0" fill="#585852" transform="matrix(1.00, 0.00, -0.00, -1.00, 676.3, 575.0)">]</text><text xml:space="preserve" font-family="MuseoSans-300" font-size="20.0" fill="#585852" transform="matrix(1.00, 0.00, -0.00, -1.00, 682.0, 575.0)"> </text><text xml:space="preserve" font-family="MuseoSans-300" font-size="20.0" fill="#585852" transform="matrix(1.00, 0.00, -0.00, -1.00, 687.3, 575.0)">O</text><text xml:space="preserve" font-family="MuseoSans-300" font-size="20.0" fill="#585852" transform="matrix(1.00, 0.00, -0.00, -1.00, 703.8, 575.0)">v</text><text xml:space="preserve" font-family="MuseoSans-300" font-size="20.0" fill="#585852" transform="matrix(1.00, 0.00, -0.00, -1.00, 713.5, 575.0)">e</text><text xml:space="preserve" font-family="MuseoSans-300" font-size="20.0" fill="#585852" transform="matrix(1.00, 0.00, -0.00, -1.00, 724.6, 575.0)">r</text><text xml:space="preserve" font-family="MuseoSans-300" font-size="20.0" fill="#585852" transform="matrix(1.00, 0.00, -0.00, -1.00, 731.7, 575.0)"> </text><text xml:space="preserve" font-family="MuseoSans-300" font-size="20.0" fill="#585852" transform="matrix(1.00, 0.00, -0.00, -1.00, 737.1, 575.0)">1</text><text xml:space="preserve" font-family="MuseoSans-300" font-size="20.0" fill="#585852" transform="matrix(1.00, 0.00, -0.00, -1.00, 746.4, 575.0)">0</text><text xml:space="preserve" font-family="MuseoSans-300" font-size="20.0" fill="#585852" transform="matrix(1.00, 0.00, -0.00, -1.00, 758.9, 575.0)">0</text><text xml:space="preserve" font-family="MuseoSans-300" font-size="20.0" fill="#585852" transform="matrix(1.00, 0.00, -0.00, -1.00, 770.9, 575.0)">,</text><text xml:space="preserve" font-family="MuseoSans-300" font-size="20.0" fill="#585852" transform="matrix(1.00, 0.00, -0.00, -1.00, 775.4, 575.0)">0</text><text xml:space="preserve" font-family="MuseoSans-300" font-size="20.0" fill="#585852" transform="matrix(1.00, 0.00, -0.00, -1.00, 787.9, 575.0)">0</text><text xml:space="preserve" font-family="MuseoSans-300" font-size="20.0" fill="#585852" transform="matrix(1.00, 0.00, -0.00, -1.00, 800.4, 575.0)">0</text><text xml:space="preserve" font-family="MuseoSans-300" font-size="20.0" fill="#585852" transform="matrix(1.00, 0.00, -0.00, -1.00, 812.9, 575.0)"> </text><text xml:space="preserve" font-family="MuseoSans-300" font-size="20.0" fill="#585852" transform="matrix(1.00, 0.00, -0.00, -1.00, 818.2, 575.0)">p</text><text xml:space="preserve" font-family="MuseoSans-300" font-size="20.0" fill="#585852" transform="matrix(1.00, 0.00, -0.00, -1.00, 830.0, 575.0)">e</text><text xml:space="preserve" font-family="MuseoSans-300" font-size="20.0" fill="#585852" transform="matrix(1.00, 0.00, -0.00, -1.00, 841.1, 575.0)">o</text><text xml:space="preserve" font-family="MuseoSans-300" font-size="20.0" fill="#585852" transform="matrix(1.00, 0.00, -0.00, -1.00, 853.5, 575.0)">p</text><text xml:space="preserve" font-family="MuseoSans-300" font-size="20.0" fill="#585852" transform="matrix(1.00, 0.00, -0.00, -1.00, 865.3, 575.0)">l</text><text xml:space="preserve" font-family="MuseoSans-300" font-size="20.0" fill="#585852" transform="matrix(1.00, 0.00, -0.00, -1.00, 870.2, 575.0)">e</text><text xml:space="preserve" font-family="MuseoSans-300" font-size="20.0" fill="#585852" transform="matrix(1.00, 0.00, -0.00, -1.00, 881.3, 575.0)"> </text><text xml:space="preserve" font-family="MuseoSans-300" font-size="20.0" fill="#585852" transform="matrix(1.00, 0.00, -0.00, -1.00, 41.0, 551.0)">a</text><text xml:space="preserve" font-family="MuseoSans-300" font-size="20.0" fill="#585852" transform="matrix(1.00, 0.00, -0.00, -1.00, 51.3, 551.0)">t</text><text xml:space="preserve" font-family="MuseoSans-300" font-size="20.0" fill="#585852" transform="matrix(1.00, 0.00, -0.00, -1.00, 58.0, 551.0)">t</text><text xml:space="preserve" font-family="MuseoSans-300" font-size="20.0" fill="#585852" transform="matrix(1.00, 0.00, -0.00, -1.00, 64.7, 551.0)">e</text><text xml:space="preserve" font-family="MuseoSans-300" font-size="20.0" fill="#585852" transform="matrix(1.00, 0.00, -0.00, -1.00, 75.8, 551.0)">n</text><text xml:space="preserve" font-family="MuseoSans-300" font-size="20.0" fill="#585852" transform="matrix(1.00, 0.00, -0.00, -1.00, 87.7, 551.0)">d</text><text xml:space="preserve" font-family="MuseoSans-300" font-size="20.0" fill="#585852" transform="matrix(1.00, 0.00, -0.00, -1.00, 99.4, 551.0)">e</text><text xml:space="preserve" font-family="MuseoSans-300" font-size="20.0" fill="#585852" transform="matrix(1.00, 0.00, -0.00, -1.00, 110.5, 551.0)">d</text><text xml:space="preserve" font-family="MuseoSans-300" font-size="20.0" fill="#585852" transform="matrix(1.00, 0.00, -0.00, -1.00, 122.3, 551.0)"> </text><text xml:space="preserve" font-family="MuseoSans-300" font-size="20.0" fill="#585852" transform="matrix(1.00, 0.00, -0.00, -1.00, 127.7, 551.0)">5</text><text xml:space="preserve" font-family="MuseoSans-300" font-size="20.0" fill="#585852" transform="matrix(1.00, 0.00, -0.00, -1.00, 138.8, 551.0)">6</text><text xml:space="preserve" font-family="MuseoSans-300" font-size="20.0" fill="#585852" transform="matrix(1.00, 0.00, -0.00, -1.00, 150.7, 551.0)">7</text><text xml:space="preserve" font-family="MuseoSans-300" font-size="20.0" fill="#585852" transform="matrix(1.00, 0.00, -0.00, -1.00, 161.1, 551.0)"> </text><text xml:space="preserve" font-family="MuseoSans-300" font-size="20.0" fill="#585852" transform="matrix(1.00, 0.00, -0.00, -1.00, 166.5, 551.0)">Y</text><text xml:space="preserve" font-family="MuseoSans-300" font-size="20.0" fill="#585852" transform="matrix(1.00, 0.00, -0.00, -1.00, 177.3, 551.0)">u</text><text xml:space="preserve" font-family="MuseoSans-300" font-size="20.0" fill="#585852" transform="matrix(1.00, 0.00, -0.00, -1.00, 189.1, 551.0)">r</text><text xml:space="preserve" font-family="MuseoSans-300" font-size="20.0" fill="#585852" transform="matrix(1.00, 0.00, -0.00, -1.00, 196.2, 551.0)">i</text><text xml:space="preserve" font-family="MuseoSans-300" font-size="20.0" fill="#585852" transform="matrix(1.00, 0.00, -0.00, -1.00, 200.8, 551.0)">'</text><text xml:space="preserve" font-family="MuseoSans-300" font-size="20.0" fill="#585852" transform="matrix(1.00, 0.00, -0.00, -1.00, 204.8, 551.0)">s</text><text xml:space="preserve" font-family="MuseoSans-300" font-size="20.0" fill="#585852" transform="matrix(1.00, 0.00, -0.00, -1.00, 213.6, 551.0)"> </text><text xml:space="preserve" font-family="MuseoSans-300" font-size="20.0" fill="#585852" transform="matrix(1.00, 0.00, -0.00, -1.00, 219.0, 551.0)">N</text><text xml:space="preserve" font-family="MuseoSans-300" font-size="20.0" fill="#585852" transform="matrix(1.00, 0.00, -0.00, -1.00, 234.1, 551.0)">i</text><text xml:space="preserve" font-family="MuseoSans-300" font-size="20.0" fill="#585852" transform="matrix(1.00, 0.00, -0.00, -1.00, 238.7, 551.0)">g</text><text xml:space="preserve" font-family="MuseoSans-300" font-size="20.0" fill="#585852" transform="matrix(1.00, 0.00, -0.00, -1.00, 250.4, 551.0)">h</text><text xml:space="preserve" font-family="MuseoSans-300" font-size="20.0" fill="#585852" transform="matrix(1.00, 0.00, -0.00, -1.00, 262.2, 551.0)">t</text><text xml:space="preserve" font-family="MuseoSans-300" font-size="20.0" fill="#585852" transform="matrix(1.00, 0.00, -0.00, -1.00, 268.9, 551.0)"> </text><text xml:space="preserve" font-family="MuseoSans-300" font-size="20.0" fill="#585852" transform="matrix(1.00, 0.00, -0.00, -1.00, 274.3, 551.0)">p</text><text xml:space="preserve" font-family="MuseoSans-300" font-size="20.0" fill="#585852" transform="matrix(1.00, 0.00, -0.00, -1.00, 286.1, 551.0)">a</text><text xml:space="preserve" font-family="MuseoSans-300" font-size="20.0" fill="#585852" transform="matrix(1.00, 0.00, -0.00, -1.00, 296.5, 551.0)">r</text><text xml:space="preserve" font-family="MuseoSans-300" font-size="20.0" fill="#585852" transform="matrix(1.00, 0.00, -0.00, -1.00, 303.6, 551.0)">t</text><text xml:space="preserve" font-family="MuseoSans-300" font-size="20.0" fill="#585852" transform="matrix(1.00, 0.00, -0.00, -1.00, 310.3, 551.0)">i</text><text xml:space="preserve" font-family="MuseoSans-300" font-size="20.0" fill="#585852" transform="matrix(1.00, 0.00, -0.00, -1.00, 314.9, 551.0)">e</text><text xml:space="preserve" font-family="MuseoSans-300" font-size="20.0" fill="#585852" transform="matrix(1.00, 0.00, -0.00, -1.00, 326.0, 551.0)">s</text><text xml:space="preserve" font-family="MuseoSans-300" font-size="20.0" fill="#585852" transform="matrix(1.00, 0.00, -0.00, -1.00, 334.9, 551.0)"> </text><text xml:space="preserve" font-family="MuseoSans-300" font-size="20.0" fill="#585852" transform="matrix(1.00, 0.00, -0.00, -1.00, 340.2, 551.0)">i</text><text xml:space="preserve" font-family="MuseoSans-300" font-size="20.0" fill="#585852" transform="matrix(1.00, 0.00, -0.00, -1.00, 344.9, 551.0)">n</text><text xml:space="preserve" font-family="MuseoSans-300" font-size="20.0" fill="#585852" transform="matrix(1.00, 0.00, -0.00, -1.00, 356.7, 551.0)"> </text><text xml:space="preserve" font-family="MuseoSans-300" font-size="20.0" fill="#585852" transform="matrix(1.00, 0.00, -0.00, -1.00, 362.1, 551.0)">7</text><text xml:space="preserve" font-family="MuseoSans-300" font-size="20.0" fill="#585852" transform="matrix(1.00, 0.00, -0.00, -1.00, 372.5, 551.0)">5</text><text xml:space="preserve" font-family="MuseoSans-300" font-size="20.0" fill="#585852" transform="matrix(1.00, 0.00, -0.00, -1.00, 383.7, 551.0)"> </text><text xml:space="preserve" font-family="MuseoSans-300" font-size="20.0" fill="#585852" transform="matrix(1.00, 0.00, -0.00, -1.00, 389.1, 551.0)">c</text><text xml:space="preserve" font-family="MuseoSans-300" font-size="20.0" fill="#585852" transform="matrix(1.00, 0.00, -0.00, -1.00, 400.0, 551.0)">o</text><text xml:space="preserve" font-family="MuseoSans-300" font-size="20.0" fill="#585852" transform="matrix(1.00, 0.00, -0.00, -1.00, 412.5, 551.0)">u</text><text xml:space="preserve" font-family="MuseoSans-300" font-size="20.0" fill="#585852" transform="matrix(1.00, 0.00, -0.00, -1.00, 424.2, 551.0)">n</text><text xml:space="preserve" font-family="MuseoSans-300" font-size="20.0" fill="#585852" transform="matrix(1.00, 0.00, -0.00, -1.00, 436.1, 551.0)">t</text><text xml:space="preserve" font-family="MuseoSans-300" font-size="20.0" fill="#585852" transform="matrix(1.00, 0.00, -0.00, -1.00, 442.8, 551.0)">r</text><text xml:space="preserve" font-family="MuseoSans-300" font-size="20.0" fill="#585852" transform="matrix(1.00, 0.00, -0.00, -1.00, 449.9, 551.0)">i</text><text xml:space="preserve" font-family="MuseoSans-300" font-size="20.0" fill="#585852" transform="matrix(1.00, 0.00, -0.00, -1.00, 454.6, 551.0)">e</text><text xml:space="preserve" font-family="MuseoSans-300" font-size="20.0" fill="#585852" transform="matrix(1.00, 0.00, -0.00, -1.00, 465.6, 551.0)">s</text><text xml:space="preserve" font-family="MuseoSans-300" font-size="20.0" fill="#585852" transform="matrix(1.00, 0.00, -0.00, -1.00, 474.5, 551.0)">,</text><text xml:space="preserve" font-family="MuseoSans-300" font-size="20.0" fill="#585852" transform="matrix(1.00, 0.00, -0.00, -1.00, 479.4, 551.0)"> </text><text xml:space="preserve" font-family="MuseoSans-300" font-size="20.0" fill="#585852" transform="matrix(1.00, 0.00, -0.00, -1.00, 484.7, 551.0)">a</text><text xml:space="preserve" font-family="MuseoSans-300" font-size="20.0" fill="#585852" transform="matrix(1.00, 0.00, -0.00, -1.00, 495.1, 551.0)">n</text><text xml:space="preserve" font-family="MuseoSans-300" font-size="20.0" fill="#585852" transform="matrix(1.00, 0.00, -0.00, -1.00, 507.0, 551.0)">d</text><text xml:space="preserve" font-family="MuseoSans-300" font-size="20.0" fill="#585852" transform="matrix(1.00, 0.00, -0.00, -1.00, 518.8, 551.0)"> </text><text xml:space="preserve" font-family="MuseoSans-300" font-size="20.0" fill="#585852" transform="matrix(1.00, 0.00, -0.00, -1.00, 524.2, 551.0)">t</text><text xml:space="preserve" font-family="MuseoSans-300" font-size="20.0" fill="#585852" transform="matrix(1.00, 0.00, -0.00, -1.00, 530.9, 551.0)">h</text><text xml:space="preserve" font-family="MuseoSans-300" font-size="20.0" fill="#585852" transform="matrix(1.00, 0.00, -0.00, -1.00, 542.7, 551.0)">e</text><text xml:space="preserve" font-family="MuseoSans-300" font-size="20.0" fill="#585852" transform="matrix(1.00, 0.00, -0.00, -1.00, 553.8, 551.0)"> </text><text xml:space="preserve" font-family="MuseoSans-300" font-size="20.0" fill="#585852" transform="matrix(1.00, 0.00, -0.00, -1.00, 559.2, 551.0)">c</text><text xml:space="preserve" font-family="MuseoSans-300" font-size="20.0" fill="#585852" transform="matrix(1.00, 0.00, -0.00, -1.00, 570.1, 551.0)">r</text><text xml:space="preserve" font-family="MuseoSans-300" font-size="20.0" fill="#585852" transform="matrix(1.00, 0.00, -0.00, -1.00, 577.1, 551.0)">e</text><text xml:space="preserve" font-family="MuseoSans-300" font-size="20.0" fill="#585852" transform="matrix(1.00, 0.00, -0.00, -1.00, 588.2, 551.0)">w</text><text xml:space="preserve" font-family="MuseoSans-300" font-size="20.0" fill="#585852" transform="matrix(1.00, 0.00, -0.00, -1.00, 604.2, 551.0)"> </text><text xml:space="preserve" font-family="MuseoSans-300" font-size="20.0" fill="#585852" transform="matrix(1.00, 0.00, -0.00, -1.00, 609.6, 551.0)">o</text><text xml:space="preserve" font-family="MuseoSans-300" font-size="20.0" fill="#585852" transform="matrix(1.00, 0.00, -0.00, -1.00, 622.0, 551.0)">f</text><text xml:space="preserve" font-family="MuseoSans-300" font-size="20.0" fill="#585852" transform="matrix(1.00, 0.00, -0.00, -1.00, 628.4, 551.0)"> </text><text xml:space="preserve" font-family="MuseoSans-300" font-size="20.0" fill="#585852" transform="matrix(1.00, 0.00, -0.00, -1.00, 633.8, 551.0)">E</text><text xml:space="preserve" font-family="MuseoSans-300" font-size="20.0" fill="#585852" transform="matrix(1.00, 0.00, -0.00, -1.00, 645.2, 551.0)">x</text><text xml:space="preserve" font-family="MuseoSans-300" font-size="20.0" fill="#585852" transform="matrix(1.00, 0.00, -0.00, -1.00, 655.0, 551.0)">p</text><text xml:space="preserve" font-family="MuseoSans-300" font-size="20.0" fill="#585852" transform="matrix(1.00, 0.00, -0.00, -1.00, 666.8, 551.0)">e</text><text xml:space="preserve" font-family="MuseoSans-300" font-size="20.0" fill="#585852" transform="matrix(1.00, 0.00, -0.00, -1.00, 677.8, 551.0)">d</text><text xml:space="preserve" font-family="MuseoSans-300" font-size="20.0" fill="#585852" transform="matrix(1.00, 0.00, -0.00, -1.00, 689.6, 551.0)">i</text><text xml:space="preserve" font-family="MuseoSans-300" font-size="20.0" fill="#585852" transform="matrix(1.00, 0.00, -0.00, -1.00, 694.3, 551.0)">t</text><text xml:space="preserve" font-family="MuseoSans-300" font-size="20.0" fill="#585852" transform="matrix(1.00, 0.00, -0.00, -1.00, 701.0, 551.0)">i</text><text xml:space="preserve" font-family="MuseoSans-300" font-size="20.0" fill="#585852" transform="matrix(1.00, 0.00, -0.00, -1.00, 705.6, 551.0)">o</text><text xml:space="preserve" font-family="MuseoSans-300" font-size="20.0" fill="#585852" transform="matrix(1.00, 0.00, -0.00, -1.00, 718.0, 551.0)">n</text><text xml:space="preserve" font-family="MuseoSans-300" font-size="20.0" fill="#585852" transform="matrix(1.00, 0.00, -0.00, -1.00, 729.9, 551.0)"> </text><text xml:space="preserve" font-family="MuseoSans-300" font-size="20.0" fill="#585852" transform="matrix(1.00, 0.00, -0.00, -1.00, 735.3, 551.0)">2</text><text xml:space="preserve" font-family="MuseoSans-300" font-size="20.0" fill="#585852" transform="matrix(1.00, 0.00, -0.00, -1.00, 746.6, 551.0)">7</text><text xml:space="preserve" font-family="MuseoSans-300" font-size="20.0" fill="#585852" transform="matrix(1.00, 0.00, -0.00, -1.00, 757.0, 551.0)"> </text><text xml:space="preserve" font-family="MuseoSans-300" font-size="20.0" fill="#585852" transform="matrix(1.00, 0.00, -0.00, -1.00, 762.4, 551.0)">r</text><text xml:space="preserve" font-family="MuseoSans-300" font-size="20.0" fill="#585852" transform="matrix(1.00, 0.00, -0.00, -1.00, 769.4, 551.0)">e</text><text xml:space="preserve" font-family="MuseoSans-300" font-size="20.0" fill="#585852" transform="matrix(1.00, 0.00, -0.00, -1.00, 780.4, 551.0)">c</text><text xml:space="preserve" font-family="MuseoSans-300" font-size="20.0" fill="#585852" transform="matrix(1.00, 0.00, -0.00, -1.00, 791.4, 551.0)">o</text><text xml:space="preserve" font-family="MuseoSans-300" font-size="20.0" fill="#585852" transform="matrix(1.00, 0.00, -0.00, -1.00, 803.8, 551.0)">r</text><text xml:space="preserve" font-family="MuseoSans-300" font-size="20.0" fill="#585852" transform="matrix(1.00, 0.00, -0.00, -1.00, 810.9, 551.0)">d</text><text xml:space="preserve" font-family="MuseoSans-300" font-size="20.0" fill="#585852" transform="matrix(1.00, 0.00, -0.00, -1.00, 822.7, 551.0)">e</text><text xml:space="preserve" font-family="MuseoSans-300" font-size="20.0" fill="#585852" transform="matrix(1.00, 0.00, -0.00, -1.00, 833.7, 551.0)">d</text><text xml:space="preserve" font-family="MuseoSans-300" font-size="20.0" fill="#585852" transform="matrix(1.00, 0.00, -0.00, -1.00, 845.5, 551.0)"> </text><text xml:space="preserve" font-family="MuseoSans-300" font-size="20.0" fill="#585852" transform="matrix(1.00, 0.00, -0.00, -1.00, 850.9, 551.0)">a</text><text xml:space="preserve" font-family="MuseoSans-300" font-size="20.0" fill="#585852" transform="matrix(1.00, 0.00, -0.00, -1.00, 861.3, 551.0)"> </text><text xml:space="preserve" font-family="MuseoSans-300" font-size="20.0" fill="#585852" transform="matrix(1.00, 0.00, -0.00, -1.00, 866.7, 551.0)">Y</text><text xml:space="preserve" font-family="MuseoSans-300" font-size="20.0" fill="#585852" transform="matrix(1.00, 0.00, -0.00, -1.00, 877.5, 551.0)">u</text><text xml:space="preserve" font-family="MuseoSans-300" font-size="20.0" fill="#585852" transform="matrix(1.00, 0.00, -0.00, -1.00, 889.2, 551.0)">r</text><text xml:space="preserve" font-family="MuseoSans-300" font-size="20.0" fill="#585852" transform="matrix(1.00, 0.00, -0.00, -1.00, 896.4, 551.0)">i</text><text xml:space="preserve" font-family="MuseoSans-300" font-size="20.0" fill="#585852" transform="matrix(1.00, 0.00, -0.00, -1.00, 901.0, 551.0)">'</text><text xml:space="preserve" font-family="MuseoSans-300" font-size="20.0" fill="#585852" transform="matrix(1.00, 0.00, -0.00, -1.00, 904.9, 551.0)">s</text><text xml:space="preserve" font-family="MuseoSans-300" font-size="20.0" fill="#585852" transform="matrix(1.00, 0.00, -0.00, -1.00, 913.8, 551.0)"> </text><text xml:space="preserve" font-family="MuseoSans-300" font-size="20.0" fill="#585852" transform="matrix(1.00, 0.00, -0.00, -1.00, 41.0, 527.0)">N</text><text xml:space="preserve" font-family="MuseoSans-300" font-size="20.0" fill="#585852" transform="matrix(1.00, 0.00, -0.00, -1.00, 56.1, 527.0)">i</text><text xml:space="preserve" font-family="MuseoSans-300" font-size="20.0" fill="#585852" transform="matrix(1.00, 0.00, -0.00, -1.00, 60.7, 527.0)">g</text><text xml:space="preserve" font-family="MuseoSans-300" font-size="20.0" fill="#585852" transform="matrix(1.00, 0.00, -0.00, -1.00, 72.3, 527.0)">h</text><text xml:space="preserve" font-family="MuseoSans-300" font-size="20.0" fill="#585852" transform="matrix(1.00, 0.00, -0.00, -1.00, 84.2, 527.0)">t</text><text xml:space="preserve" font-family="MuseoSans-300" font-size="20.0" fill="#585852" transform="matrix(1.00, 0.00, -0.00, -1.00, 90.9, 527.0)"> </text><text xml:space="preserve" font-family="MuseoSans-300" font-size="20.0" fill="#585852" transform="matrix(1.00, 0.00, -0.00, -1.00, 96.3, 527.0)">c</text><text xml:space="preserve" font-family="MuseoSans-300" font-size="20.0" fill="#585852" transform="matrix(1.00, 0.00, -0.00, -1.00, 107.3, 527.0)">e</text><text xml:space="preserve" font-family="MuseoSans-300" font-size="20.0" fill="#585852" transform="matrix(1.00, 0.00, -0.00, -1.00, 118.3, 527.0)">l</text><text xml:space="preserve" font-family="MuseoSans-300" font-size="20.0" fill="#585852" transform="matrix(1.00, 0.00, -0.00, -1.00, 123.3, 527.0)">e</text><text xml:space="preserve" font-family="MuseoSans-300" font-size="20.0" fill="#585852" transform="matrix(1.00, 0.00, -0.00, -1.00, 134.3, 527.0)">b</text><text xml:space="preserve" font-family="MuseoSans-300" font-size="20.0" fill="#585852" transform="matrix(1.00, 0.00, -0.00, -1.00, 146.1, 527.0)">r</text><text xml:space="preserve" font-family="MuseoSans-300" font-size="20.0" fill="#585852" transform="matrix(1.00, 0.00, -0.00, -1.00, 153.2, 527.0)">a</text><text xml:space="preserve" font-family="MuseoSans-300" font-size="20.0" fill="#585852" transform="matrix(1.00, 0.00, -0.00, -1.00, 163.6, 527.0)">t</text><text xml:space="preserve" font-family="MuseoSans-300" font-size="20.0" fill="#585852" transform="matrix(1.00, 0.00, -0.00, -1.00, 170.3, 527.0)">o</text><text xml:space="preserve" font-family="MuseoSans-300" font-size="20.0" fill="#585852" transform="matrix(1.00, 0.00, -0.00, -1.00, 182.7, 527.0)">r</text><text xml:space="preserve" font-family="MuseoSans-300" font-size="20.0" fill="#585852" transform="matrix(1.00, 0.00, -0.00, -1.00, 189.8, 527.0)">y</text><text xml:space="preserve" font-family="MuseoSans-300" font-size="20.0" fill="#585852" transform="matrix(1.00, 0.00, -0.00, -1.00, 199.8, 527.0)"> </text><text xml:space="preserve" font-family="MuseoSans-300" font-size="20.0" fill="#585852" transform="matrix(1.00, 0.00, -0.00, -1.00, 205.2, 527.0)">g</text><text xml:space="preserve" font-family="MuseoSans-300" font-size="20.0" fill="#585852" transform="matrix(1.00, 0.00, -0.00, -1.00, 216.8, 527.0)">r</text><text xml:space="preserve" font-family="MuseoSans-300" font-size="20.0" fill="#585852" transform="matrix(1.00, 0.00, -0.00, -1.00, 223.8, 527.0)">e</text><text xml:space="preserve" font-family="MuseoSans-300" font-size="20.0" fill="#585852" transform="matrix(1.00, 0.00, -0.00, -1.00, 234.9, 527.0)">e</text><text xml:space="preserve" font-family="MuseoSans-300" font-size="20.0" fill="#585852" transform="matrix(1.00, 0.00, -0.00, -1.00, 245.9, 527.0)">t</text><text xml:space="preserve" font-family="MuseoSans-300" font-size="20.0" fill="#585852" transform="matrix(1.00, 0.00, -0.00, -1.00, 252.6, 527.0)">i</text><text xml:space="preserve" font-family="MuseoSans-300" font-size="20.0" fill="#585852" transform="matrix(1.00, 0.00, -0.00, -1.00, 257.3, 527.0)">n</text><text xml:space="preserve" font-family="MuseoSans-300" font-size="20.0" fill="#585852" transform="matrix(1.00, 0.00, -0.00, -1.00, 269.1, 527.0)">g</text><text xml:space="preserve" font-family="MuseoSans-300" font-size="20.0" fill="#585852" transform="matrix(1.00, 0.00, -0.00, -1.00, 280.8, 527.0)"> </text><text xml:space="preserve" font-family="MuseoSans-300" font-size="20.0" fill="#585852" transform="matrix(1.00, 0.00, -0.00, -1.00, 286.2, 527.0)">f</text><text xml:space="preserve" font-family="MuseoSans-300" font-size="20.0" fill="#585852" transform="matrix(1.00, 0.00, -0.00, -1.00, 292.6, 527.0)">r</text><text xml:space="preserve" font-family="MuseoSans-300" font-size="20.0" fill="#585852" transform="matrix(1.00, 0.00, -0.00, -1.00, 299.6, 527.0)">o</text><text xml:space="preserve" font-family="MuseoSans-300" font-size="20.0" fill="#585852" transform="matrix(1.00, 0.00, -0.00, -1.00, 312.0, 527.0)">m</text><text xml:space="preserve" font-family="MuseoSans-300" font-size="20.0" fill="#585852" transform="matrix(1.00, 0.00, -0.00, -1.00, 330.3, 527.0)"> </text><text xml:space="preserve" font-family="MuseoSans-300" font-size="20.0" fill="#585852" transform="matrix(1.00, 0.00, -0.00, -1.00, 335.7, 527.0)">t</text><text xml:space="preserve" font-family="MuseoSans-300" font-size="20.0" fill="#585852" transform="matrix(1.00, 0.00, -0.00, -1.00, 342.4, 527.0)">h</text><text xml:space="preserve" font-family="MuseoSans-300" font-size="20.0" fill="#585852" transform="matrix(1.00, 0.00, -0.00, -1.00, 354.3, 527.0)">e</text><text xml:space="preserve" font-family="MuseoSans-300" font-size="20.0" fill="#585852" transform="matrix(1.00, 0.00, -0.00, -1.00, 365.3, 527.0)"> </text><text xml:space="preserve" font-family="MuseoSans-300" font-size="20.0" fill="#585852" transform="matrix(1.00, 0.00, -0.00, -1.00, 370.7, 527.0)">I</text><text xml:space="preserve" font-family="MuseoSans-300" font-size="20.0" fill="#585852" transform="matrix(1.00, 0.00, -0.00, -1.00, 376.2, 527.0)">n</text><text xml:space="preserve" font-family="MuseoSans-300" font-size="20.0" fill="#585852" transform="matrix(1.00, 0.00, -0.00, -1.00, 388.0, 527.0)">t</text><text xml:space="preserve" font-family="MuseoSans-300" font-size="20.0" fill="#585852" transform="matrix(1.00, 0.00, -0.00, -1.00, 394.7, 527.0)">e</text><text xml:space="preserve" font-family="MuseoSans-300" font-size="20.0" fill="#585852" transform="matrix(1.00, 0.00, -0.00, -1.00, 405.8, 527.0)">r</text><text xml:space="preserve" font-family="MuseoSans-300" font-size="20.0" fill="#585852" transform="matrix(1.00, 0.00, -0.00, -1.00, 412.9, 527.0)">n</text><text xml:space="preserve" font-family="MuseoSans-300" font-size="20.0" fill="#585852" transform="matrix(1.00, 0.00, -0.00, -1.00, 424.8, 527.0)">a</text><text xml:space="preserve" font-family="MuseoSans-300" font-size="20.0" fill="#585852" transform="matrix(1.00, 0.00, -0.00, -1.00, 435.1, 527.0)">t</text><text xml:space="preserve" font-family="MuseoSans-300" font-size="20.0" fill="#585852" transform="matrix(1.00, 0.00, -0.00, -1.00, 441.8, 527.0)">i</text><text xml:space="preserve" font-family="MuseoSans-300" font-size="20.0" fill="#585852" transform="matrix(1.00, 0.00, -0.00, -1.00, 446.4, 527.0)">o</text><text xml:space="preserve" font-family="MuseoSans-300" font-size="20.0" fill="#585852" transform="matrix(1.00, 0.00, -0.00, -1.00, 458.9, 527.0)">n</text><text xml:space="preserve" font-family="MuseoSans-300" font-size="20.0" fill="#585852" transform="matrix(1.00, 0.00, -0.00, -1.00, 470.7, 527.0)">a</text><text xml:space="preserve" font-family="MuseoSans-300" font-size="20.0" fill="#585852" transform="matrix(1.00, 0.00, -0.00, -1.00, 481.1, 527.0)">l</text><text xml:space="preserve" font-family="MuseoSans-300" font-size="20.0" fill="#585852" transform="matrix(1.00, 0.00, -0.00, -1.00, 486.1, 527.0)"> </text><text xml:space="preserve" font-family="MuseoSans-300" font-size="20.0" fill="#585852" transform="matrix(1.00, 0.00, -0.00, -1.00, 491.5, 527.0)">S</text><text xml:space="preserve" font-family="MuseoSans-300" font-size="20.0" fill="#585852" transform="matrix(1.00, 0.00, -0.00, -1.00, 502.2, 527.0)">p</text><text xml:space="preserve" font-family="MuseoSans-300" font-size="20.0" fill="#585852" transform="matrix(1.00, 0.00, -0.00, -1.00, 514.0, 527.0)">a</text><text xml:space="preserve" font-family="MuseoSans-300" font-size="20.0" fill="#585852" transform="matrix(1.00, 0.00, -0.00, -1.00, 524.4, 527.0)">c</text><text xml:space="preserve" font-family="MuseoSans-300" font-size="20.0" fill="#585852" transform="matrix(1.00, 0.00, -0.00, -1.00, 535.4, 527.0)">e</text><text xml:space="preserve" font-family="MuseoSans-300" font-size="20.0" fill="#585852" transform="matrix(1.00, 0.00, -0.00, -1.00, 546.4, 527.0)"> </text><text xml:space="preserve" font-family="MuseoSans-300" font-size="20.0" fill="#585852" transform="matrix(1.00, 0.00, -0.00, -1.00, 551.8, 527.0)">S</text><text xml:space="preserve" font-family="MuseoSans-300" font-size="20.0" fill="#585852" transform="matrix(1.00, 0.00, -0.00, -1.00, 562.5, 527.0)">t</text><text xml:space="preserve" font-family="MuseoSans-300" font-size="20.0" fill="#585852" transform="matrix(1.00, 0.00, -0.00, -1.00, 569.2, 527.0)">a</text><text xml:space="preserve" font-family="MuseoSans-300" font-size="20.0" fill="#585852" transform="matrix(1.00, 0.00, -0.00, -1.00, 579.6, 527.0)">t</text><text xml:space="preserve" font-family="MuseoSans-300" font-size="20.0" fill="#585852" transform="matrix(1.00, 0.00, -0.00, -1.00, 586.3, 527.0)">i</text><text xml:space="preserve" font-family="MuseoSans-300" font-size="20.0" fill="#585852" transform="matrix(1.00, 0.00, -0.00, -1.00, 590.9, 527.0)">o</text><text xml:space="preserve" font-family="MuseoSans-300" font-size="20.0" fill="#585852" transform="matrix(1.00, 0.00, -0.00, -1.00, 603.3, 527.0)">n</text><text xml:space="preserve" font-family="MuseoSans-300" font-size="20.0" fill="#585852" transform="matrix(1.00, 0.00, -0.00, -1.00, 615.2, 527.0)">.</text><text xml:space="preserve" font-family="MuseoSans-300" font-size="20.0" fill="#585852" transform="matrix(1.00, 0.00, -0.00, -1.00, 620.1, 527.0)"> </text></g></g></g><g><clipPath id="clip-812"><path d="M 939.8 464.0 L 863.4 540.3 L 939.8 616.7 L 1016.2 540.3 Z M 939.8 464.0 "></path></clipPath><g clip-path="url(#clip-812)"><image xlink:href="../../24700E4A-6BA0-4DC2-B207-E7327B91710F/assets/7F68E4F361647783939C428D42072155.png" width="106.00" height="106.00" transform="matrix(-0.71, 0.71, 0.71, 0.71, 939.8, 465.4)" opacity="0.40"></image><path d="M 939.8 471.6 L 1010.5 542.3 L 939.8 613.0 Z M 939.8 471.6 " fill="#FEFFFF" fill-opacity="0.80"></path></g></g></g></svg>