<?xml version="1.0" encoding="UTF-8" standalone="no"?><svg xmlns="http://www.w3.org/2000/svg" xmlns:xlink="http://www.w3.org/1999/xlink" clip-rule="evenodd" stroke-miterlimit="4.00" viewBox="0 0 188 188"><desc>SVG generated by Keynote</desc><defs><pattern id="6F16B83D-0E8A-4867-B109-1F81292476D5" patternUnits="userSpaceOnUse" width="226" height="169" viewBox="0 0 226 169" patternTransform="matrix(1.000000, 0.000000, 0.000000, -1.000000, 6.743103, 181.730000)"><image xlink:href="../../D8898D71-BD24-4EF7-8DFE-CD7FF25ACBC0/assets/7F80CBD8CD9E70EF72A88AA7781C83BE.jpeg" width="226.00" height="169.00"></image></pattern></defs><g transform="matrix(1.00, 0.00, -0.00, -1.00, 0.0, 188.0)"><g><clipPath id="clip-147"><path d="M 156.1 156.1 C 190.3 121.9 190.3 66.5 156.1 32.4 C 121.9 -1.8 66.5 -1.8 32.4 32.4 C -1.8 66.5 -1.8 121.9 32.4 156.1 C 66.5 190.3 121.9 190.3 156.1 156.1 Z M 156.1 156.1 "></path></clipPath><g clip-path="url(#clip-147)"><path d="M 0.0 0.0 L 188.0 0.0 L 188.0 188.0 L 0.0 188.0 Z M 0.0 0.0 " fill="url(#6F16B83D-0E8A-4867-B109-1F81292476D5)"></path></g></g><path d="M 149.4 25.6 C 183.5 59.8 183.5 115.2 149.4 149.4 C 115.2 183.5 59.8 183.5 25.6 149.4 C -8.5 115.2 -8.5 59.8 25.6 25.6 C 59.8 -8.5 115.2 -8.5 149.4 25.6 Z M 149.4 25.6 " fill="none" stroke="#FEFFFF" stroke-width="10.00" transform="matrix(1.00, 0.00, 0.00, -1.00, 6.7, 181.7)"></path></g></svg>