<?xml version="1.0" encoding="UTF-8" standalone="no"?><svg xmlns="http://www.w3.org/2000/svg" xmlns:xlink="http://www.w3.org/1999/xlink" clip-rule="evenodd" stroke-miterlimit="4.00" viewBox="0 0 86 86"><desc>SVG generated by Keynote</desc><defs><pattern id="D405D61D-15E6-4967-A99F-388FAFB65844" patternUnits="userSpaceOnUse" width="84" height="68" viewBox="0 0 84 68" patternTransform="matrix(0.952381, 0.000000, 0.000000, -0.970588, 5.846466, 80.574520)"><image xlink:href="../../D8898D71-BD24-4EF7-8DFE-CD7FF25ACBC0/assets/FB59E5400E31FE69716520BB6132A581.png" width="84.00" height="68.00"></image></pattern></defs><g transform="matrix(1.00, 0.00, -0.00, -1.00, 0.0, 86.0)"><g><clipPath id="clip-695"><path d="M 69.9 69.6 C 84.5 54.9 84.5 31.2 69.9 16.6 C 55.2 1.9 31.5 1.9 16.8 16.6 C 2.2 31.2 2.2 54.9 16.8 69.6 C 31.5 84.2 55.2 84.2 69.9 69.6 Z M 69.9 69.6 "></path></clipPath><g clip-path="url(#clip-695)"><path d="M 2.2 1.9 L 84.5 1.9 L 84.5 84.2 L 2.2 84.2 Z M 2.2 1.9 " fill="url(#D405D61D-15E6-4967-A99F-388FAFB65844)"></path></g></g><path d="M 64.0 11.0 C 78.7 25.6 78.7 49.4 64.0 64.0 C 49.4 78.7 25.6 78.7 11.0 64.0 C -3.7 49.4 -3.7 25.6 11.0 11.0 C 25.6 -3.7 49.4 -3.7 64.0 11.0 Z M 64.0 11.0 " fill="none" stroke="#FEFFFF" stroke-width="8.00" transform="matrix(1.00, 0.00, 0.00, -1.00, 5.8, 80.6)"></path></g></svg>