<?xml version="1.0" encoding="UTF-8" standalone="no"?><svg xmlns="http://www.w3.org/2000/svg" xmlns:xlink="http://www.w3.org/1999/xlink" clip-rule="evenodd" stroke-miterlimit="4.00" viewBox="0 0 303 303"><desc>SVG generated by Keynote</desc><defs></defs><g transform="matrix(1.00, 0.00, -0.00, -1.00, 0.0, 303.0)"><g><clipPath id="clip-691"><path d="M 2.0 301.0 L 302.0 301.0 L 302.0 1.0 L 2.0 1.0 Z M 2.0 301.0 "></path></clipPath><g clip-path="url(#clip-691)"><g><clipPath id="clip-692"><path d="M 2.0 1.0 L 302.0 1.0 L 302.0 301.0 L 2.0 301.0 Z M 2.0 1.0 "></path></clipPath><g clip-path="url(#clip-692)"><path d="M 219.8 130.1 C 214.2 133.0 207.1 130.8 204.1 125.1 C 203.5 124.1 190.5 100.2 152.0 100.2 C 113.7 100.2 100.6 123.9 99.9 125.1 C 97.0 130.8 90.1 133.1 84.2 130.2 C 78.5 127.3 76.1 120.3 79.0 114.5 C 79.8 113.0 98.5 76.8 152.0 76.8 C 205.5 76.8 224.2 113.0 225.0 114.5 C 227.9 120.3 225.5 127.2 219.8 130.1 M 191.1 154.9 C 204.0 154.9 214.5 167.1 214.5 182.2 C 214.5 197.4 204.0 209.6 191.1 209.6 C 178.1 209.6 167.6 197.3 167.6 182.2 C 167.6 167.2 178.1 154.9 191.1 154.9 M 113.0 154.9 C 125.9 154.9 136.4 167.1 136.4 182.2 C 136.4 197.4 125.9 209.6 112.9 209.6 C 100.0 209.6 89.5 197.4 89.5 182.2 C 89.5 167.1 100.0 154.9 113.0 154.9 M 152.0 32.3 C 86.4 32.3 33.2 85.4 33.2 151.0 C 33.2 216.6 86.4 269.8 152.0 269.8 C 217.6 269.8 270.8 216.6 270.8 151.0 C 270.8 85.4 217.6 32.3 152.0 32.3 M 152.0 301.0 C 69.2 301.0 2.0 233.8 2.0 151.0 C 2.0 68.2 69.2 1.0 152.0 1.0 C 234.8 1.0 302.0 68.2 302.0 151.0 C 302.0 233.8 234.8 301.0 152.0 301.0 " fill="#FFFFFF"></path></g></g></g></g></g></svg>